<svg xmlns="http://www.w3.org/2000/svg" width="960" height="250">
  <path fill="#87ceeb" d="M-.00000392-.00005807v250.00001294H124.99997v-.02823946c4.09098797-.0574527 9.0184921-.19387854 10.5971058-.33478375 6.15757755-.54969584 12.32372975-1.5316503 18.00784985-2.86280036 50.82237706-11.90215652 89.1558648-54.52349787 95.5078337-106.18857737.72962528-5.9348649.88728203-8.69055004.88728203-15.5636469 0-6.87309688-.15765675-9.62313412-.88728204-15.55799903-2.7322947-22.22377925-11.53622552-43.48381364-25.3404476-61.17749542-20.31784275-26.0424369-50.05348375-43.08748732-82.43304202-47.2488163C136.25099078.3836092 130.4381534.0308106 124.99997002.00520032v-.00973774H-.00000393zm82.0256484 50.52449714c.09646488 0 .15073856.0233706.15073856.06719045 0 .26077688-.61016474.53012297-1.19986723.53012297-.78974532 0-1.63454383.94037426-2.0981599 2.33258-.20900725.62750045-.4492925 1.18333107-.5301671 1.2332857-.0808746.04966252-.63325785-.33575752-1.22763742-.85380568-1.05029795-.91534826-1.54324324-1.14067973-3.6105149-1.66856302-.9093033-.2321479-.88036385-.5571939.0672331-.72546218 1.56234134-.27733104 1.74971706-.21929407 3.0357206.9877971.6623922.6216578 1.27255695 1.12724164 1.3560624 1.12724164.30060017 0 .3421093-.19981858.16184664-.78690737-.15317454-.49857268-.13699962-.65612943.1227735-.94300347.3873211-.42777924 3.1002254-1.3181015 3.77226408-1.3002814zM94.062513 53.119354c.53503906 0 1.9741197 1.0742683 3.91179713 2.9464476l1.7857696 1.72426293 1.12717753-.02823946c.6197138-.01752795 1.12727497 0 1.12727497.05063628 0 .0467412-.46653925.31998238-1.03792315.60831708-.57148135.28823733-1.1950927.52457246-1.38393003.52457246-.21914093 0-.8852358-.62545553-1.8416023-1.73555873-.82423882-.9567337-2.04213232-2.18115804-2.7064733-2.71761055-.66434097-.5364525-1.21087787-1.04242586-1.21087787-1.12159374 0-.1711896.07892582-.25230504.22878742-.2511365zm-10.5859977 9.35261948c.1369996-.00973774.65742277.383862.9933934.7980084.22264874.27460448 1.0715397 1.26999702 1.88613204 2.2154349 2.57142247 2.98442484 3.5455229 4.45161124 3.44301678 5.16743305-.03020617.20770615-.18006778.40022142-.33480135.4296294-.56446572.10740737-1.38402746-.9043446-3.0357206-3.7500065-.92791422-1.59884075-1.93592352-3.2582503-2.243247-3.68856135-.30732347-.43040843-.62292928-.8921724-.69756777-1.02119757-.06041235-.10399913-.05651478-.14850063-.0116927-.15074032zM71.891765 63.8336027c.28023536-.01265907.36832046.03992477.36832046.1897887 0 .14061307-.19711965.34656643-.44091272.45757675-.5328954.2425673-.7777603.25064962-1.1216235.03310834-.38722367-.24461222-.00974392-.5325574.8482089-.64726808.13972792-.01850172.2525626-.02921324.34600686-.03310834zm67.36600692.69196433c.08769535-.02142304.16662116.07400688.22878742.29018488.04774525.16739188.25373187.86344607.4520208 1.54577003 1.16225567 3.9982217 1.43060343 6.3295358 1.73549092 14.9442288.16291847 4.60050138.04579646 6.29048744-.4520208 6.45641866-.11147052.03700343-.45864666-.15716725-.77006258-.43527732l-.5691428-.50782353.38498257-.53567348c.88328703-1.23961525 1.28727026-3.70754995.66970013-4.0959887-.44520004-.27996023-.74960034.1824854-.89848755 1.37273026-.1394356 1.1157511-.81313075 2.0745297-2.47768588 3.51561894-.57995857.50217564-1.16517885.909603-1.3002297.909603-.13505083 0-.55121397-.31355548-.92625774-.69751486-.3751412-.38395937-.98286996-.90444197-1.3449543-1.15509158-.79130435-.5481378-.8457729-1.02645596-.20647382-1.78570812.31472885-.37373475.60305167-.53577086.9598743-.53577086.3768951 0 .55433203-.10409652.6696027-.40732998.08574655-.2260131.31921106-.4556292.51896157-.50782352.33236537-.08666596.35964836-.20517434.31813923-1.37273026-.03702692-1.03892027.00974393-1.27233407.2175819-1.27233407.14479477 0 .34844285.270612.45767228.6082197.15005648.46419843.2890049.6082197.59701044.6082197.32905243 0 .4374049-.1387629.5859998-.73101268.18454998-.73597895.34678638-.99286073.63618102-1.0322986.08769535-.0116853.23161316-.03310835.32359583-.04479364.09256732-.0116853.25665506-.3428661.36276643-.73656322.1883501-.69917026.05066842-2.96124898-.5301671-8.7611487-.22323338-2.22858088-.21875117-4.17262477.0116927-5.00004117.10903456-.39243123.23307476-.60899873.34590944-.63616704zm-72.73988037.68076592c.0954905 0 .1729547.07790198.1729547.17303977 0 .09542993-.07697702.1729424-.1729547.1729424-.0954905 0-.17305216-.0769282-.17305216-.1729424 0-.09542992.07697702-.17303977.17305215-.17303977zm23.10265722 6.9810885c.06333553-.0116853.15064112.0107115.23434146.09445614.12491715.1249353.12442995.22241014.00974392.29573538-.09743927.06037403-.2260591.02531814-.29017416-.07790198-.10328564-.16709974-.0555404-.29291144.05066842-.3124843zm-19.05697853.15064294c1.03587694 0 2.39398555.6925486 2.39398555 1.21653678 0 .2688592-.39053662.19611823-.8705225-.16184136-.2392134-.17839554-.77074466-.4154123-1.1774562-.52457246-.7879914-.21150387-.9966089-.531681-.34600686-.53012297zm17.3884284.20088972c.12462482-.00973774.25694735.00973775.40183956.04479364.46985218.11782674.60568253.6194181.16740067.6194181-.14693843 0-.45708764.13077796-.69201373.284537-.39238796.25697915-.43701515.25697915-.53572113 0-.2002377-.52155376.11868104-.92148304.65849463-.94865136zm3.53236858.32923324c1.0861556-.01460662 3.07547584.31920336 3.1808077.64171756.0516428.15940692-.198971.21208813-.94311475.1897887-2.32607037-.0701118-3.1758383-.2702225-2.91850116-.68641382.05943797-.09542993.31872388-.14022356.68080822-.14509244zm16.11606633 3.47102006c.36500752 0 1.4582762.67122293 3.1026614 1.8917522.80767415.59945572 1.7878158 1.2492556 2.17640364 1.44527646.38849038.19602086 1.77807188 1.01272573 3.08590183 1.81365545 1.30782995.80083235 2.4680394 1.45647488 2.57814578 1.45647488.1101064 0 .46926756-.20712188.79793023-.45757674l.59710788-.45767413.26230654.63061653c.14469732.34617692.36237666.63061652.4855399.63061652.6264371 0 .83252117-.9489435.37942854-1.74110924-.13680474-.2390617-.24778808-.6756049-.251101-.9709508 0-.29544325-.40554227-1.34254323-.88728205-2.3270295-.48173977-.98448625-.84021887-1.82173777-.79802766-1.86380484.0418989-.0418723.56553755.71173196 1.16069664 1.67966405.59525654.9679321 1.41452597 2.09001272 1.81919128 2.49442137.92674494.92615716 3.15050408 2.29684248 5.6920127 3.50442054 3.13540098 1.48977797 6.69368842 3.98108327 8.24774742 5.77010222.76294952.8783448.87987665 1.1035789.80913574 1.5848184-.10572162.72030116.3088825.910382 1.0380206.47997356 1.0514672-.6207814 2.95338442.07887575 3.86716994 1.42297703.65518168.9635501.57596355 1.3793519-.1562926.82585835-.18571926-.1404183-.7003935-.2511365-1.1439371-.2511365-.9966089 0-1.5456792.50042284-1.6853097 1.5402195-.08477216.63149292-.0516428.72789662.3236933.87055462.2315157.08763973.52383353.280934.6472891.42962942.123553.14879278.5912615.3259224 1.03792315.39067842.44675907.06426913.8762714.15015607.95432026.19524184.2682503.1552197-.42464037.70705784-1.50114948 1.19423734-1.87814203.85000797-4.7053426.7975215-7.20982428-.13389403-.96523346-.35903074-1.1484193-.7007283-.60821595-1.12724164.6331604-.50003334 1.71746465-.99354237 2.38833406-1.08819328.60022593-.0847184.69756776-.1608676.69756776-.53567348 0-.33575753-.12784032-.47490994-.55803472-.6138676-.74882083-.24188565-.75008754-.24743616-.56358877-1.07699486.30332846-1.34945704-.45913386-2.1838846-.99329597-1.08819327-.1163425.23838006-.43029184.88954323-.69756777 1.45092437-.65128412 1.36747187-1.26807473 1.9262238-4.19086323 3.76110755-3.09759455 1.94462816-3.17525365 1.9841634-3.17525365 1.7188098 0-.11422378.28598427-.78018832.63618103-1.4788717.53435698-1.0659912.79646863-1.36922466 1.61271744-1.90840374.53503905-.35348023 1.54275603-1.21614727 2.2433444-1.914149 1.0613086-1.0573246 1.2630079-1.34760686 1.21652936-1.75221027-.04482206-.39136006-.15395405-.50022807-.5636862-.54687188-.27955328-.03213457-.6463147-.23244003-.81468978-.44637834-.1684725-.2140357-.87880482-.65418187-1.57929577-.9821492-1.20249808-.56323132-1.37779134-.59711868-3.14173453-.59711868h-1.86381846l-1.54577665-2.18193706c-2.45634668-3.46011378-3.09506113-4.00698567-9.7712105-8.43191547-3.65338817-2.42148565-4.6783519-3.2131645-4.1573441-3.20868515zm-15.21202473 6.95314116c.65186875 0 .669895.4646853.07210506 1.7131619-.30907738.64590478-.60451326 1.6158818-.67515674 2.1985886l-.12842496 1.0435944-.6919163-.0116853c-.38166963-.00973775-1.3531392-.15112984-2.1539926-.32368273-1.11821313-.2408145-1.9616475-.2973908-3.64958805-.2399381-1.96632457.06719046-2.38307235.14109997-3.9397622.69196434-.95695113.33867884-1.88048058.6760918-2.0479787.7477616-.65752022.28171304-.27828656-.4400488.59155385-1.12724163 1.69320228-1.3374796 3.22874782-2.0456086 5.4798874-2.52227133 1.37925292-.29203504 2.95455368-.33780246 3.10831286-.08958728.05846356.09445615-.09646488.46721712-.34045283.82585836-.52607463.77366403-.54439322.91525088-.1283275.91525088.3873211 0 1.31299422-.96023927 2.2879716-2.37727627.7422924-1.07884504 1.30402982-1.44527647 2.21537936-1.44527647zm14.402889 4.5368165c.50229945.06524292 3.40326155 3.47335713 8.19191472 9.63170334 1.3387182 1.721439 2.55329876 3.2974934 2.69536522 3.49887002.14196903.20137662.8382701 1.1407771 1.5513307 2.0870914 2.87231495 3.8115491 7.3694298 10.84853225 9.65964253 15.1115233.35964835.66947014.81313074 1.4754635 1.00440404 1.791356.1912733.31579516.30946713.6113358.26230652.6584665-.04677085.04674118-.30371822-.2892111-.56924024-.74776163-1.41247973-2.43969522-5.74920954-8.64653542-8.78346857-12.5726004-.9239192-1.19540588-2.18117817-2.89736937-2.79572768-3.783407-1.70976695-2.46520814-3.52389138-4.87004224-4.8827795-6.47326497-2.3903803-2.81995427-6.41189406-8.536791-6.41189406-9.1126814 0-.0652429.02630862-.0964037.07795143-.08958727zm30.70311554.69751486c.06041235 0 .11059358.02142304.13953305.05063628.05748918.0574527-.0399501.0964037-.22323337.08958728-.2026737-.00973775-.2448649-.04479364-.10601393-.10049355.06236113-.02531815.1293019-.04187232.18971426-.038951zm-12.32704268 2.455373c.29592308.0003895.71890697.07498066 1.09940734.19533922 1.07533984.34004214 3.06358825 1.48724616 3.06358825 1.7689592 0 .19952643-.9313246 1.1039684-3.2031213 3.10264107-1.20162113 1.05712985-1.84150485 2.03197575-1.84150485 2.80690568 0 .66080355-.47501646 1.4667969-.97663385 1.65736462-.52402842.19913694-4.0630229.21676226-4.36937197.02239682-.30703116-.1949497-1.61271744-1.97004368-1.61271744-2.19313547 0-.10273323.44861042-.36156256.99885-.57472185 1.07329362-.41599657 2.46862404-1.46426508 3.1361805-2.36052735.22635145-.30381772.72348663-1.15713652 1.11051543-1.8973027.73771274-1.41109698 1.58407028-2.3080409 2.34935835-2.50006927.06430992-.01655417.146841-.02823947.24544953-.02823947zm-55.2678491 6.51231333c.29377942-.01752794 1.99156135 2.085436 4.02346255 5.0111422 3.66157307 5.27201643 5.60412246 8.35674006 17.72878377 28.08590318 9.39597185 15.2891398 11.9348496 19.10146792 14.1294744 21.22770506 2.3859955 2.31164387 3.13013926 2.87146697 9.71537778 7.3437222 4.56425052 3.09981714 5.3588678 3.70034403 7.20427024 5.43531848 1.86459796 1.7529893 3.15294006 3.65876383 3.15294006 4.66516003 0 1.24740545-.48768358 2.54174683-1.23884295 3.29242978-.6408581.64045164-.7294304.67511803-1.46207632.57472185-.83349555-.1141264-1.95852942-.6311034-4.65399208-2.1484392-.93288362-.52505935-2.1576953-1.10202088-2.72323286-1.2778846-1.51430377-.47101484-3.85625674-1.6894018-7.6730506-3.98994462-3.57884712-2.15720317-5.26620304-3.05268642-6.69641672-3.5603152-.47842684-.1698263-1.7158082-.69887813-2.7511005-1.17739103-1.45593764-.67287835-1.93358496-.82459245-2.09260586-.66411438-.15863114.16008856-.06236114.32397485.4073936.71991166 1.67965823 1.41567372 5.3980384 3.29242977 6.52901607 3.29242977.60071313 0 .96494114.20459008 2.6060134 1.47877432 4.0370066 3.1344835 7.98904617 5.11971808 11.4230011 5.73660437 2.7010167.48523196 4.05493542 1.62182183 4.95527432 4.1573365.13924073.39184696.47901148 2.0057812.75340048 3.58816516.274389 1.58238396.6649256 3.34238442.86496844 3.9118479.69902935 1.9902008 2.14366404 3.58738613 3.92300264 4.33037626.9184626.3834725 4.90869836 1.37672273 7.31028417 1.81920597 6.88593614 1.26863374 8.53821392.1431449 4.9943475-3.39847383l-1.28347014-1.2778846h-1.8693725c-1.89285535 0-2.80839477-.18297227-3.3649679-.66411437-.6888957-.59536587-.2091047-1.51928335 2.22093338-4.29687842 1.90328136-2.1753154 2.69867816-3.2416961 3.46542782-4.6372127 1.19801588-2.18047638 1.19519014-2.1462969 1.22208338-12.48885578.02435982-9.21044838.07405385-10.01040433.6083134-10.3404166.6195189-.38269346 2.1118014 2.52626382 2.628327 5.1227368.19975052 1.00425388.78311946 3.50743922 1.3002297 5.56366196 1.26593105 5.03412328 1.71746465 7.1811992 2.26556057 10.78124442.25490115 1.67372402.5375725 3.5165927.630627 4.09043817.19838636 1.22393747.07307945 4.14165872-.3180418 7.26562547-.41323996 3.30031734-.15366173 3.252505.99329597-.17303978l.70867585-2.12049187-.19536574-2.48332034c-1.0585803-13.3676875-4.14048712-26.54802074-9.15734307-39.162883-1.9215025-4.83187024-4.86163518-11.22333813-6.6908627-14.5368988-.48485782-.87834483-.8492807-1.62834613-.80913573-1.66846565.0399501-.03992477.544783.76840564 1.12172094 1.79680915.57684052 1.02850088 1.50075972 2.65412043 2.05353273 3.61056198 1.6411697 2.83942977 6.3405685 12.25777906 7.97988686 15.98772582 1.81665784 4.1335764 4.1578313 10.25248473 5.13397795 13.43185926 1.26758753 4.12929178 1.90396344 8.88189678 2.05353273 15.3125104.05846356 2.51048866.1416767 4.56476385.18416023 4.56476385.0428733 0 .2172896-.1767401.39063406-.39058105.2942666-.36321797.35886885-.3734426.95977686-.15629084.48398088.17488994.69211117.18345916.84265485.03310834.1639903-.16330202.48856052-4.8013911.3515609-5.0223406-.01948785-.03213457-.19858124.0311608-.40174213.13954192-.9767313.52233277-1.50202642-.48143423-1.79132363-3.4319717-.1461589-1.4900701-.14187157-2.58342438.01169272-4.36942463.2448649-2.8578341.58687676-4.19083435 1.0769963-4.19083435.39092638 0 .71296318.94319822 1.12717754 3.2979803.2434033 1.38344177.47365232 1.93693533.7087733 1.70206086.05846355-.0574527.08672094-1.18858945.06138673-2.5111703-.08672096-4.4685549-.07892582-4.80168324.12832752-4.87169765.12150677-.04089853.48495527.7859336.92635518 2.10939085.81254612 2.43687128 1.1960671 3.09007938 1.61827148 2.73990998.32057522-.2658405.39414187-.53976334.90959564-3.4764732.42132742-2.4005495.64738654-2.97176575 1.0546827-2.6339633.28881002.2395486.93872998 2.17044653 1.09375587 3.25338142.2634758 1.8407264.68509553.50431793.70867584-2.24338225.0146159-1.6557092.32457022-2.37016772.93190922-2.1372408.45065665.17284502.741318.83803054 1.2556025 2.8739014.46186216 1.82835944.69854216 2.33900692.8594144 1.88055377.04774525-.13554945.16428262-1.43028034.2622091-2.8794519.09792647-1.44917158.2570448-2.83748222.3515609-3.08598954.3039131-.79869004.68314676-.54356106 1.32254328.89295144.92869373 2.08631238 1.3618113 2.8859762 1.5513307 2.8570551.0954905-.01460663.22264874-.82644263.27906608-1.80800757.15648748-2.7225768.69064958-4.52990272 1.19421575-4.0345435.1044549.10273323.345812 1.34750948.53572114 2.76785732.18990916 1.42034783.38118245 2.61896716.42405573 2.66181325.04287328.0428461.18610902.038951.31813924-.0116853.14976416-.0574527.3783567-.83335642.61377-2.06469458.42347108-2.21407163 1.12376715-4.6112129 1.49559542-5.11718626.23629023-.3216378.25548577-.3159899.4520208.1841408.14011767.35688845.1714931 1.13931645.09451608 2.47767245-.06138674 1.07592372-.04774524 1.95904003.0282574 1.95865052.07600263-.00029213.39735736-.7975215.71978392-1.7689592.74696948-2.2500039 1.71269014-4.34332746 2.71212478-5.8872473 1.6217793-2.50552242 1.7158082-1.1875183.2734146 3.82255273-.5651478 1.96312988-.8125461 3.09377973-.7031218 3.20313463.17997034.1798562.5601784-.594879 2.99109342-6.0658376 1.86810578-4.20436983 2.29381797-4.6605833 1.46197888-1.56251896-.44948737 1.67440567-1.10174588 6.79451325-.89283607 7.00338793.0691819.069138.22907974-.02044927.3572124-.1953392.3887827-.53148626 1.46490205-3.7428006 1.9028916-5.6808071.50424824-2.2318917 1.16040432-4.21459444 1.42290572-4.2968784.32242656-.10107782-.04677085 1.5290211-.98209045 4.31362734-.83349556 2.48010687-1.85290525 6.18103515-2.26010398 8.21982732-.25704482 1.2874276.0097439 1.7136488.43535867.69751485.6527457-1.55609204 1.83029934-5.11893906 1.83029934-5.54126516 0-1.8069364 2.2973258-8.5194578 4.34150435-12.69529603 1.18495902-2.42051187 1.8800908-3.37344783 2.28241757-3.1250379.47618574.29417735-.28520475 4.76419292-1.3114352 7.7121012-1.1216235 3.22202585-1.5875781 5.7589038-1.06023675 5.7589038.39901383 0 1.9974077-4.46280963 2.36602048-6.607159.35838165-2.08417006 1.40361275-5.97274473 2.4553723-9.1294303 1.12581337-3.37870622 1.6628012-4.62309296 2.0480761-4.74890466.2046225-.06719045.22479242.20595337.13388157 1.6406157-.1121526 1.7697382-.15220015 1.9530026-1.23884294 5.6305603-1.10778712 3.74932488-2.85691954 11.55734287-2.63953252 11.77459202.24155196.24139876.46800084-.3467612 1.75225048-4.531266 1.3082197-4.26250417 1.72613676-5.85949474 3.32034074-12.71759548.82959798-3.5689818 2.24461113-8.13725124 2.87387397-9.27452276l.3515609-.64181493-.0779514.69761223c-.04579647.3824987-.24398796 1.55394973-.4408153 2.60601596-.39959846 2.13558538-.4441282 2.6953111-.20091978 2.6953111.24476746 0 .82482346-1.39191362 1.50114947-3.6161125.6854853-2.2543859 1.05828797-4.8035334 1.8135398-12.29351658.71345036-7.07388922.9207037-8.08447265 1.4843899-7.32142276.3820594.5170744.4897298 1.7395512.2790661 3.1975841-.10669602.7384134-.43379966 3.1821011-.7254354 5.42967058-1.45291704 11.1976305-4.4336819 22.3515385-9.07929422 33.99554733-1.22744255 3.07644655-4.29531812 10.36875344-4.9386122 11.7354463-1.22071925 2.59384376-2.63836326 4.28412196-4.19086323 4.99439325-.8395368.38415414-1.1211363.4270976-2.10936544.33488114-.9439917-.0886135-1.396792-.2533762-2.6506406-.9765987-1.4531119-.83812792-1.57003903-.87610513-2.83480082-.87610513-1.55386412 0-2.223954.13087532-6.03236808 1.16629-2.39603177.6514553-3.01282238.89246455-3.73884242 1.43972596-1.2928243.97445638-2.1755267 1.42619048-4.9386122 2.53911763-3.71847763 1.49756817-5.40787978 2.7316329-6.4955944 4.74325676l-.4743344.87055462.94311475.21199076c1.08859157.24354106 2.29995664 0 2.80693318-.55797293.2803328-.309563.274389-.36068616-.03312935-.93190243-.25772688-.47831815-.2803328-.64609954-.11156797-.81475732.16876483-.16865778.32388815-.1521036.74219496.09445615.69581386.41083556.93746326.29300882 1.29467565-.64171755.29192806-.76421842.30820042-.77522207.97098237-.68641382 1.04435415.1400288 2.7940712-.66460126 3.26450803-1.50107376.61493927-1.0936464.97361324-1.3063188 2.43861274-1.45092436.73167152-.07205933 1.65763695-.132336 2.05908677-.1283435.83602898.00973773 1.78313873-.3437425 2.6060134-.9709508.4157734-.3168663.69035727-.39973454 1.015707-.3181322.32642158.08179706.62858077-.0194755 1.13273158-.36828162.67574137-.46799614.69698313-.47111222 1.16079408-.16739188.2597731.17011845.49557616.23701677.52451562.15064295.16740067-.4992543.6882136-1.36016855.85376293-1.4117786.11156797-.0350559.2397006.24578073.29582564.66401698.0535916.39934503.21826397.84893683.36822302.99889814.24769063.24743616.32583693.22143638.8482089-.28463436.80543303-.78009094 1.12327995-.7244884 1.37837597.22883707.11517323.43031105.266399.78125947.33480136.78125947.0682075 0 .21923837-.29427473.3348988-.65291596.24320842-.75496756.491776-1.11906193.68636224-.99889813.07502824.0467412.26727593.66304322.42405573 1.36717973.1567798.7042339.40037798 1.42628787.5413726 1.60711783.24622906.31589252.27175815.3086866.74209753-.23438758.26932215-.31073152.54351627-.56917134.6083134-.56917134.25616784 0 .10016756 2.37269953-.22878743 3.47657058-.46975474 1.5761518-1.41579266 2.97127886-3.03016657 4.4754687-2.59519765 2.41807744-5.21836037 3.724591-15.14508395 7.53906142-1.95034452.74941704-2.61176232 1.09423067-3.37052196 1.75776078-1.66465257 1.45579324-3.10227163 1.93206646-4.67630568 1.54577002-1.76511247-.433135-3.55185645-2.1826187-4.2131768-4.13503705-.35156092-1.03765437-.609775-1.19043962-.66970015-.39622895-.24856758 3.29651963-1.0023578 6.91818264-1.93631326 9.3024701l-.54692665 1.38957655.44646674.39058105c.2458393.2152042.55511155.39058105.68636226.39058105.46527253 0 .95587928-.92567027 1.64623655-3.1137421.64758142-2.05271717 1.05672894-2.79580467 1.53457114-2.79580467.1047472 0 .4322406.19991595.7254354.44647572l.5301671.44637834 1.3504109-.51902194c5.2390175-2.0162006 10.4093403-1.20241705 13.59375326 2.1428887 1.87356237 1.96829088 2.79718926 4.21099148 3.07479376 7.4777136.10114196 1.1901475-.12238373 4.0064014-.33480135 4.2186843-.03605253.03602967-.52227452-.06719045-1.07709375-.22873968-.74813875-.21734652-1.32078937-.26272442-2.22648743-.1785903-2.8669558.2663274-5.5379612 1.42258753-5.0613857 2.19313548.04969402.0808233.50054554.26652215 1.00440403.4128805 1.0603342.30810232 4.3545612 2.4929607 4.44196423 2.9464476.04774525.24840994-.02923178.28463436-.43526124.18969132-.80065852-.18696475-3.88880146-1.36795875-5.005553-1.91405163l-1.0323691-.50772615-.02241105-.99889813c-.0126671-.54881945-.0799002-1.05109246-.14508708-1.1161406-.41216814-.41190673-2.377226 1.6923231-2.377226 2.54466814 0 .85341618.53942383 1.02772186 1.8693725.6082197.3555559-.11208147.39063405-.06816423.39063405.4910746 0 .81689963-.65011485 1.57547015-1.70197182 1.98104733-1.62119466.6251634-7.54150757.33439425-11.66854806-.56917133-.73303567-.16047808-.3153135.30459674.59155384.65846648.47413952.18511458.9358068.40771948 1.02671765.4966251.1672058.16359417-.5991541.18784116-1.46763036.04479365-13.67949983-2.2552623-19.54972895-3.91058198-26.36161123-7.42746683-6.5169336-3.36468386-9.7607845-6.37179763-13.81133515-12.81808903-2.28758186-3.64045686-3.9206641-7.080803-7.94081372-16.75778687-4.10365507-9.87758145-5.90004554-13.47129713-8.7054197-17.3884034-2.05772262-2.87321975-2.59519766-3.72186443-2.44972082-3.86715162.18669365-.1866726.8603888.27781794 2.71202734 1.87500327.99056767.85438995 1.8614799 1.55687105 1.9364107 1.55687105.47589343 0 .1721752-.66245895-1.31698923-2.89620083-.92479617-1.3872395-1.65393426-2.65119912-1.62392296-2.8069057.0389757-.2009871.72806626.31092628 2.37167195 1.75776078 1.2740185 1.12149637 2.38852894 1.99146673 2.47768587 1.93644845.28608172-.1767401.1766574-.49292477-.6472891-1.9085011-.44403078-.76275776-1.03665645-1.81774532-1.31698924-2.34377843l-.5078535-.9597524.80913574.87045725c.44597956.47822078 1.3506058 1.66661547 2.00900297 2.6395138.65839718.97289836 1.27528523 1.8182322 1.36717047 1.87500328.4237634.26175065.263963-.36808686-.69201372-2.7566589-1.17979475-2.94810304-1.48624126-3.88214777-1.32254328-4.04574193.1607748-.16067283.87666115.53577086 1.81919126 1.7689592 1.21458056 1.58900562 3.5350969 3.91184788 3.90634054 3.91184788.2587987 0 .30732347-.08277085.2175819-.39067842-.34025795-1.16736116-2.82573898-5.60709234-6.30578268-11.2611206-1.7485478-2.84089043-9.93383665-15.8628879-11.3671684-18.08591825-2.08734414-3.2374115-7.7038414-12.10684396-8.86161485-13.99557744-.70351157-1.1476909-1.95190356-3.18112733-2.77906556-4.5200676-2.04145024-3.3047967-2.65531768-4.40594118-2.57814577-4.63731006.00974393-.02044927.01948785-.02629192.0389757-.02823947zm36.35050106.7198143l1.70752585.10049354c.9407762.05647895 2.49912252.15366167 3.45987377.21199077l1.746599.10604407.59710788.78125948c.3297345.43147958.55978864.85351356.5078535.93745294-.10455234.16914467-.6304321.1651522-4.6875112-.038951-4.31792403-.2173465-4.766437-.39915026-3.8057832-1.54012212l.4743344-.5580703zm-55.70876182 6.60715898c.16067737-.0584265.91329833.83150625 2.34380432 2.6841127 4.32815516 5.60533953 12.19588942 15.2701512 26.21087266 32.19309027 4.7911866 5.78519573 6.8794077 8.3280137 7.4162981 9.02348363.52539257.6804738-.01753907.44024356-1.1439371-.502273-4.90353407-4.10436316-15.08632806-15.09321635-22.7957235-24.59823158-5.69795648-7.02490836-8.909555-11.7660228-11.13838096-16.45085308-.71793258-1.50896135-1.03461022-2.2981084-.89293352-2.34932895zm67.58933774 1.45092436c.03020618-.00973774.0682075 0 .11156797.01655418.40057286.1322386 4.82977254 6.1354625 8.19201217 11.10482976 4.4391385 6.56109944 7.81677352 12.82149725 8.45422125 15.66414047.11098334.49477495.54663434 1.31732248 1.12717754 2.1260424 1.57335196 2.19148005 3.55156412 6.56119682 4.96657727 10.97658362.39677273 1.2380572.76392392 2.58459292.82034126 2.9910465.2106637 1.5182122-.10552674 1.01077817-2.17075217-3.43742484-8.51248994-18.3342308-11.4956908-23.82193835-16.28356444-29.96655434-.6065595-.7785329-1.31211728-1.83089126-1.56809025-2.33813053-.25587554-.50723925-1.04191817-1.76340866-1.74104497-2.79025413-1.4307983-2.1014059-2.3640717-4.27165765-1.90844564-4.3470278zm6.30578268 12.49440632c.15872858 0 4.3585562 6.9300627 5.13397796 8.47096384.25100358.49896218.45757484 1.02519005.45757484 1.17184053 0 .47422828-.26289117.29076912-1.71317733-1.19413998-1.53642248-1.5731331-2.0927033-2.56531217-3.39848703-6.05473658-.6254627-1.67158172-.76977027-2.39392782-.47988843-2.39392782zm2.92415265 9.1183293c.80650486.11636607 4.00689785 4.50760326 6.31689074 8.74439978.6904547 1.2661993 1.225104 2.39081174 1.18866172 2.4999719-.07015628.21082222-3.72529836-4.01652868-5.40183853-6.24997843-1.65568816-2.20579454-2.68971374-4.5036108-2.2321389-4.9609928.03118056-.03116078.07502823-.04089852.12842496-.03310833zm1.20532382 5.5133178c.5792765-.01655416 8.09496265 10.46953913 7.8124862 10.92633686-.18377048.29719605-.5249054.19485233-.98209047-.3012859-.72796882-.78992607-3.84787696-4.88425934-5.06703717-6.65185525-1.0417233-1.510422-2.03472694-3.71865098-1.78567216-3.9675478.00974393-.00973775.0136415-.00973775.02241104-.00973775zm.56358876 3.9731957c.39355724 0 7.94890118 10.41422872 9.0569806 12.4833053.11351677.21208813.13349182.38503052.04482208.38503052-.2185563 0-2.47661405-2.5462262-2.9409122-3.31472922-.4351638-.72030117-2.17513693-2.41223478-4.1015114-3.98994462-.78711446-.64463887-1.50787278-1.39999594-1.7076233-1.79125863-.40554226-.7945028-.68295187-3.77240334-.3515609-3.77240334zm.44646676 5.2679266c.31239032 0 .88630765.49311952 1.9587243 1.54012212 2.9718979 2.90175135 6.84705786 8.24495073 6.84705786 9.44201202 0 .58523862-.5396187.172066-2.9017416-2.24328487-1.82630434-1.86740783-2.7555827-2.68138614-3.59375535-3.14178683-1.35226226-.74279537-2.4896709-1.91784935-2.63953252-2.72316106-.05943796-.3194955-.08574656-1.08692736-.0555404-1.70761138.03702694-.76655547.10942432-1.16220015.38508003-1.16629zm-.18971427 5.5859614c.3778695-.02726568 1.84520755.76597123 3.08590184 1.67966406 2.24558554 1.65366427 5.7309884 5.67486706 5.7309884 6.6127095 0 .1803431-.0925673.3260198-.21202785.32368273-.31745716-.00973774-1.68794056-1.0465157-3.04127465-2.31028056-.64943277-.6064669-1.98912536-1.70897467-2.97433387-2.4498225-.9852085-.74075043-2.02186496-1.663402-2.30473117-2.05359354-.50502777-.69673583-.67593625-1.58189706-.34590943-1.78570812.0146159-.00973774.03605253-.01460662.06138674-.01655417zm-.3738745 2.96874706c.51165364 0 2.20982532.99178958 3.66625017 2.15398973 2.47807564 1.97744437 5.70312076 5.78772755 5.70312076 6.74105302 0 .22630525-.10387027.40732998-.23434145.40732998-.2979693 0-2.2013481-1.4330069-3.5323686-2.66181325-.56125023-.51804817-1.41325925-1.14204302-1.89178353-1.38947918-1.5622439-.80774615-4.16172887-2.63055508-4.41965063-3.09709056-.2237206-.40470077-.2172896-.54434007.0506684-1.2444841.16584166-.4340114.4239583-.84056236.57469686-.89840458.02338542-.00973775.04969403-.0116853.08379777-.01071153zm-.79247362 4.09589132c.2671785 0 .67476698.13905503 1.3002297.39622894 1.41277204.58085663 3.4455502 2.0512565 5.06693973 3.66071138 2.09747783 2.08212515 3.77713605 4.48433005 3.54912815 5.0781379-.05164282.13418615-.16330823.24558598-.251101.24558598-.2622091 0-2.20368666-1.35228098-3.1026614-2.15963762-.46059546-.4136595-1.7812874-1.39697724-2.9297067-2.18748758-4.12762512-2.8414747-4.38028516-3.1112103-4.1685496-4.36387412.0779514-.46186135.19224768-.6748259.53572112-.66966488zm-.01656468 3.83930166c.39336236.00973775.88279984.19553397 1.62392296.58592026 3.02734084 1.59484827 8.90068802 7.05567964 8.90068802 8.275722 0 .18268015-.0980239.33098604-.21767934.32923325-.39930614-.00973775-1.92559495-.94699594-5.4352602-3.34267655-3.93635182-2.68683926-5.24047908-3.7284861-5.7421939-4.5926138l-.3515609-.59711868.41294763-.34033427c.25587554-.2114065.50327386-.3220273.80913574-.3181322zm-.22313594 4.11273762c.90667246-.08374463 4.6929678 2.3015166 8.10266036 5.1451336 1.27957255 1.06715973 1.77456406 1.60585192 1.77456406 1.92515265 0 .27684416-.63569383-.02434437-2.69536522-1.2778846-1.24410467-.75720723-3.18538734-1.91005914-4.3136367-2.55576917-1.94488794-1.11321928-3.25885656-2.21864837-3.25885656-2.74555788 0-.1314596.11527066-.3281621.251101-.44082783.03410376-.02823946.07892583-.04479363.13953305-.05063628zm1.80798575 3.56586572c.41791705-.03213457 2.42594563 1.1282154 4.11271692 2.39392782 1.64896485 1.23737556 3.6105149 3.1406183 3.6105149 3.5045179 0 .35727796-.9186575.0623216-2.09825735-.66966488-.71335293-.44248324-1.77729238-1.02246347-2.36602048-1.289083-.58882553-.26652215-1.37613488-.75360427-1.74669644-1.0880959-.65898182-.59507374-1.7889851-2.6196488-1.57919833-2.8293025.0126671-.01265907.0389757-.02044927.0672331-.02239682zm-2.42185318.8538057c.90940076-.0990329 8.05394072 5.75452182 8.8559634 7.30467382.24009036.4639063.23268498.48357654-.1450871.4798762-1.0234047-.00973775-5.1661329-2.9187924-7.1037129-4.98884275-1.04552342-1.11691963-1.903866-2.53824124-1.67410418-2.76785732.01559028-.0155804.03800132-.02434437.0672331-.02823947zm-.6083134 3.49887c.2716607-.0233706.63452457.13944455 1.62392297.6138676 2.67529273 1.28285085 5.2772137 3.4423911 6.16624964 5.11718626.35321738.6652829.3838133.83209052.1898117 1.06579646-.22050507.26554837-.9080366.330207-1.6629961.15629084-.19137073-.04381986-1.29019343-.54180826-2.43861273-1.1049422-3.50489072-1.71851766-5.20832413-3.41064602-4.85491188-4.82700138.09909574-.39700796.3257395-.7262412.61386743-.88730354.13407644-.07498066.23921342-.12347464.36266898-.13389403zm1.2556025 2.27678273c-.02143663.0004869-.03507813.00973775-.04482206.01655417-.18289352.18277752.5901897 1.35491017 1.23884294 1.88055378.3334372.27031986.90063122.59409997 1.26671058.71991166 1.29438333.44472293 1.50241618-.0964037.37952597-.9933476-.87685603-.70043618-2.5184155-1.63097532-2.8404523-1.62386677zm-2.71202734.81475732c.15970298-.02531814.50268922.1716765 1.08255035.59711867.9248936.67842886 1.64341082 1.68735687 1.48994396 2.08699403-.1325174.34520314-.43126623.3177427-1.0993099-.08958728-.6212728-.37850624-1.3618113-1.39941168-1.54012518-2.13169028-.06918188-.2849265-.05748917-.4435544.0672331-.46312728zm-1.34485687 2.72316106c.23560816-.0223968.94662255.21549636 2.08149778.69761224 3.7703153 1.60146993 4.75162625 1.88074853 4.16289815 1.17184052-.12296837-.14811114-.17334447-.3232932-.11156797-.38503053.19263745-.19251527 1.86264918.69050367 2.31018777 1.2220873.38166964.45319476.40183957.54502172.18416023.87610513-.51019204.77629322-2.6288142 1.0405757-4.46427782.5524224-.52188476-.1387629-.97390556-.22581835-1.01005553-.1896913-.03605252.03602966.01948787.23234264.12842498.4352773.16048248.2996305.11429627.57998023-.2567525 1.50672165-.251101.62740308-.4143118 1.25519565-.36266897 1.3894792.29563077.77015843-.72056343-.53158364-1.27236205-1.62951466-.20549943-.40869326-.39219308-1.0387255-.41294764-1.3950297l-.0389757-.64736544.74219495.03310834c.40671154.01850172.73664092-.038951.73664092-.1283435 0-.08958728-.06138674-.16184137-.13953304-.16184137-.69016238 0-2.7536339-2.9162606-2.34935836-3.32027973.0136415-.01363285.0389757-.02434437.07307946-.02823947zm9.24659743 2.29917955c.21563312 0 .54166493.10039618.74784644.25103913.18562182.13564682.2987488.28171303.251101.32923324-.1012394.10098044-1.21652934-.33877623-1.21652934-.4798762 0-.07108555.08866974-.10292798.2175819-.10039617zm-5.12832648 3.83365378c.78691958.01655417 2.7015039.49740413 2.94081476.7365632.24242892.24227516.2317106.2931062-.1394356.53577087-.5324082.3480271-2.55203205.52067735-3.0580342.26223754-.20978676-.10701785-.42434804-.31277645-.47998587-.45757675-.1362201-.3549409.36286386-1.08497983.73664092-1.07699487zm-1.17190216 1.7689592l.8371008.40177945c.4574774.22055997 1.1541682.49029558 1.5513307.59711867.83885472.22572098.9834546.39369712.8371008.97659868-.18727828.7453272-1.0179481.52233277-2.24889846-.60266918-.27175814-.24831256-.59876434-.65651893-.73108688-.909603l-.24554697-.46322463zm8.1194199.50782352c.47754988 0 .81858735.07498065 1.02126104.22318917.47170353.34471625.2751685.46059545-1.08820183.63616703-2.7094939.34900087-4.19144784-.18871754-1.78567214-.64726807.7559339-.14411866 1.3751605-.21403568 1.85261294-.21208813zm3.48218737 1.57926787c1.1077871-.02142305 1.67010917.28813994 1.5848498.88730354-.04774524.3341995-.17451374.3822066-1.01560956.40732998-1.73159334.05161006-3.13773952-.4715991-2.55583217-.95429925.12793777-.10604408.79568912-.2434437 1.47873844-.30683643.18026265-.01655417.3496121-.03018702.5078535-.03310834zm-5.13397796.31803483c.38771088-.00973775.8194643.04381986.98774194.15074033.13193278.08374463.18299096.23964596.11721944.34598216-.2297618.3713977-1.8359508.0886135-1.8359508-.32368272 0-.10877064.343376-.16797614.73098943-.17303977zm28.99003567 9.5591571c-.43457917 0-1.859726 1.33056582-1.99224342 1.85825435-.1143937.4556292.28861513 1.03074056.89283608 1.27798197.5587168.22844755 1.96447322.18735426 2.60045937-.07790198.65430473-.2732412.90287232-.78612836.63062698-1.29463353-.2865689-.53499184-1.7721281-1.76340868-2.131679-1.76340868z"/>
  <path d="M149.16773595 209.87439818c-3.64530072-.32796733-7.897843-1.32676808-14.09390906-3.31034723-2.1532131-.68923776-5.283937-1.67586632-6.9570668-2.19235645-6.49695854-2.00558645-9.9696943-4.0604459-14.45940378-8.55558486-2.77487567-2.7783741-5.0063325-5.68927892-7.23856886-9.44308317-2.22249242-3.7371527-5.48300544-10.16075514-6.20542023-12.22496284-.81391026-2.3261531-1.36980132-3.64922083-2.3703078-5.64156395-3.3041658-6.58018543-10.4953792-16.82507472-14.47070673-20.61559027-10.74609044-10.24664207-19.84838032-20.87889894-29.84740384-34.86464127-1.69485875-2.37075198-3.5043061-6.2958432-4.27407636-9.2716988-.5596912-2.16343535-.21777678-2.55148458 1.21477544-1.37896242 2.4238994 1.9837739 9.37511985 10.4061464 22.92648702 27.77867726 8.2344957 10.55630245 9.53112012 12.16234913 11.67527137 14.46113916 2.93253242 3.14392912 3.78064387 3.31755316 5.22255026 1.06939942.98111605-1.52960536 1.59966057-1.93430615 2.74077192-1.79349832l.84762425.1045834-.12413764-.82712426c-.0682075-.45494755-.31745715-1.495718-.55384484-2.31281238-1.81198076-6.2646824-7.21898357-16.05598742-16.76043226-30.35109798-5.47277432-8.1992807-8.62337584-13.50109464-9.0564934-15.24025633-.2272284-.91262168-.02630862-1.53992737.49265296-1.53992737.77990396 0 2.45654156 1.46777066 4.36976173 3.82547407 3.0880455 3.8054143 5.01110703 6.7916893 14.72560787 22.8663732 10.28393596 17.01671358 14.83142693 23.7611748 20.23199874 30.00677123 2.35734838 2.7260824 4.27125062 4.46183586 7.94753703 7.20788063 1.72262894 1.28664856 3.95408578 2.9702077 4.95897702 3.74133992 2.14161782 1.64334226 4.52595688 3.24452006 5.3338259 3.58183563.3140468.13116746.77980652.23838006 1.03519486.23838006.51175108 0 .50999717.0574527.07307946-2.34747877-.40583458-2.23588418-.11497834-5.81226667.96874127-11.91131.3520481-1.9815342.46829315-3.32631713.5426393-6.2802628.16652374-6.62147348-.56505034-11.35898497-3.10763078-20.12402878-1.62713846-5.6094294-3.35308033-9.5757113-5.68665353-13.06844653-1.24595602-1.86468125-1.33910797-2.09858194-2.45868524-6.17207644-.2101765-.76451054-.6696027-1.93829862-1.02096872-2.60825564l-.63890933-1.2181922-3.21900388-.20254515c-3.56023623-.2239682-5.51954517-.48756902-6.43157678-.86529624-.6544996-.27109887-1.2243245-.72078805-1.2243245-.96627666 0-.0847184.3567252-.5355761.79276595-1.00142994 1.20025698-1.28226658 1.98347387-1.401554 6.12366867-.93258407.6572279.07498065.9134932.04381986.9134932-.1076021 0-.11607396-.7648983-1.16366083-1.6997307-2.3279059-3.14943226-3.92236466-4.03008843-5.51049388-4.1716677-7.52299414-.08379777-1.1944321.13037376-2.0776458.47374976-1.95124983.18669365.069138 5.87899866 6.92665448 7.92405416 9.5466928.85181413 1.09121197 1.63006162 2.0455112 1.72964456 2.12068662.4991814.37724033 3.019838-.59448948 3.88928866-1.49932097.8745175-.91018725 2.0046182-3.1829775 2.0046182-4.03171956 0-.8355961-.63247833-2.08348843-1.98883303-3.9238253-2.09494443-2.8427406-7.05099827-6.8505053-12.65375658-10.2328145-1.17774852-.71095293-2.21742558-1.4347597-2.31038265-1.6084811-.17529326-.32718832.0516428-.96802948.43457916-1.22841684.4341894-.29505375 1.8855474.27742842 3.382507 1.33416877.446077.31482137 1.67225283 1.0604407 2.72488932 1.6569751 1.05273393.5965344 2.203102 1.31186933 2.55631938 1.58968726.77707822.61114103 1.45174776.64619692 2.4551774.12766187.40183958-.20760878.84733195-.43089532.99017793-.496333.14284597-.0652429.33002682-.36380223.41596826-.66333534.1399228-.4876664.03800132-.74854065-.97497738-2.50318536-.62214978-1.07738437-1.29409102-2.33014557-1.4932569-2.78402198-.19916587-.4538764-.67993125-1.26863373-1.06822677-1.81063675-.6949369-.96987963-.8095255-1.32676807-.60051825-1.87101077.1622364-.42271562.69162398-.32825947 1.33754893.23847743 1.34076442 1.17651464 4.4575545 5.53279332 5.96708376 8.34008852 1.0759245 2.0010097 3.08707112 3.55525157 6.65627177 5.14406244.92421152.41141982 2.15009504 1.03288286 2.7243047 1.3811047 1.1660558.70705785 1.15524003.71046606 1.86537747-.5843622.16467237-.30021476.53630577-.6804738.82599273-.84504173.29455893-.1672945.6063646-.53898433.70770145-.84328893.09958294-.29924098.3347039-.683103.5224694-.8529293.21134578-.19115198.34142722-.5334338.34142722-.89840457 0-.40129258.14284597-.7322786.4473437-1.03658322.38225428-.38191445.54741386-.43109007 1.1342906-.33731557l.68684946.10974443.6237088-1.35013868.62380624-1.35023605-.0994855-2.0867019c-.054566-1.14759353-.2138792-2.947324-.353802-3.99939023-.4157734-3.1263038-.46332376-4.07875287-.30030786-6.01218262.19858125-2.35439257.67671577-3.32193515 1.48789773-3.01081412.41362973.1586279.98423413 1.59582204 1.5977118 4.0242215 1.25151005 4.9535921 1.7331524 10.49699956 1.5826087 18.21426175-.0535916 2.7735052-.1485949 5.17259404-.20998163 5.33112457-.14060487.36321797-.7968584.6229237-1.91360992.75720723-2.54482155.3060574-3.4614328.8874983-1.4699689.9324867 1.2558948.02823946 2.1430794.4335245 3.14767834 1.43758364.91729332.91671154 1.3459287 1.91599918 1.5362276 3.58183563.08477217.74201635.24096732 1.57712557.3470787 1.85572252.25675248.674339.01559028.91583515-.64300178.6432756-.44354358-.18365392-.6688232-.12308513-2.1954043.58981536-3.3130328 1.54723068-5.0814582 1.6630125-8.16969858.53508922-2.5588528-.934629-3.33768493-.8334538-5.2549001.6826161-1.68891495 1.33553204-2.88274095 1.895063-3.70834393 1.7381879-.35292504-.06719046-1.49364664-.15843315-2.53498017-.20293466-1.55688473-.0662167-1.87716763-.038951-1.80184707.15765412.05066842.13126484.62176.97367737 1.2695363 1.8718872 3.22475282 4.47118408 8.23566498 12.50657848 12.90329857 20.6914473 7.06902452 12.3958603 12.09630647 23.24176337 15.89848442 34.29936505.5179872 1.50633214 1.02428166 2.73874145 1.1251313 2.73883883.10084966 0 .45104642-.27606514.77834494-.61347808 1.3303384-1.37175648 3.82702496-2.66054735 5.87208046-3.03106864 1.02428166-.18569884 1.58065992-.13029106 2.5079895.2493837.23648512.0964037.31677508-.00973773.41099886-.54628762.144405-.8217685.52159244-1.4490742.87120456-1.4490742.14469732 0 .43779466.11432117.6512841.25415522.35955094.23536136.44315383.21072485 1.13214695-.3341995.40924495-.32358534 2.40460643-1.54421197 4.4341691-2.7125469 4.33702212-2.49656368 7.38618935-4.45657748 10.38917036-6.67834193 1.19626197-.88506386 2.60562365-1.8044046 3.1319906-2.0429794 1.93231827-.87610514 3.8085115-2.63776102 5.5161348-5.17941047.28919978-.43040843 1.37175012-2.2301389 2.40567827-3.99939023 2.18663477-3.74172944 3.3125456-5.39685436 4.73457437-6.95927594 1.43206503-1.57361997 2.03307047-2.5102939 2.7491517-4.28451146.84830633-2.10199016 1.48838493-4.61354997 2.43003808-9.5358839 1.1469577-5.9958232 1.77787702-8.97596342 2.27218646-10.7328478.4850527-1.72416556 1.3513853-4.00289583 1.7652099-4.64295797.26142958-.40440865.28198927-.40830375.5096074-.09737747.2857894.39048367.3167751 3.5292518.0535916 5.38740875-.2662041 1.87714556-.27848143 2.0243803-.49109393 5.88091778-.24077245 4.3678666-.34571455 5.1463995-1.22812462 9.11190238-3.34245945 15.02135177-6.28307933 24.73533907-10.2004305 33.69591685-1.0916122 2.49705056-3.40491803 7.020429-4.71986105 9.22914485-.9072571 1.52405485-1.0819657 1.9651748-1.34251833 3.3908784-.53201844 2.91119696-1.6145688 5.56765445-3.1480681 7.724955-.92577055 1.30242373-3.4864747 3.7821411-4.88755403 4.73293476-2.6486918 1.79758817-6.62177825 3.54239775-10.61961427 4.66369936-1.2328017.3457874-2.29849505.68358987-2.36826157.75078033-.07015628.06719045.49733006.5390817 1.26037702 1.04856064 3.64208522 2.43219715 6.52424153 6.13468347 7.38687144 9.48982434.55618338 2.16285107.17655996 5.5674597-.74813876 6.70852894-.30732347.37948-.31492373.31998238-.30313358-2.3737707.01071832-2.3900327-.0418989-2.94956367-.38819807-4.14613808-1.2977937-4.4828694-4.57974337-7.3523888-9.0415852-7.9052007-2.20290714-.2728517-5.68373036.28336844-7.9030073 1.26288845-.6286782.2775258-.6525508.2741176-1.17755363-.16739188-1.04932355-.88243467-1.52541185-.3527986-2.43890505 2.7134233-.59262567 1.9890323-.95909478 2.61039796-1.53954054 2.61039796-.5436137 0-.90121585-.2779153-.90121585-.7003388 0-.15570658.19536575-.7634394.43409197-1.35062556.67817736-1.66807613 1.27450572-4.1892763 1.64097483-6.93804764.1848423-1.3863631.37864902-2.56326725.4306816-2.61526682.0516428-.05161005.1790934.13155697.28237902.40781687.7371281 1.97072532 1.9736325 3.44385174 3.4758538 4.14117184 1.8527104.85994048 3.67462995.47607848 5.52168885-1.16336868.74755412-.6635301 1.45155288-1.00785685 4.51153587-2.20706045 5.29027055-2.0732638 7.250359-2.89600607 9.13532178-3.83453017 5.2972862-2.6378584 7.97930223-5.7498477 8.39127548-9.73677362.054566-.52632525.03410375-1.1914134-.04579645-1.47809268l-.14450244-.52116424-.3961881.6605114c-.24320842.4054798-.50522263.6402569-.6785671.60792758-.2979693-.05550516-.76665222-1.26600454-.97049518-2.50678832l-.1178041-.71660083 1.19986725.08569217c2.06171762.1474295 3.46991002-.75749937 5.07843757-3.26350866.91505223-1.4257036 3.96236812-8.37894212 6.46100345-14.74294956 4.01537508-10.22677707 7.0920202-21.45673688 8.41797384-30.72590388.69522922-4.8598176 1.18758988-8.7474185 1.17813827-9.30305436-.0126671-.75886265-.40846544-1.95115244-.67661833-2.03888955-.45767227-.14976655-.67613113 1.2303644-1.54753056 9.77689315-.34123234 3.34735067-.7740576 6.84904463-.96172565 7.78143395-.3480531 1.72932656-1.5612695 5.42538596-1.88808083 5.75199-.4170401.41667822-.3857621-.20819303.14654867-2.9299908.3093697-1.58160494.53162868-2.96796804.49401712-3.08073115-.0935417-.27986286-1.07865278 2.12458173-1.87648556 4.5792731-.36110996 1.11068746-1.0206764 3.5762851-1.46568158 5.47904094-.4451026 1.90275584-1.0821606 4.59417185-1.41569522 5.98092445-.7182249 2.98569073-3.14514492 10.96665112-3.41066695 11.2157427-.34698127.32563027.00974392-1.81618727.97517226-5.91217596.52032573-2.19965976 1.23553-4.93840122 1.589332-6.08609213.81858736-2.65519157.88825644-2.9663126 1.10311004-4.9190231.26971192-2.45157527-.03605253-2.8154749-.85288597-1.01506277-1.18700525 2.6162406-2.93555304 8.4027996-3.7372834 12.36791297-.42610194 2.10724854-1.1827179 4.63555727-1.85358732 6.19418112-.35682262.8286823-.5508242 1.00844112-.7467746.6916722-.18318583-.29631966.45513886-3.06427435 1.2873677-5.5816768 1.26495667-3.82683736 1.75049658-7.4782005 1.01288127-7.6178398-1.13195206-.21432782-5.76441007 11.04348195-6.38802143 15.52381952-.1463538 1.05187148-.83466483 3.24208562-1.8460845 5.87468563-.17899595.46575646-.42766098.36204945-.42766098-.17820077 0-.74104258.9276219-4.34303534 1.9036711-7.39192406.98852146-3.08803445 1.57627517-5.23530513 1.57627517-5.7589038 0-.30664167-.03118057-.31930075-.24048014-.0976696-.3344116.35425924-.9159292 2.1337352-1.51274475 4.62903297-.73371774 3.06816946-1.77427176 5.82015425-2.0837389 5.5108834-.23180803-.23166102.46595462-5.50854633.96201797-7.27565535.48544246-1.72942394.50132507-1.82709355.2971898-1.82709355-.17753437 0-.36627425.38785448-2.57376102 5.29061554-1.78089763 3.95527824-2.50740487 5.22790445-2.240811 3.92548073.06820748-.33478375.43029183-1.66496005.80397145-2.95608798.81517697-2.81674082 1.04581573-4.52113875.61162633-4.52113875-.61981123 0-2.54316508 3.40149255-3.57446237 6.32164824-.82823383 2.34523907-.87714834 2.35614535-.88582044.19913692-.00974393-1.99691986-.10650113-2.69521372-.3801106-2.69521372-.3594535 0-1.3247844 3.03145814-1.8053549 5.66931653-.52383354 2.87575157-.78477592 2.6970639-1.2814239-.87717628-.46215448-3.32583025-.7105272-3.63704866-1.3268306-1.6621361-.1641852.52593573-.34746846 1.81706366-.40729618 2.8691299-.13378412 2.351666-.3798183 2.50493813-1.1166541.6955673-1.68949958-4.14866992-2.08344657-4.09355427-2.4038269.3362444-.27740962 3.83715937-.39384955 4.0073752-1.0189225 1.48958322-.60100545-2.4204145-.9621154-3.13000414-1.5932296-3.13000414-.5205206 0-.71588634.6566163-.7979302 2.68216514-.11624507 2.87234335-.2076431 2.98335367-.7504773.9121348-.6043184-2.3058012-1.1843744-3.1168582-1.5446074-2.159735-.0808746.21520422-.31687252 1.39853528-.5242233 2.6295813-.38595696 2.2911946-.73001504 3.41308047-1.046985 3.41308047-.3180418 0-.6626845-.73763436-1.4059513-3.00847705-.44627188-1.3634794-.80631-2.19946502-.92927837-2.15739795-.14596402.0496625-.1828935 1.07826077-.13534314 3.7691899.054566 3.0834577.0253342 3.68758755-.17402655 3.62195513-.14878976-.04868874-.38488512-.797132-.62419598-1.97802863-.72455845-3.57521396-1.31211728-3.96462648-1.9107842-1.26629667-.37426424 1.68628572-.42444547 7.44324198-.076977 8.84401694.34766332 1.40262514.60802106 1.73886956 1.3467082 1.73886956h.61883684l-.05748917 2.25234097c-.06430993 2.5184736-.1922477 2.8530626-.9122265 2.38156088-.544783-.3566937-.95237148-.36643143-1.08313498-.02531814-.0555404.143437-.21748447.26077686-.36081764.26077686-.20286857 0-.2434033-.16369153-.1826012-.73899765.04287328-.40645356.0146159-2.39645962-.06236114-4.4223006-.23755695-6.24725184-.9335657-10.8482401-2.2643913-14.9679889-3.0522853-9.44912056-7.8278816-19.8745477-14.59552645-31.86337015-7.52523522-13.33068406-11.24078965-19.3709114-14.79547184-24.0526256-.7132555-.9393031-1.5317454-2.04025282-1.8188015-2.4463169-1.9787968-2.7994076-10.35652823-13.12804153-10.6574207-13.1393373-.31492375-.0116853-.27068632.24617024.20189416 1.17826742.71384013 1.40768877 4.23451602 6.23225572 6.07816454 8.3289875.40174213.45699247.94594048 1.15061222 1.20931884 1.54138802.26328092.39067842.80981782 1.10542908 1.2143857 1.5882266.4046653.4827975 1.20542126 1.56631666 1.7796309 2.40795017.57420965.84153613 1.66884247 2.35692438 2.43247406 3.3675078 3.64208523 4.81979546 4.78222218 6.38815706 6.51859006 8.96690732 3.9315773 5.8388507 6.40029878 10.13387896 9.6449292 16.7801837 7.44367853 15.24775438 11.8053528 31.03838818 13.24540785 47.95217378l.25558322 3.00214752-.68265958 1.99399853c-1.09726367 3.20517956-1.3154302 3.30508885-.95081244.4353747.3669563-2.88743687.4857348-6.53568393.25490114-7.8249617-.11127565-.62165778-.3515609-2.16363008-.53406466-3.4267133-.46361607-3.20946416-1.05672894-6.04071422-2.34195298-11.1799078-.60987242-2.43881882-1.231535-5.0867071-1.38149404-5.884326-.28452268-1.51314856-1.35469824-3.86569095-2.04076817-4.4861802-.34571455-.31267908-.36227923-.3109263-.672331.07205932-.4909965.60598002-.57001976 2.09809505-.49801214 9.40773514.03605253 3.69401446.0126671 7.61978733-.0526172 8.72385313-.19682734 3.3334257-.93746327 4.80869442-4.4914634 8.9475292-3.38387113 3.94057424-3.42654953 4.72348913-.2796507 5.13227976.67963894.0886135 1.71473636.1629125 2.30015152.1659312l1.06442664.00973776 1.32049704 1.38139684c1.8669365 1.95280787 2.04145026 2.9209347.6209805 3.44414388-1.1750202.43284287-5.14917848-.0769282-10.07327225-1.29073842-2.84249854-.70102043-3.85576956-1.14652238-4.999122-2.19800434-1.5716955-1.4455686-2.0814978-2.70329606-2.81277956-6.9399952-.28812794-1.66924465-.68831104-3.4742335-.88932826-4.01107553-.7191993-1.9211602-2.56908393-3.39730532-4.60965723-3.6784341-3.21676278-.4430675-7.67041972-2.67943856-11.8830119-5.9668047-1.170538-.9134007-1.6371747-1.17037987-2.32188048-1.27856624-1.60014778-.25279192-4.76507287-1.8113184-6.2561861-3.08082852-1.20395968-1.02489792-.75973402-1.20806494.89975427-.37081342.57615843.29067176 1.6113533.72935728 2.30054128.97494327 1.855731.6612904 4.19963276 1.87549014 7.51685543 3.89412517 3.4261598 2.08485172 6.04415823 3.4548554 7.60201736 3.97806457.6038312.2027399 1.72428542.718451 2.4898658 1.1459381 4.06769998 2.2713296 5.2722443 2.6603526 6.2789869 2.02778853.64095554-.4028506 1.19031817-1.49863932 1.44707066-2.88694997.18065242-.97630655.16710836-1.0508977-.37426426-2.0659605-.67252587-1.2609409-2.79319425-3.54483217-4.72853313-5.092355-.77288833-.61805482-2.8146309-2.07482183-4.53725984-3.23721674-7.05625998-4.76185585-9.92808773-7.0069909-11.772126-9.20324244-1.3987408-1.66583645-5.46312784-7.99147716-12.49785374-19.4508583-13.92748278-22.68758816-18.00453693-29.0143974-20.9265459-32.47363478-3.554195-4.20777803-.95831528.265451 11.74279678 20.2345522 11.6964157 18.38944384 15.7453099 24.95200394 17.85915752 28.94681744 1.03714364 1.9600138 1.2863933 2.76775994.85415268 2.76775994-.3029387 0-2.45332606-2.24591406-3.95418322-4.12977867-2.11297067-2.65236764-2.26770424-2.15866385-.6192266 1.97569157.62205234 1.5600845 1.13097768 2.8785755 1.13097768 2.9299908 0 .05161007-.09782903.09056106-.21748446.08763974-.11965543 0-.70477828-.72731235-1.3002297-1.60848112-1.23621207-1.8290411-3.00278613-4.01097815-3.13803184-3.87572084-.04969403.0496625.4200607.9342395 1.04484134 1.96488267 1.77076395 2.92083733 2.02878315 3.5257462 1.5039752 3.5257462-.07405384 0-1.05955466-.8282928-2.1894605-1.8407264-3.29257054-2.94975843-3.43678066-2.83202907-1.01054272.82468984.90910844 1.37019845 1.65295986 2.58975393 1.65295986 2.7100151 0 .4685804-.52763367.16369154-2.10439602-1.21575775-1.9522933-1.70809827-2.53225188-2.1090987-2.68727776-1.8584491-.14479477.23419283.71929673 1.65200885 2.3589074 3.87046246 2.73862827 3.70540766 4.54076766 7.31071125 8.94200227 17.8895079 4.27670723 10.27965304 6.0150239 13.8229272 8.8458297 18.031679 2.7052066 4.0219818 4.85578885 6.20167918 8.58868747 8.70486452 6.59673636 4.42346914 14.64122546 7.1691244 27.21186633 9.28757134 4.65019196.7836939 5.46458942.88642715 5.33216945.67229408-.05846357-.09445615-.53825456-.34705332-1.06618055-.56118638-1.06130858-.4305058-1.28980368-.79615823-.39453163-.63139554 2.67948263.49311952 5.57820362.80170874 7.5254301.8010271 3.76515102 0 5.13300356-.67453377 5.13300356-2.52655594 0-.66606193-.15863114-.73247336-.779027-.32621454-.83388532.54609287-1.6443852.04479364-1.41355157-.87483923.13924073-.5540778 1.81120125-2.39509634 2.09172892-2.30307462.10328563.0340821.2270335.5606021.2748762 1.17047723l.08672095 1.10864255 2.43598187.9791305c4.87888194 1.96118233 5.5506283 1.79155077 2.14288454-.54093186-.85064487-.58221993-1.95492418-1.18936848-2.45381326-1.34906754-.68616738-.2195862-.9070622-.3734426-.9070622-.63120078 0-.85886932 2.9511433-1.87636655 5.4809592-1.88970726 1.19177978-.00973775 1.62119466.06621668 2.2114818.37227408.65790997.3415028.76752916.49350904 1.0769963 1.4948416 1.16907642 3.78272536.7735704 5.49403708-1.26943888 5.49247905-.48846308 0-1.90600966-.2023504-3.15011432-.44881278-3.2696723-.64765758-4.68809584-.5598231-6.81655936.42203397-3.41641586 1.57595704-7.38813815 2.16353272-11.88827363 1.75863718zm-9.06828357-21.79074162c.15015392-.18092735.10728064-.34919562-.18328328-.71825625-.3691974-.46906728-.41499387-.47958405-1.69739217-.38795184-1.4878003.10623882-1.9269591.2347771-1.9269591.5641077 0 .59234718 3.36769622 1.07183386 3.80763455.5421004zm-5.62516935-.30050688c.06430993-.10399915.04969404-.25357095-.03312935-.3324467-.23677744-.22620787-1.8470589-.28697142-1.9215025-.07205933-.15103088.43566682 1.69885376.8187498 1.95482673.40489554zm-4.48123225-.54132138c.27273253-.27255955.26776313-.92216468-.00974393-1.1278259-.11965543-.0886135-.66570513-.29758557-1.21350873-.46351678-1.2702184-.38464103-2.04895308-1.02100282-2.04895308-1.6742109 0-.26798282.154831-.82839018.34415552-1.24526315s.34590943-.98234396.3480531-1.25646155c0-.43556944.0535916-.48357653.39531113-.38006428.6785671.20517434 2.67626712.3190086 3.48160273.19835792.80786903-.12113758 1.5208322-.62448175 1.5208322-1.0737814 0-.3864912-.83563922-1.10533172-1.8269864-1.5718672-1.10885895-.5217485-1.4781538-.54443745-1.04299-.06426913.17373422.191931.25987054.40479816.19137073.47325453-.15346686.1534669-1.8951939-.45455805-4.1732267-1.4568644-1.86859298-.822158-2.1960864-.8951911-2.1960864-.4897113 0 .50558384.8417779 1.90879324 1.56126952 2.60251036l.72134295.6955673-.57586612.08763972c-.53952125.08179708-.57450195.12902516-.5553064.74581408.04482205 1.4434263 2.31681363 4.75416303 4.06370495 5.9215242.5115562.3418923.73352286.35912812 1.0139531.07887574zm6.21321537-1.1836232c.70740913-.58669928-.72835858-.92829946-2.49298385-.59293144-1.65052388.31355547-1.94537513.40343488-1.94537513.59302882 0 .2672038.5770354.33264145 2.39573946.2718779 1.06452408-.03602966 1.8902245-.14557932 2.04261952-.27197528zm-5.4320447-1.5731331c1.07816557-.50344153-.08866974-1.1930688-2.13021743-1.25870122-1.09044293-.0350559-1.1280545-.02142304-1.3014964.46020594-.1558054.433135-.123553.54093187.25295236.8460155.36383825.2947616.60870315.3362444 1.56243877.26428246.62205233-.0467412 1.34933908-.1871595 1.6163227-.31180267zm3.6035967-4.65347472c0-.14947442-1.11080773-.72779924-1.39786384-.72779924-.33538597 0-.15687722.3427687.31044154.5961449.52626953.285316 1.0874223.35328547 1.0874223.13165434zm.4088552-2.2539964c-.07502824-1.6353573-4.4081528-5.3244055-7.34507-6.25338662l-.93327336-.2952485-.41518876.482408c-1.18281536 1.37419092.34084258 3.40012927 3.9415161 5.2406609 2.496784 1.27632656 3.04721846 1.47341856 3.99520516 1.43076723.76743173-.0350559.78243738-.0467412.75681085-.605201zm-4.77150386-1.77373068c-.72202503-.38142756-1.90123514-1.62445102-1.90123514-2.0041258 0-.14324226.04774524-.26038736.10611137-.26038736.2694196 0 2.154967 1.11331666 2.64849693 1.56388224 1.0266202.93706343.4656623 1.3975615-.85337317.70063092zm-2.0752617.95848648c0-.51337405-.81790526-1.4857855-1.84179716-2.18982464-.40914752-.28132352-.78847862-.5114265-.8430446-.5114265-.21202787 0-.0828234.74075045.23862878 1.37097747.72007624 1.41051272 2.446213 2.34923157 2.446213 1.33027368zm8.4780939-1.42755377c.10084964-.30235705-1.44073713-2.0580729-2.96078982-3.37198716-.78555543-.67901313-1.48896956-1.3418616-1.5630234-1.47302905-.18610902-.329428 1.43459844.33965262 2.60835194 1.0768001 1.10047918.69108793 2.58145872 1.45111912 2.8274929 1.45111912.7889658 0-1.09862784-2.13480637-3.46640222-3.9204171-2.01397238-1.5186991-4.3577767-2.73153553-4.3577767-2.25497017 0 .04674118.3470787.71163458.7713293 1.47809267.4242506.76636072.72524053 1.39347166.66901807 1.39347166-.05651478 0-.87334823-.5130819-1.81587833-1.14019285-.9425301-.62701355-1.79336986-1.09091984-1.89061426-1.03083794-.10776783.06621668.0389757.51337404.3748489 1.14369843.9933934 1.8627337 4.0297961 4.54528835 6.93728662 6.1290356 1.46168656.7962556 1.74728108.8757156 1.866157.51921668zm.50171482-6.24929676c-2.20027627-2.05398306-6.5913772-5.11504396-8.24034205-5.74439457-.65800742-.2511365-.79227874-.25795293-.925868-.0467412-.50483287.79703464.34824798 1.71306453 2.89345928 3.1069257.95139708.52106686 2.35627655 1.3543259 3.12185693 1.85173004 3.83189693 2.48945514 5.35750366 2.89269525 3.15089384.83277217zm1.87940874-.91116103c.30313358-.49029557-3.00239638-4.13367376-5.75573798-6.3438503-1.8416023-1.4783848-3.99413332-2.7238427-4.70768113-2.7238427-1.23903782 0-1.59293727.61747057-.9062827 1.58121543.48222697.67677345 2.57912017 2.27804863 6.20668694 4.73975117 3.79048523 2.57222598 4.90441102 3.1647679 5.16301486 2.7467264zm-.62828845-3.96774254c.07990022-.53917908-1.5938142-2.8932795-3.2592463-4.58365508-2.21187154-2.24503766-4.50802806-3.80911465-6.3279014-4.3104139-.6209805-.17099483-.67125916-.15570657-.82647993.25230505-.27848144.73198647-.1865962 1.4032094.26561947 1.94024617.2369723.28151827 1.54850496 1.2821692 2.91450615 2.223712 1.36590375.9415428 3.1153285 2.23958452 3.8874373 2.88451553 1.46353792 1.2224768 2.82193885 2.09254454 3.12010303 1.9984779.0954905-.03018702.19741197-.21247765.22596168-.40518767zm.3830338-3.88964582c0-.53635513-1.17804083-2.27571157-2.87104824-4.23932833-1.26310532-1.4650441-3.9357672-3.63967784-5.397064-4.39143194-1.44424493-.74299013-1.67235028-.68923776-2.02186496.47656536-.33109865 1.10426055-.0526172 1.4723474 2.24655993 2.96602048 1.12220813.72906515 2.29401285 1.45452733 2.60406462 1.6119867.30995434.157362 1.13214694.801514 1.8269864 1.43125412 2.03297304 1.84267394 3.61236625 2.780419 3.61236625 2.14493362zm-.17402654-3.71417162c0-.3172558-.9993372-1.79583537-2.23379538-3.30508884-2.3767388-2.90593858-6.7191201-5.86689543-6.95297435-4.74101708-.1907861.9190486.61464695 1.96614858 2.7250842 3.5425925.73079457.54589812 1.92384105 1.5286316 2.65122524 2.18378724 2.48129114 2.23500778 3.8104603 3.0441172 3.8104603 2.31972618zm.05066842-2.82180444c.68490066-.68446626-6.06871293-9.55253544-8.45539053-11.10268745-.69600874-.45202624-.86233758-.18063522-.8695481 1.41859504-.00974392 2.13918835.68256213 3.12552478 3.03552575 4.32570215.50259178.2562975 1.4573018 1.1070845 2.52299514 2.24815374 1.59790667 1.71111697 3.25437435 3.2192993 3.53577897 3.2192993.0672331 0 .1706162-.04868874.23063878-.10906278zm-.3964804-4.29532038c-1.55571548-2.5652148-8.60992923-12.28893984-8.91530392-12.28893984-.28773818 0-.07113067 3.28658713.25860384 3.92148826.2937794.56595788.9022877 1.14885944 3.32141257 3.18190634.9072571.762563 2.00666443 1.91999165 2.7250842 2.8691299 1.34505175 1.77723627 2.92941436 3.5011097 3.0795683 3.35095363.0535916-.05355762-.15707213-.5196062-.469365-1.0345383zm3.9992976.2745071c0-.3453979-.93395546-3.46858562-1.54645874-5.1731783-1.52346307-4.24000998-3.28165734-7.9589531-4.54866024-9.62118657-.4919709-.6454179-.89030265-1.48802518-1.31250703-2.77603703-1.62168186-4.94745732-6.6516921-13.20419072-14.13726953-23.20641534-1.19889284-1.60195682-2.24441626-2.91265762-2.32334208-2.91265762-.2674708 0-.13699962.9519622.26386556 1.9258343.21943325.53323905.99047023 1.82436698 1.7133722 2.8691299.722902 1.0448603 1.51274476 2.2932395 1.75517367 2.77408948.2424289.48084996.9807263 1.57634655 1.6406825 2.43443685 4.32464735 5.62286748 6.85524276 10.1492646 13.26772145 23.7308904 1.7384141 3.68203706 3.52184515 7.45765386 3.96324507 8.39014055.44130247.9323893.9062827 1.69534182 1.0333435 1.69534182.12696338 0 .23083365-.05842648.23083365-.13038844zm-55.15754785-.5438532c0-.17527944-1.4141362-1.91619392-8.36564895-10.29825213-13.671997-16.48561684-21.84111093-26.52650032-25.9120264-31.84925042-1.7239931-2.25409377-2.4504029-2.9244403-2.1649058-1.997991.4165529 1.35198884 3.46211487 6.89909664 5.17499988 9.42565258 3.32355623 4.90227418 10.3718262 13.58308647 16.80759286 20.70050343 5.37319138 5.94246035 11.5386615 12.09642457 13.7593026 13.73372942.66083315.4871795.7006858.50353892.7006858.28560813zm49.53695814-4.99254308c.0789258-.23682202-3.424211-5.49987973-5.20374448-7.81814526-1.77846166-2.3169996-2.51373843-3.14568192-2.66233332-3.00068686-.2629886.25668702.6549868 2.34942632 1.7307164 3.94563787 1.16050177 1.7218285 5.0492058 6.78720994 5.3883919 7.01887095.25246517.17235813.66794624.09153482.7469695-.1456767zm-1.92705654-6.11540275c-1.93075923-3.84193086-4.1042397-7.21391803-5.91154337-9.17130263-.86789163-.94008213-1.17190217-1.17096413-1.33491807-1.01399164-.51214084.4932169.4056397 2.61000844 2.10897566 4.86439434 1.36756022 1.80985773 5.76333823 7.03756742 5.847136 6.95372542.0409245-.04089854-.27877376-.77531945-.70965023-1.6328255zm-4.46710356-9.91039766c-.29377942-.80589596-.99719354-2.0683949-3.24170724-5.81879095-2.0996215-3.5080235-2.40139093-3.936387-2.61975235-3.7180667-.17548813.17527944.98228533 3.37286356 1.9577499 5.407079.76100075 1.58696068 1.13984465 2.14230442 2.2236617 3.26039257 1.37798624 1.421419 1.99828466 1.74247252 1.680048.8693861zm-15.71315493-27.7805274c.05943796-.1548302-.15863114-.5792986-.53075173-1.033175-.74053848-.90327346-.7254354-.89996263-4.90752907-1.0617066l-2.80352282-.10847852-.38888014.62886373c-.2138792.3458848-.3485403.73383665-.299236.86227754.13339435.3475402.72407124.4262212 4.72034822.62827946 2.00491053.10136995 3.68184045.22085212 3.72656508.265451.16048248.1603807.38400818.07595443.48300648-.1815116zm9.19056986.06037402c.29192807-.13292025.49947372-.4166782.6041235-.82595573.60792364-2.3780553.4646879-2.18232658 3.80422418-5.20063877.88065617-.79596347 1.60112217-1.50117114 1.60112217-1.56729044 0-.0662167-.72358406-.50655763-1.60804036-.97883838-1.29496797-.69147744-1.77787702-.86032998-2.47953724-.8671464-1.24556625-.0116853-1.77203066.43235598-2.79660463 2.3603326-1.1923644 2.24377174-2.2080714 3.29973307-4.014693 4.17359852-.93873.45416854-1.41452597.77648798-1.33803614.90668166.0652843.11120508.46156984.65203957.88094848 1.20193016l.76246233.9998719h2.0696102c1.204252 0 2.25562178-.0847184 2.5144205-.20254514zm4.33663237-1.93936977c1.25501786-.7954766 2.5724943-1.62162708 2.9277579-1.83585752.8566861-.51678225 1.59712715-1.47819005 2.251237-2.92336915.59126153-1.3059293.79948926-1.52493124 1.16323007-1.22325582.17948315.14898753.219823.4690673.15239503 1.2116679-.09159292 1.00795424-.09061853 1.00960966.4800833 1.2479897 1.08508377.4530974.95305356 1.02908516-.27370692 1.1935557-.7095528.09542994-2.59217703 1.19413997-2.59217703 1.51334333 0 .25444733 1.19070794.80949894 2.41834537 1.1274364 1.40702312.3643865 3.89279646.3778246 5.0944176.02726568 1.03363583-.3012859 2.40519107-1.1205226 2.40519107-1.4365125 0-.11548968-.38917247-.25912145-.88737948-.3276752-.6174727-.0847184-.9975833-.2485073-1.2493664-.53791316-.19906843-.22883707-.46770852-.41599657-.59701043-.41599657-.60305168 0-.33733477-1.5182122.349807-1.99925692.55335764-.3872702 1.72409053-.3328362 2.2827099.10623882.62253952.4894192.7217327.3320572.30332845-.4811421-.8913745-1.73224788-3.06241897-2.67466707-4.29804642-1.86555764-.5922359.3878545-1.01356334.05647894-.85356805-.67209932.10192148-.46351677-.01851346-.63733556-1.34076442-1.94024617-1.7820669-1.75571584-5.0087685-3.94515097-7.66126044-5.19830168-2.6551228-1.25441662-4.95810008-2.70728853-5.8969275-3.72011164-.42610194-.45971905-1.31611228-1.712675-1.97772496-2.78421674-1.49247737-2.4172984-2.33639893-3.4708253-1.42992136-1.78502647 1.72691627 3.21160647 2.2023225 4.22024234 2.2023225 4.67275546 0 .2728517.12316324.7907051.27360948 1.1507096.33226793.79469758.20559687 1.4745871-.27458388 1.4745871-.2287874 0-.42941488-.20819304-.60470814-.62750044l-.26240396-.62750045-.6160111.54054236c-.33879636.29729344-.67262332.54054237-.74170776.54054237-.23102852 0-6.19372752-3.61299642-7.65590128-4.63906287-1.89139376-1.3270602-2.81930798-1.90304797-3.2987092-2.04784827-1.14276783-.34491102.39063404.93599228 3.4413603 2.87477778 6.01687523 3.82381866 8.36779262 5.83962975 10.6306249 9.1157975l1.3210817 1.91268833 1.49783653-.05940026c1.07582703-.0428461 1.7567327.02434437 2.41707865.23828268 1.27762378.4137569 2.7064733 1.24750282 2.83577523 1.65463804.0799002.25103912.21154066.31482136.50083787.24227514.2488599-.06232158.4793038.00973775.62955515.18686738.20208906.2433463.188545.37500065-.0915929.89548325-.38459283.71377688-1.88194217 2.12312106-3.1490425 2.96397555-.87013273.57744842-1.59215776 1.520744-2.20612263 2.8824706-.16321078.3618547-.2967026.69439878-.2967026.73899766 0 .25347356.63072444-.06816423 2.67704665-1.36532956zm12.64050483-3.73812647c-.21943325-.07498066-.87568676.290477-.87568676.487569 0 .08763974.23307474.02629193.51798718-.1365232.28500988-.16291252.44588212-.3208588.35769958-.3510458zm-2.69244205-6.19963426c.29134344-.22026785.29787187-.25610276.04774525-.26087426-.4465642-.00973774-.84957304.1871595-.74238984.3604914.1354406.21900195.305667.1945602.6949369-.09961714zm.14528196-1.8536776c1.64847767-1.54138803 1.9521959-1.98971392 2.12203254-3.13292547.13748682-.92498862.5088279-1.56125304.837588-1.4352466.61815477.23711416.38634674 2.21319524-.43107134 3.6749285-.28004048.5006176-.5091202.98331774-.5091202 1.07261288 0 .2339007 1.18086656.92966274 1.37477072.80998583.45065664-.2784022.53757248-1.94930228.36529984-7.02150014-.2766301-8.1417306-.52130012-10.15354922-1.75887635-14.4643526-.552773-1.92554218-.7562262-2.32722426-.91115465-1.79992524-.3347039 1.13873218-.42580964 2.41184527-.27916353 3.90259702.08866974.89976786.24272124 2.77048652.34269393 4.15723912.0999727 1.3867526.24739832 3.21462518.32759085 4.06190658.13963048 1.47653463.03215496 2.60903466-.27409668 2.898051-.07892582.07498065-.2969949.16330202-.48388344.19689725-.2349261.04187232-.39609066.28697142-.5219822.79255526-.22937205.92089878-.50590472 1.22763783-.84976792.9424192-.13612266-.1128605-.295241-.44404127-.35370457-.73597894-.07697703-.38658857-.18942196-.51425044-.41246046-.4698463-.25714224.05161005-.30625164.25522635-.30625164 1.27379472 0 1.0621935-.04482206 1.2325067-.36257154 1.37195123-.1994582.08763974-.4343843.32007977-.5219822.5165875-.0935417.21033536-.39862407.40538244-.74102568.47413094-.7001012.14071045-.80426378.2355561-1.13955232 1.03814125l-.2602603.62311844 1.51274474 1.31927002c.83193653.72555956 1.55990535 1.32550218 1.6175894 1.33309762.05748917.00973775.78516568-.62214468 1.616615-1.39950906zm23.24725712 113.0929324c-.487781-.24354106-.62010355-.42008642-.66482817-.8871088-.04774525-.49935168.05846356-.6929381.7425847-1.34760685.43915882-.4205733.90267746-.76460793 1.03022547-.76460793.33626293 0 1.61603037.96413437 1.94420585 1.4645572.1543438.23545874.25509602.6087066.22372058.82946133-.07307946.51386093-1.0402617 1.00931752-1.97090422 1.00931752-.38274147 0-.97000798-.13681536-1.3050042-.30401248zm2.18059354-.75623346c.12959423-.408109-.13407645-.78038308-.42541988-.6005269-.10406514.06426915-.18912963.3079076-.18912963.5413214 0 .52583835.452508.56946346.6145495.05940025zm-8.3471355-25.2184287c-.37718743-.08763974-.71832233-.19271003-.758175-.2326348-.0399501-.03992476.17334447-.50198088.47394464-1.02694284 1.07446288-1.87675605 2.88576157-3.14558454 6.59546964-4.62007425 2.3884315-.949333 3.4130055-1.47439234 4.50793062-2.3101832.94535585-.7214697 1.66192428-.97601442 5.87432157-2.08640975 1.65091364-.43517993 2.45225424-.55232503 3.82799936-.56001786l1.73997313-.00973774 1.18700524.72254085c.65284315.39739748 1.22149876.7570125 1.26359252.79907956.11770664.11763198-.61932404 1.69534182-.791889 1.69534182-.08379777 0-.2024788-.22932395-.26406043-.5096737-.06138674-.28034975-.22761815-.6055905-.36900254-.7227356-.21056627-.1746952-.35896628-.1142238-.82355675.33575752-.92050883.89158815-1.16761483.7686004-1.43021368-.71182934-.06333553-.35864123-.18620645-.65213694-.2724402-.65213694-.08672096 0-.32807805.35211694-.5373776.78252537-.36695632.75496756-.69522924.97211932-.92002165.6086092-.1813345-.29320356-.60392862-.19543658-1.23553.28599765-.51340754.39136007-.66648464.43118746-1.0266202.2672038-.35662775-.16232826-.49947373-.12912254-.9075494.21121173-1.1270801.93998476-1.54129446 1.04349702-4.88355903 1.22091877-1.20707774.06426914-1.4942313.24061974-2.30833643 1.4200557-.62409857.90405247-2.24753433 1.687649-3.3256999 1.60526767-.67077197-.05161008-.72982017-.01850173-.9099854.50470743-.1059165.30771282-.3156058.6821292-.4659546.83209052-.2480804.24743616-.3165802.23838005-.7445335-.09805912-.25928592-.20371367-.586487-.3263119-.72718932-.2723648-.3334372.127954-.32817547.78437556.00974393 1.15703915.75525183.83403807-1.11509505 1.75279454-2.77779884 1.3643558zm-77.45915678-83.6930176c-.1604825-.4179441.48680662-1.5285342 1.4074129-2.4147666.58268685-.56079686 1.51186778-1.15255977 2.78793252-1.7753861 2.50964597-1.22491124 3.74468878-1.53496112 5.68743305-1.42774852l1.5113806.08374463.54293163-.67511803c.29855394-.3713977.94954574-.8800976 1.44658348-1.13055247.58044576-.2926193 1.78771838-1.31518017 3.37597856-2.8595869 2.7977739-2.72053187 4.7485082-4.04252846 4.7485082-3.2180334 0 .1344783-.38147477.51843768-.8477217.85312406-.75681085.5433663-3.39770752 3.80794612-4.00641067 4.95252095-.11663482.21929407-.40729617 1.34234848-.6460224 2.4955899-.47180097 2.28009356-.98306484 3.8248898-1.37282194 4.14818302-.1942939.16106234-.74862594.08374463-2.55992463-.35698582-1.97148885-.47968144-2.64498912-.56449722-4.57399444-.57569562-2.63086043-.0155804-3.37247075.16632072-5.5702136 1.36357676-1.56584915.85302668-1.78635423.91437448-1.93105155.53752366zm4.9542025-2.13061912c1.52599648-.4076221 1.87307518-.43858814 3.85206686-.34393724 1.19626198.0574527 2.60562365.22289704 3.1319906.36818423 1.95823712.5407371 2.4359819.31375022 2.4359819-1.15733128 0-.4866926.18864242-1.13941382.5331877-1.84530313.62780125-1.28586954.61162633-1.66291512-.07502824-1.74159612-.8926412-.10234373-1.4687022.3039151-2.54628314 1.79554324-.99797305 1.3815916-1.8225042 2.1493156-2.0567482 1.91522016-.06236115-.06232158.06236112-.41619133.27604545-.78739426.21378178-.37120293.38868528-.75720723.38868528-.85779816 0-.30771282-2.2797867-.20829042-3.7566738.16388628-1.80847295.4556292-3.98721514 1.54002476-5.09626897 2.53648845-1.23426328 1.10893468-1.1777485 1.3820785.1723701.83384332.58492796-.23750366 1.81811942-.63344047 2.7404796-.87980548zm-9.7295065-13.37469868c-.84840376-.63977-1.89305022-1.06530956-3.15985824-1.2873302-1.48828748-.26087426-1.70236157-.3354654-1.70236157-.5931262 0-.39632632.61610853-.7932369 1.49218506-.96111567.68168516-.1305832 1.1570914-.0925086 2.32626525.18647786 1.74221423.4158018 2.23554928.3527012 3.81309115-.48737426 1.04727732-.5576808 1.24722272-.60578527 2.1376228-.51473733 1.12366973.11490542 1.88866548.4123936 1.88866548.7344209 0 .28122616-.27234277.3584465-2.08792878.5918603-2.52582088.3246565-3.1994186.64736544-3.3961485 1.6270802-.27175813 1.35374165-.3756284 1.40953895-1.31153263.7038444zm.1522976-1.13921907c-.08477217-.57131365-.87987666-1.05557182-1.89227072-1.15275454-1.11801824-.10740736-1.13887025.25006535-.03410375.5761825.39687018.1171451.9409711.37636395 1.20902654.57618252.62341648.46458793.78604263.4647827.71695818.0004869zm13.87038335.52973345c-.33830916-.29680654-.6150367-.62097615-.6150367-.72030117 0-.09932503.35234042-.5927367.78292458-1.09647036.4306816-.50383105.78302202-1.04836588.78302202-1.21020725 0-.3803564-1.7085977-3.57706413-2.92658863-5.47553536-1.36317546-2.12487385-2.42058647-3.41619653-2.99031392-3.65204477-.27282997-.11295787-.5386443-.31628204-.59067688-.4517341-.0982188-.2560054.15970297-1.11292716.33499623-1.11292716.76226745 0 5.00243494 4.32433887 7.62627973 7.77783098.9898856 1.30281323 1.330241 2.06693427 1.330241 2.98598287 0 .50626548.08087458.71338737.30449772.7797988.1674981.04966252 1.7922006.33127818 3.6105149.62565028 1.8183143.29446948 3.55555914.6156204 3.8606415.71377688.60870316.1958261 1.44629117.7923605 1.44629117 1.03005892 0 .32475388-1.63006163.36321798-4.44703107.10497292-3.64530072-.33429687-6.3906523-.33556277-7.18858252 0-.73469213.30576527-.6021747.3354654-1.32117913-.29544326zm1.41793633-.69303548c.4130451-.19981858.7509645-.39350237.7509645-.43031106 0-.1711896-1.05000563-.58426483-1.27041327-.49983856-.47793965.18336178-.76996516 1.2933676-.34025796 1.2933676.05943796 0 .44675908-.1633994.85970672-.36321797zm6.62655278.15541445c-.09061853-.27080676-.78614007-.45592133-2.39564202-.63733557-1.417644-.1598938-1.73997313-.11354213-1.73997313.25016273 0 .35552516.95013036.56177065 2.66798478.5792986 1.12045422.0116853 1.51820134-.04089854 1.46763036-.19212576zm-4.8316239-1.0962756c0-.14499506-.15463612-.26087426-.34795564-.26087426-.38508002 0-.47150865.2689566-.1304712.40645358.3785516.15268788.47842685.1223061.47842685-.14557932zm-.06918188-1.54820446c.21777678-.56702903-1.0147326-2.43258668-3.68739448-5.5812873-1.8874962-2.22351724-2.79767646-3.15843837-2.93828134-3.01792268-.04774524.04771497.26825033.589718.70214742 1.20455936.43399453.61484137 1.4312855 2.24815374 2.2164512 3.62964796.78516566 1.38139685 1.7468913 2.84858325 2.1371356 3.2603926.7177377.75710985 1.3900687.97319046 1.5699416.50461006zm-22.8279759-3.94778018c-.44325127-.48990607-1.25745385-.8870114-2.9935294-1.46036997-1.09550978-.3617573-1.43128552-.5451191-1.39084822-.75973905.0409245-.2148147.37406938-.3202745 1.3878276-.43868552 1.17238935-.13691272 1.50602143-.1063362 2.74700803.2520129l1.41247973.40791425 1.73997314-.90414985c1.5744238-.81806816 1.8473512-.90405247 2.86939177-.90405247 1.0526365 0 1.11753105.02239682.95383307.32786996-.2788712.52077473-2.04037842 1.59913287-3.1711612 1.94131732-1.22315522.37013178-1.5373969.59663178-1.5373969 1.10815565 0 .54706664-.32885754.79596346-1.05185696.79596346-.4240557 0-.74414373-.1214297-.96572064-.36623668zm-.28783562-1.4161606c-.0399501-.11948216-.22001788-.24587812-.40047542-.28083664-.2838406-.05453138-.29660516-.02531814-.0945161.21734653.27604547.33234932.59856947.37373474.49528384.06329535zm5.35526255-1.17778055c.42035302-.34870873.08379777-.56303655-.73868715-.4703332-.84713706.09542993-1.20434944.32786996-1.00333222.65301334.15619516.2524998 1.3709706.12513006 1.74201936-.18268014zm25.39891117-6.55282236c-2.80664088-2.96874705-3.44740155-3.7024863-3.23323002-3.7024863.28510732 0 2.81969774 2.47017437 3.94502392 3.84485217.53942383.658856 1.08128364 1.1978403 1.204252 1.1978403.37962342 0 3.48530543-1.62045854 3.25359484-1.69767887-.11994774-.03992477-.46303143.01265907-.76236488.11695034-.29933345.1042913-.92304225.18969133-1.3860737.18969133-.82930566 0-.86574795-.02434437-2.45722363-1.6084811-1.45545046-1.44917158-3.57767787-3.0865738-4.00046688-3.0865738-.08964413 0-.20384296.1556092-.253537.34588478-.12939935.49438545-.3989164.25006536-.3989164-.36156255 0-.2934957.1101064-.55914146.25480372-.61464662.4723856-.1811221 2.1732856.99451615 4.0779311 2.81839623 1.2727518 1.21887385 2.06649214 1.8471533 2.42380196 1.918531.7224148.1444108 2.07272826-.19981858 3.93089523-1.00191683 1.1573837-.49964382 1.78830302-.67024916 2.4794398-.67024916.79851485 0 .92693982.0467412.92693982.33429687 0 .23282954-.19809405.398566-.6524534.54589812-.35886884.11636608-2.0227419.90356558-3.69743072 1.7494837-1.67478625.84582074-3.2016597 1.57576228-3.39303043 1.62211396-.26815288.0652429-.7872119-.3803564-2.26195533-1.94034355zm-20.4568886-3.02133088c-1.39016613-1.04427604-2.14142294-1.381689-3.86122614-1.73380594-1.45671716-.2982672-2.04271696-.5472614-2.04271696-.86812018 0-.0769282.20150442-.37850624.44773347-.6709308.56699914-.6734626 1.55824888-.94991725 2.86305822-.79859266.89507718.1038044 1.30539396.2814209 2.30268494.99675583.2652297.19027558.3862493.13301763.8980978-.4249553.3252523-.35474614.8137154-.6938145 1.08537608-.7535069.27175814-.05940025.84635755-.222118 1.27703914-.36078354.43058416-.1387629 1.22490913-.29894883 1.76511247-.3562068.84713705-.08958726 1.00567075-.05940024 1.15387588.2231892.366664.69829385-.32992938 1.4805271-1.51254986 1.69855526-1.0434772.19232052-1.6552984.82722165-2.27296597 2.35848242-.3966753.9834151-.65294058 1.3998012-.8616555 1.3998012-.16330823 0-.72221992-.31939812-1.24186357-.7098818zm1.4197877-.3437425c.07015626-.13778912.26464506-.64171755.43204573-1.11993832.41674778-1.19034225 1.40984887-2.1735626 2.1954043-2.1735626.6750593 0 1.36132412-.3921391 1.0370462-.59244455-.29680002-.1832644-3.51862965.77863028-3.90663284 1.16638738-.26259885.2624323-.3108313.47831816-.2257668 1.01019393.1511283.9445615-.1094243.88048712-1.49237994-.36691833-1.05731357-.9536176-1.22169363-1.04164684-1.91166113-1.02285298-2.22297963.06037403-2.39573947.57072937-.37416683 1.1053317 1.45398886.38454365 2.38969822.90853184 3.27912392 1.83624703.52042316.54287942.75145168.58046712.96698736.15755675z"/>
  <text x="3495.2136" y="1345.1818" fill-opacity=".94117647" style="line-height:125%" transform="matrix(.97408 0 0 .97408 -3130.755 -1229.93)" font-size="41.06423187" letter-spacing="0" word-spacing="0" font-family="Sans">
    <tspan x="3495.2136" y="1345.1818" style="-inkscape-font-specification:Noto Sans Bold" font-weight="bold" font-family="Noto Sans">mach-politik.ch</tspan>
  </text>
  <text x="3837.0732" y="1360.9484" fill-opacity=".94117647" style="line-height:125%" transform="matrix(.97408 0 0 .97408 -3130.755 -1229.93)" font-size="41.06423187" letter-spacing="0" word-spacing="0" font-family="Sans">
    <tspan x="3837.0732" y="1360.9484" style="-inkscape-font-specification:Noto Sans Bold" font-weight="bold" font-family="Noto Sans">ma-politique.ch</tspan>
  </text>
  <text x="3495.2136" y="1427.3102" fill-opacity=".94117647" style="line-height:125%" transform="matrix(.97408 0 0 .97408 -3130.755 -1229.93)" font-size="41.06423187" letter-spacing="0" word-spacing="0" font-family="Sans">
    <tspan x="3495.2136" y="1427.3102" style="-inkscape-font-specification:Noto Sans Bold" font-weight="bold" font-family="Noto Sans">make-politics.ch</tspan>
  </text>
  <text x="3842.2063" y="1447.8423" fill-opacity=".94117647" style="line-height:125%" transform="matrix(.97408 0 0 .97408 -3130.755 -1229.93)" font-size="41.06423187" letter-spacing="0" word-spacing="0" font-family="Sans">
    <tspan x="3842.2063" y="1447.8423" style="-inkscape-font-specification:Noto Sans Bold" font-weight="bold" font-family="Noto Sans">mia-politica.ch</tspan>
  </text>
</svg>
