<?xml version="1.0" encoding="UTF-8" standalone="no"?>
<!-- Created with Inkscape (http://www.inkscape.org/) -->

<svg
   xmlns:dc="http://purl.org/dc/elements/1.1/"
   xmlns:cc="http://creativecommons.org/ns#"
   xmlns:rdf="http://www.w3.org/1999/02/22-rdf-syntax-ns#"
   xmlns:svg="http://www.w3.org/2000/svg"
   xmlns="http://www.w3.org/2000/svg"
   xmlns:sodipodi="http://sodipodi.sourceforge.net/DTD/sodipodi-0.dtd"
   xmlns:inkscape="http://www.inkscape.org/namespaces/inkscape"
   width="960"
   height="250"
   id="svg4466"
   version="1.1"
   inkscape:version="0.48.4 r9939"
   sodipodi:docname="logo-B-2farbig-halbkreis-header-web.svg">
  <defs
     id="defs4468" />
  <sodipodi:namedview
     id="base"
     pagecolor="#ffffff"
     bordercolor="#666666"
     borderopacity="1.0"
     inkscape:pageopacity="0.0"
     inkscape:pageshadow="2"
     inkscape:zoom="1.0771127"
     inkscape:cx="495.21893"
     inkscape:cy="-4.794443"
     inkscape:document-units="px"
     inkscape:current-layer="g4110"
     showgrid="false"
     fit-margin-top="0"
     fit-margin-left="0"
     fit-margin-right="0"
     fit-margin-bottom="0"
     inkscape:window-width="1920"
     inkscape:window-height="1030"
     inkscape:window-x="0"
     inkscape:window-y="0"
     inkscape:window-maximized="1" />
  <metadata
     id="metadata4471">
    <rdf:RDF>
      <cc:Work
         rdf:about="">
        <dc:format>image/svg+xml</dc:format>
        <dc:type
           rdf:resource="http://purl.org/dc/dcmitype/StillImage" />
        <dc:title />
      </cc:Work>
    </rdf:RDF>
  </metadata>
  <g
     inkscape:label="Layer 1"
     inkscape:groupmode="layer"
     id="layer1"
     transform="translate(343.39622,-1001.2143)">
    <g
       id="g4110"
       transform="matrix(0.97439275,0,0,0.97377474,-3474.1517,-228.71467)">
      <path
         style="fill:#87ceeb;fill-opacity:1"
         d="m 3213.0324,1263.0528 0,128.3893 0,128.3436 125.2612,0 3.0238,0 0,-0.029 c 4.1985,-0.059 9.2555,-0.1991 10.8756,-0.3438 6.3194,-0.5645 12.6476,-1.5729 18.4811,-2.9399 52.158,-12.2227 91.4989,-55.9919 98.0178,-109.0484 0.7488,-6.0947 0.9106,-8.9246 0.9106,-15.9828 0,-7.0582 -0.1618,-9.8823 -0.9106,-15.977 -2.8041,-22.8223 -11.8394,-44.6549 -26.0064,-62.8251 -20.8518,-26.7438 -51.3689,-44.2479 -84.5994,-48.5213 -5.222,-0.6716 -11.1876,-1.0339 -16.7687,-1.0602 l 0,-0.01 -0.8877,0 -127.3973,0 z m 84.1813,51.8852 c 0.099,0 0.1547,0.024 0.1547,0.069 0,0.2678 -0.6262,0.5444 -1.2314,0.5444 -0.8105,0 -1.6775,0.9657 -2.1533,2.3954 -0.2145,0.6444 -0.4611,1.2152 -0.5441,1.2665 -0.083,0.051 -0.6499,-0.3448 -1.2599,-0.8768 -1.0779,-0.94 -1.5838,-1.1714 -3.7054,-1.7135 -0.9332,-0.2384 -0.9035,-0.5722 0.069,-0.745 1.6034,-0.2848 1.7957,-0.2252 3.1155,1.0144 0.6798,0.6384 1.306,1.1576 1.3917,1.1576 0.3085,0 0.3511,-0.2052 0.1661,-0.8081 -0.1572,-0.512 -0.1406,-0.6738 0.126,-0.9684 0.3975,-0.4393 3.1817,-1.3536 3.8714,-1.3353 z m 12.3532,2.6648 c 0.5491,0 2.026,1.1032 4.0146,3.0258 l 1.8327,1.7707 1.1568,-0.029 c 0.636,-0.018 1.1569,0 1.1569,0.052 0,0.048 -0.4788,0.3286 -1.0652,0.6247 -0.5865,0.296 -1.2265,0.5387 -1.4203,0.5387 -0.2249,0 -0.9085,-0.6423 -1.89,-1.7823 -0.8459,-0.9825 -2.0958,-2.2399 -2.7776,-2.7908 -0.6818,-0.5509 -1.2427,-1.0705 -1.2427,-1.1518 0,-0.1758 0.081,-0.2591 0.2348,-0.2579 z m -10.8642,9.6045 c 0.1406,-0.01 0.6747,0.3942 1.0195,0.8195 0.2285,0.282 1.0997,1.3042 1.9357,2.2751 2.639,3.0648 3.6387,4.5715 3.5335,5.3066 -0.031,0.2133 -0.1848,0.411 -0.3436,0.4412 -0.5793,0.1103 -1.4204,-0.9287 -3.1155,-3.851 -0.9523,-1.6419 -1.9868,-3.346 -2.3022,-3.7879 -0.3154,-0.442 -0.6393,-0.9162 -0.7159,-1.0487 -0.062,-0.1068 -0.058,-0.1525 -0.012,-0.1548 z m -11.8892,1.3983 c 0.2876,-0.013 0.378,0.041 0.378,0.1949 0,0.1444 -0.2023,0.3559 -0.4525,0.4699 -0.5469,0.2491 -0.7982,0.2574 -1.1511,0.034 -0.3974,-0.2512 -0.01,-0.5469 0.8705,-0.6647 0.1434,-0.019 0.2592,-0.03 0.3551,-0.034 z m 69.1364,0.7106 c 0.09,-0.022 0.171,0.076 0.2348,0.298 0.049,0.1719 0.2604,0.8867 0.4639,1.5874 1.1928,4.1059 1.4682,6.5 1.7811,15.3467 0.1672,4.7244 0.047,6.4599 -0.4639,6.6303 -0.1144,0.038 -0.4707,-0.1614 -0.7903,-0.447 l -0.5841,-0.5215 0.3951,-0.5501 c 0.9065,-1.273 1.3211,-3.8074 0.6873,-4.2063 -0.4569,-0.2875 -0.7693,0.1874 -0.9221,1.4097 -0.1431,1.1458 -0.8345,2.1304 -2.5428,3.6103 -0.5952,0.5157 -1.1958,0.9341 -1.3344,0.9341 -0.1386,0 -0.5657,-0.322 -0.9506,-0.7163 -0.385,-0.3943 -1.0087,-0.9288 -1.3803,-1.1862 -0.8121,-0.5629 -0.868,-1.0541 -0.2119,-1.8338 0.323,-0.3838 0.6189,-0.5502 0.9851,-0.5502 0.3868,0 0.5689,-0.1069 0.6872,-0.4183 0.088,-0.2321 0.3276,-0.4679 0.5326,-0.5215 0.3411,-0.089 0.3691,-0.2107 0.3265,-1.4097 -0.038,-1.0669 0.01,-1.3066 0.2233,-1.3066 0.1486,0 0.3576,0.2779 0.4697,0.6246 0.154,0.4767 0.2966,0.6246 0.6127,0.6246 0.3377,0 0.4489,-0.1425 0.6014,-0.7507 0.1894,-0.7558 0.3559,-1.0196 0.6529,-1.0601 0.09,-0.012 0.2377,-0.034 0.3321,-0.046 0.095,-0.012 0.2634,-0.3521 0.3723,-0.7564 0.1933,-0.718 0.052,-3.041 -0.5441,-8.9971 -0.2291,-2.2886 -0.2245,-4.285 0.012,-5.1347 0.1119,-0.403 0.2392,-0.6254 0.355,-0.6533 z m -74.6515,0.6991 c 0.098,0 0.1775,0.08 0.1775,0.1777 0,0.098 -0.079,0.1776 -0.1775,0.1776 -0.098,0 -0.1776,-0.079 -0.1776,-0.1776 0,-0.098 0.079,-0.1777 0.1776,-0.1777 z m 23.7098,7.1691 c 0.065,-0.012 0.1546,0.011 0.2405,0.097 0.1282,0.1283 0.1277,0.2284 0.01,0.3037 -0.1,0.062 -0.232,0.026 -0.2978,-0.08 -0.106,-0.1716 -0.057,-0.3008 0.052,-0.3209 z m -19.5578,0.1547 c 1.0631,0 2.4569,0.7112 2.4569,1.2493 0,0.2761 -0.4008,0.2014 -0.8934,-0.1662 -0.2455,-0.1832 -0.791,-0.4266 -1.2084,-0.5387 -0.8087,-0.2172 -1.0228,-0.546 -0.3551,-0.5444 z m 17.8454,0.2063 c 0.1279,-0.01 0.2637,0.01 0.4124,0.046 0.4822,0.121 0.6216,0.6361 0.1718,0.6361 -0.1508,0 -0.4691,0.1343 -0.7102,0.2922 -0.4027,0.2639 -0.4485,0.2639 -0.5498,0 -0.2055,-0.5356 0.1218,-0.9463 0.6758,-0.9742 z m 3.6252,0.3381 c 1.1147,-0.015 3.1563,0.3278 3.2644,0.659 0.053,0.1637 -0.2042,0.2178 -0.9679,0.1949 -2.3872,-0.072 -3.2593,-0.2775 -2.9952,-0.7049 0.061,-0.098 0.3271,-0.144 0.6987,-0.149 z m 16.5396,3.5645 c 0.3746,0 1.4966,0.6893 3.1842,1.9427 0.8289,0.6156 1.8348,1.2829 2.2336,1.4842 0.3987,0.2013 1.8248,1.04 3.167,1.8625 1.3422,0.8224 2.5329,1.4957 2.6459,1.4957 0.113,0 0.4816,-0.2127 0.8189,-0.4699 l 0.6128,-0.47 0.2692,0.6476 c 0.1485,0.3555 0.3719,0.6476 0.4983,0.6476 0.6429,0 0.8544,-0.9745 0.3894,-1.788 -0.1404,-0.2455 -0.2543,-0.6938 -0.2577,-0.9971 0,-0.3034 -0.4162,-1.3787 -0.9106,-2.3897 -0.4944,-1.011 -0.8623,-1.8708 -0.819,-1.914 0.043,-0.043 0.5804,0.7309 1.1912,1.7249 0.6109,0.994 1.4517,2.1463 1.867,2.5616 0.9511,0.9511 3.2333,2.3587 5.8416,3.5988 3.2178,1.5299 6.8696,4.0883 8.4645,5.9255 0.783,0.902 0.903,1.1333 0.8304,1.6275 -0.1085,0.7397 0.317,0.9349 1.0653,0.4929 1.0791,-0.6375 3.031,0.081 3.9688,1.4613 0.6724,0.9895 0.5911,1.4165 -0.1604,0.8481 -0.1906,-0.1442 -0.7188,-0.2579 -1.174,-0.2579 -1.0228,0 -1.5863,0.5139 -1.7296,1.5817 -0.087,0.6485 -0.053,0.7475 0.3322,0.894 0.2376,0.09 0.5376,0.2885 0.6643,0.4412 0.1268,0.1528 0.6068,0.3347 1.0652,0.4012 0.4585,0.066 0.8993,0.1542 0.9794,0.2005 0.2753,0.1594 -0.4358,0.7261 -1.5406,1.2264 -1.9275,0.8729 -4.829,0.819 -7.3993,-0.1375 -0.9906,-0.3687 -1.1786,-0.7196 -0.6242,-1.1576 0.6498,-0.5135 1.7626,-1.0203 2.4511,-1.1175 0.616,-0.087 0.7159,-0.1652 0.7159,-0.5501 0,-0.3448 -0.1312,-0.4877 -0.5727,-0.6304 -0.7685,-0.2484 -0.7698,-0.2541 -0.5784,-1.106 0.3113,-1.3858 -0.4712,-2.2427 -1.0194,-1.1175 -0.1194,0.2448 -0.4416,0.9135 -0.7159,1.49 -0.6684,1.4043 -1.3014,1.9781 -4.301,3.8624 -3.179,1.997 -3.2587,2.0376 -3.2587,1.7651 0,-0.1173 0.2935,-0.8012 0.6529,-1.5187 0.5484,-1.0947 0.8174,-1.4061 1.6551,-1.9598 0.5491,-0.363 1.5833,-1.2489 2.3023,-1.9657 1.0892,-1.0858 1.2962,-1.3839 1.2485,-1.7994 -0.046,-0.4019 -0.158,-0.5137 -0.5785,-0.5616 -0.2869,-0.033 -0.6633,-0.2387 -0.8361,-0.4584 -0.1729,-0.2198 -0.9019,-0.6718 -1.6208,-1.0086 -1.2341,-0.5784 -1.414,-0.6132 -3.2243,-0.6132 l -1.9128,0 -1.5864,-2.2407 c -2.5209,-3.5533 -3.1764,-4.1149 -10.028,-8.659 -3.7494,-2.4867 -4.8013,-3.2997 -4.2666,-3.2951 z m -15.6118,7.1404 c 0.669,0 0.6875,0.4772 0.074,1.7593 -0.3172,0.6633 -0.6204,1.6594 -0.6929,2.2578 l -0.1318,1.0717 -0.7101,-0.012 c -0.3917,-0.01 -1.3887,-0.1552 -2.2106,-0.3324 -1.1476,-0.2473 -2.0132,-0.3054 -3.7455,-0.2464 -2.018,0.069 -2.4457,0.1449 -4.0433,0.7106 -0.9821,0.3478 -1.9299,0.6943 -2.1018,0.7679 -0.6748,0.2893 -0.2856,-0.4519 0.6071,-1.1576 1.7377,-1.3735 3.3136,-2.1007 5.6239,-2.5902 1.4155,-0.2999 3.0322,-0.3469 3.19,-0.092 0.06,0.097 -0.099,0.4798 -0.3494,0.8481 -0.5399,0.7945 -0.5587,0.9399 -0.1317,0.9399 0.3975,0 1.3475,-0.9861 2.3481,-2.4413 0.7618,-1.1079 1.3383,-1.4842 2.2736,-1.4842 z m 14.7814,4.659 c 0.5155,0.067 3.4927,3.5669 8.4072,9.8911 1.3739,1.7678 2.6204,3.3863 2.7662,3.5931 0.1457,0.2068 0.8603,1.1715 1.5921,2.1433 2.9478,3.9142 7.5631,11.1407 9.9135,15.5185 0.3691,0.6875 0.8345,1.5152 1.0308,1.8396 0.1963,0.3243 0.3176,0.6278 0.2692,0.6762 -0.048,0.048 -0.3117,-0.297 -0.5842,-0.7679 -1.4496,-2.5054 -5.9003,-8.8794 -9.0143,-12.9112 -0.9482,-1.2276 -2.2385,-2.9754 -2.8692,-3.8853 -1.7547,-2.5316 -3.6165,-5.0012 -5.0111,-6.6476 -2.4532,-2.8959 -6.5804,-8.7667 -6.5804,-9.3581 0,-0.067 0.027,-0.099 0.08,-0.092 z m 31.51,0.7163 c 0.062,0 0.1135,0.022 0.1432,0.052 0.059,0.059 -0.041,0.099 -0.2291,0.092 -0.208,-0.01 -0.2513,-0.046 -0.1088,-0.1032 0.064,-0.026 0.1327,-0.043 0.1947,-0.04 z m -12.651,2.5215 c 0.3037,4e-4 0.7378,0.077 1.1283,0.2006 1.1036,0.3492 3.1441,1.5273 3.1441,1.8166 0,0.2049 -0.9558,1.1337 -3.2873,3.1862 -1.2332,1.0856 -1.8899,2.0867 -1.8899,2.8825 0,0.6786 -0.4875,1.5063 -1.0023,1.702 -0.5378,0.2045 -4.1698,0.2226 -4.4842,0.023 -0.3151,-0.2002 -1.6551,-2.0231 -1.6551,-2.2522 0,-0.1055 0.4604,-0.3713 1.0251,-0.5902 1.1015,-0.4272 2.5335,-1.5037 3.2186,-2.4241 0.2323,-0.312 0.7425,-1.1883 1.1397,-1.9484 0.7571,-1.4491 1.6257,-2.3702 2.4111,-2.5674 0.066,-0.017 0.1507,-0.029 0.2519,-0.029 z m -56.7203,6.6877 c 0.3015,-0.018 2.0439,2.1416 4.1292,5.1461 3.7578,5.414 5.7514,8.5818 18.1947,28.8423 9.6429,15.7009 12.2485,19.6159 14.5008,21.7994 2.4487,2.3739 3.2124,2.9488 9.9707,7.5415 4.6842,3.1833 5.4997,3.8 7.3936,5.5817 1.9136,1.8002 3.2358,3.7573 3.2358,4.7908 0,1.281 -0.5005,2.6102 -1.2714,3.3811 -0.6577,0.6577 -0.7486,0.6933 -1.5005,0.5902 -0.8554,-0.1172 -2.01,-0.6481 -4.7763,-2.2063 -0.9574,-0.5392 -2.2144,-1.1317 -2.7948,-1.3123 -1.5541,-0.4837 -3.9576,-1.7349 -7.8747,-4.0974 -3.6729,-2.2153 -5.4046,-3.1349 -6.8724,-3.6562 -0.491,-0.1744 -1.7609,-0.7177 -2.8234,-1.2091 -1.4942,-0.691 -1.9844,-0.8468 -2.1476,-0.682 -0.1628,0.1644 -0.064,0.3327 0.4181,0.7393 1.7238,1.4538 5.5399,3.3811 6.7006,3.3811 0.6165,0 0.9903,0.2101 2.6745,1.5186 4.1431,3.2189 8.199,5.2576 11.7232,5.8911 2.772,0.4983 4.1615,1.6655 5.0855,4.2693 0.1429,0.4024 0.4916,2.0598 0.7732,3.6848 0.2816,1.625 0.6824,3.4324 0.8877,4.0172 0.7174,2.0438 2.2,3.684 4.0261,4.447 0.9426,0.3938 5.0377,1.4138 7.5024,1.8682 7.0669,1.3028 8.7626,0.147 5.1256,-3.49 l -1.3172,-1.3123 -1.9185,0 c -1.9426,0 -2.8822,-0.1879 -3.4534,-0.682 -0.707,-0.6114 -0.2146,-1.5602 2.2793,-4.4126 1.9533,-2.2339 2.7696,-3.329 3.5565,-4.7621 1.2295,-2.2392 1.2266,-2.2041 1.2542,-12.8252 0.025,-9.4585 0.076,-10.28 0.6243,-10.6189 0.6358,-0.393 2.1673,2.5943 2.6974,5.2607 0.205,1.0313 0.8037,3.6019 1.3344,5.7135 1.2992,5.1697 1.7626,7.3746 2.3251,11.0716 0.2616,1.7188 0.5517,3.6113 0.6472,4.2006 0.2036,1.2569 0.075,4.2532 -0.3264,7.4613 -0.4241,3.3892 -0.1577,3.3401 1.0194,-0.1777 l 0.7273,-2.1776 -0.2005,-2.5502 c -1.0864,-13.7277 -4.2493,-27.263 -9.398,-40.2176 -1.972,-4.962 -4.9894,-11.5256 -6.8667,-14.9284 -0.4976,-0.902 -0.8716,-1.6722 -0.8304,-1.7134 0.041,-0.041 0.5591,0.7891 1.1512,1.8452 0.592,1.0562 1.5402,2.7256 2.1075,3.7078 1.6843,2.9159 6.5072,12.5879 8.1896,16.4183 1.8644,4.2449 4.2671,10.5286 5.2689,13.7936 1.3009,4.2405 1.954,9.1211 2.1075,15.7249 0.06,2.5781 0.1454,4.6877 0.189,4.6877 0.044,0 0.223,-0.1815 0.4009,-0.4011 0.302,-0.373 0.3683,-0.3835 0.985,-0.1605 0.4967,0.1796 0.7103,0.1884 0.8648,0.034 0.1683,-0.1677 0.5014,-4.9307 0.3608,-5.1576 -0.02,-0.033 -0.2038,0.032 -0.4123,0.1433 -1.0024,0.5364 -1.5415,-0.4944 -1.8384,-3.5244 -0.15,-1.5302 -0.1456,-2.653 0.012,-4.4871 0.2513,-2.9348 0.6023,-4.3037 1.1053,-4.3037 0.4012,0 0.7317,0.9686 1.1568,3.3868 0.2498,1.4207 0.4861,1.9891 0.7274,1.7479 0.06,-0.059 0.089,-1.2206 0.063,-2.5788 -0.089,-4.5889 -0.081,-4.931 0.1317,-5.0029 0.1247,-0.042 0.4977,0.8071 0.9507,2.1662 0.8339,2.5025 1.2275,3.1733 1.6608,2.8137 0.329,-0.273 0.4045,-0.5543 0.9335,-3.5701 0.4324,-2.4652 0.6644,-3.0518 1.0824,-2.7049 0.2964,0.246 0.9634,2.2289 1.1225,3.341 0.2704,1.8903 0.7031,0.5179 0.7273,-2.3038 0.015,-1.7003 0.3331,-2.434 0.9564,-2.1948 0.4625,0.1775 0.7608,0.8606 1.2886,2.9513 0.474,1.8776 0.7169,2.402 0.882,1.9312 0.049,-0.1392 0.1686,-1.4688 0.2691,-2.957 0.1005,-1.4882 0.2638,-2.9139 0.3608,-3.1691 0.3119,-0.8202 0.7011,-0.5582 1.3573,0.917 0.9531,2.1425 1.3976,2.9637 1.5921,2.934 0.098,-0.015 0.2285,-0.8487 0.2864,-1.8567 0.1606,-2.7959 0.7088,-4.6519 1.2256,-4.1432 0.1072,0.1055 0.3549,1.3838 0.5498,2.8424 0.1949,1.4586 0.3912,2.6895 0.4352,2.7335 0.044,0.044 0.191,0.04 0.3265,-0.012 0.1537,-0.059 0.3883,-0.8558 0.6299,-2.1203 0.4346,-2.2737 1.1533,-4.7354 1.5349,-5.255 0.2425,-0.3303 0.2622,-0.3245 0.4639,0.1891 0.1438,0.3665 0.176,1.17 0.097,2.5444 -0.063,1.1049 -0.049,2.0118 0.029,2.0114 0.078,-3e-4 0.4078,-0.819 0.7387,-1.8166 0.7666,-2.3106 1.7577,-4.4603 2.7834,-6.0458 1.6644,-2.573 1.7609,-1.2195 0.2806,3.9255 -0.58,2.016 -0.8339,3.1771 -0.7216,3.2894 0.1847,0.1847 0.5749,-0.6109 3.0697,-6.2292 1.9172,-4.3176 2.3541,-4.7861 1.5004,-1.6046 -0.4613,1.7195 -1.1307,6.9775 -0.9163,7.192 0.071,0.071 0.2351,-0.021 0.3666,-0.2006 0.399,-0.5458 1.5034,-3.8436 1.9529,-5.8338 0.5175,-2.292 1.1909,-4.3281 1.4603,-4.4126 0.3309,-0.1038 -0.048,1.5702 -1.0079,4.4298 -0.8554,2.5469 -1.9016,6.3475 -2.3195,8.4412 -0.2638,1.3221 0.01,1.7598 0.4468,0.7163 0.6699,-1.598 1.8784,-5.2568 1.8784,-5.6905 0,-1.8556 2.3577,-8.7489 4.4556,-13.0372 1.2161,-2.4857 1.9295,-3.4643 2.3424,-3.2092 0.4887,0.3021 -0.2927,4.8925 -1.3459,7.9198 -1.1511,3.3088 -1.6293,5.914 -1.0881,5.914 0.4095,0 2.0499,-4.583 2.4282,-6.7851 0.3678,-2.1403 1.4405,-6.1336 2.5199,-9.3753 1.1554,-3.4697 1.7065,-4.7476 2.1019,-4.8768 0.21,-0.069 0.2307,0.2115 0.1374,1.6848 -0.1151,1.8174 -0.1562,2.0056 -1.2714,5.7822 -1.1369,3.8503 -2.932,11.8686 -2.7089,12.0917 0.2479,0.2479 0.4803,-0.3561 1.7983,-4.6533 1.3426,-4.3773 1.7715,-6.0173 3.4076,-13.0601 0.8514,-3.6651 2.3036,-8.3564 2.9494,-9.5243 l 0.3608,-0.6591 -0.08,0.7164 c -0.047,0.3928 -0.2504,1.5958 -0.4524,2.6762 -0.4101,2.1931 -0.4558,2.7679 -0.2062,2.7679 0.2512,0 0.8465,-1.4294 1.5406,-3.7135 0.7035,-2.3151 1.0861,-4.9329 1.8612,-12.6246 0.7322,-7.2644 0.9449,-8.3022 1.5234,-7.5186 0.3921,0.531 0.5026,1.7864 0.2864,3.2837 -0.1095,0.7583 -0.4452,3.2678 -0.7445,5.5759 -1.4911,11.4992 -4.5502,22.9535 -9.3179,34.9111 -1.2597,3.1593 -4.4082,10.648 -5.0684,12.0515 -1.2528,2.6637 -2.7077,4.3995 -4.301,5.1289 -0.8616,0.3945 -1.1506,0.4386 -2.1648,0.3439 -0.9688,-0.091 -1.4335,-0.2602 -2.7203,-1.0029 -1.4913,-0.8607 -1.6113,-0.8997 -2.9093,-0.8997 -1.5947,0 -2.2824,0.1344 -6.1909,1.1977 -2.459,0.669 -3.092,0.9165 -3.8371,1.4785 -1.3268,1.0007 -2.2327,1.4646 -5.0684,2.6075 -3.8162,1.5379 -5.55,2.8052 -6.6663,4.871 l -0.4868,0.894 0.9679,0.2177 c 1.1172,0.2501 2.3604,0 2.8807,-0.573 0.2877,-0.3179 0.2816,-0.3704 -0.034,-0.957 -0.2645,-0.4912 -0.2877,-0.6635 -0.1145,-0.8367 0.1732,-0.1732 0.3324,-0.1562 0.7617,0.097 0.7141,0.4219 0.9621,0.3009 1.3287,-0.659 0.2996,-0.7848 0.3163,-0.7961 0.9965,-0.7049 1.0718,0.1438 2.8675,-0.6825 3.3503,-1.5415 0.6311,-1.1231 0.9992,-1.3415 2.5027,-1.49 0.7509,-0.074 1.7012,-0.1359 2.1132,-0.1318 0.858,0.01 1.83,-0.353 2.6745,-0.9971 0.4267,-0.3254 0.7085,-0.4105 1.0424,-0.3267 0.335,0.084 0.6451,-0.02 1.1625,-0.3782 0.6935,-0.4806 0.7153,-0.4838 1.1913,-0.1719 0.2666,0.1747 0.5086,0.2434 0.5383,0.1547 0.1718,-0.5127 0.7063,-1.3968 0.8762,-1.4498 0.1145,-0.036 0.246,0.2524 0.3036,0.6819 0.055,0.4101 0.224,0.8718 0.3779,1.0258 0.2542,0.2541 0.3344,0.2274 0.8705,-0.2923 0.8266,-0.8011 1.1528,-0.744 1.4146,0.235 0.1182,0.4419 0.2734,0.8023 0.3436,0.8023 0.07,0 0.225,-0.3022 0.3437,-0.6705 0.2496,-0.7753 0.5047,-1.1492 0.7044,-1.0258 0.077,0.048 0.2743,0.6809 0.4352,1.404 0.1609,0.7232 0.4109,1.4647 0.5556,1.6504 0.2527,0.3244 0.2789,0.317 0.7616,-0.2407 0.2764,-0.3191 0.5578,-0.5845 0.6243,-0.5845 0.2629,0 0.1028,2.4366 -0.2348,3.5702 -0.4821,1.6186 -1.453,3.0513 -3.1098,4.596 -2.6634,2.4832 -5.3555,3.8249 -15.5431,7.7421 -2.0016,0.7696 -2.6804,1.1237 -3.4591,1.8051 -1.7084,1.495 -3.1838,1.9841 -4.7992,1.5874 -1.8115,-0.4448 -3.6452,-2.2414 -4.3239,-4.2464 -0.3608,-1.0656 -0.6258,-1.2225 -0.6873,-0.4069 -0.2551,3.3853 -1.0287,7.1045 -1.9872,9.553 l -0.5613,1.427 0.4582,0.4011 c 0.2523,0.221 0.5697,0.4011 0.7044,0.4011 0.4775,0 0.981,-0.9506 1.6895,-3.1976 0.6646,-2.108 1.0845,-2.8711 1.5749,-2.8711 0.1075,0 0.4436,0.2053 0.7445,0.4585 l 0.5441,0.4584 1.3859,-0.533 c 5.3767,-2.0705 10.6829,-1.2348 13.951,2.2006 1.9228,2.0213 2.8707,4.3244 3.1556,7.6791 0.1038,1.2222 -0.1256,4.1143 -0.3436,4.3323 -0.037,0.037 -0.536,-0.069 -1.1054,-0.2349 -0.7678,-0.2232 -1.3555,-0.2698 -2.285,-0.1834 -2.9423,0.2735 -5.6835,1.4609 -5.1944,2.2522 0.051,0.083 0.5137,0.2737 1.0308,0.424 1.0882,0.3164 4.469,2.5601 4.5587,3.0258 0.049,0.2551 -0.03,0.2923 -0.4467,0.1948 -0.8217,-0.192 -3.991,-1.4048 -5.1371,-1.9656 l -1.0595,-0.5214 -0.023,-1.0258 c -0.013,-0.5636 -0.082,-1.0794 -0.1489,-1.1462 -0.423,-0.423 -2.4397,1.7379 -2.4397,2.6132 0,0.8764 0.5536,1.0554 1.9185,0.6246 0.3649,-0.1151 0.4009,-0.07 0.4009,0.5043 0,0.8389 -0.6672,1.6179 -1.7467,2.0344 -1.6638,0.642 -7.7397,0.3434 -11.9752,-0.5845 -0.7523,-0.1648 -0.3236,0.3128 0.6071,0.6762 0.4866,0.1901 0.9604,0.4187 1.0537,0.51 0.1716,0.168 -0.6149,0.1929 -1.5062,0.046 -14.039,-2.316 -20.0635,-4.0159 -27.0544,-7.6275 -6.6882,-3.4553 -10.0173,-6.5434 -14.1743,-13.1633 -2.3477,-3.7385 -4.0237,-7.2715 -8.1495,-17.2091 -4.2115,-10.1436 -6.0551,-13.8341 -8.9342,-17.8567 -2.1118,-2.9506 -2.6634,-3.8221 -2.5141,-3.9713 0.1916,-0.1917 0.883,0.2853 2.7833,1.9255 1.0166,0.8774 1.9104,1.5988 1.9873,1.5988 0.4884,0 0.1767,-0.6803 -1.3516,-2.9742 -0.9491,-1.4246 -1.6974,-2.7226 -1.6666,-2.8825 0.04,-0.2064 0.7472,0.3193 2.434,1.8051 1.3075,1.1517 2.4513,2.0451 2.5428,1.9886 0.2936,-0.1815 0.1813,-0.5062 -0.6643,-1.9599 -0.4557,-0.7833 -1.0639,-1.8667 -1.3516,-2.4069 l -0.5212,-0.9856 0.8304,0.8939 c 0.4577,0.4911 1.3861,1.7115 2.0618,2.7106 0.6757,0.9991 1.3088,1.8672 1.4031,1.9255 0.4349,0.2688 0.2709,-0.378 -0.7102,-2.8309 -1.2108,-3.0275 -1.5253,-3.9867 -1.3573,-4.1547 0.165,-0.165 0.8997,0.5502 1.867,1.8166 1.2465,1.6318 3.628,4.0172 4.009,4.0172 0.2656,0 0.3154,-0.085 0.2233,-0.4012 -0.3492,-1.1988 -2.9,-5.7581 -6.4715,-11.5644 -1.7945,-2.9174 -10.1949,-16.2901 -11.6659,-18.573 -2.1422,-3.3246 -7.9063,-12.4329 -9.0945,-14.3725 -0.722,-1.1786 -2.0032,-3.2668 -2.8521,-4.6418 -2.0951,-3.3938 -2.7251,-4.5246 -2.6459,-4.7622 0.01,-0.021 0.02,-0.027 0.04,-0.029 z m 37.3058,0.7392 1.7524,0.1032 c 0.9655,0.058 2.5648,0.1578 3.5508,0.2177 l 1.7925,0.1089 0.6128,0.8023 c 0.3384,0.4431 0.5745,0.8765 0.5212,0.9627 -0.1073,0.1737 -0.647,0.1696 -4.8107,-0.04 -4.4314,-0.2232 -4.8917,-0.4099 -3.9058,-1.5816 l 0.4868,-0.5731 z m -57.1728,6.7851 c 0.1649,-0.06 0.9373,0.8539 2.4054,2.7564 4.4419,5.7563 12.5164,15.6814 26.8997,33.0601 4.9171,5.941 7.0602,8.5523 7.6112,9.2665 0.5392,0.6988 -0.018,0.4521 -1.174,-0.5158 -5.0324,-4.2149 -15.4828,-15.4997 -23.3948,-25.2607 -5.8477,-7.2141 -9.1437,-12.0829 -11.4311,-16.8939 -0.7368,-1.5496 -1.0618,-2.36 -0.9164,-2.4126 z m 69.3656,1.49 c 0.031,-0.01 0.07,0 0.1145,0.017 0.4111,0.1358 4.9567,6.3007 8.4073,11.4039 4.5558,6.7378 8.0222,13.1668 8.6764,16.086 0.1139,0.5081 0.561,1.3528 1.1568,2.1833 1.6147,2.2505 3.6449,6.7379 5.0971,11.2722 0.4072,1.2714 0.784,2.6542 0.8419,3.0716 0.2162,1.5591 -0.1083,1.038 -2.2278,-3.53 -8.7362,-18.828 -11.7978,-24.4635 -16.7115,-30.7736 -0.6225,-0.7995 -1.3466,-1.8802 -1.6093,-2.4011 -0.2626,-0.5209 -1.0693,-1.8109 -1.7868,-2.8654 -1.4684,-2.158 -2.4262,-4.3867 -1.9586,-4.4641 z m 6.4715,12.8309 c 0.1629,0 4.4731,7.1167 5.2689,8.6991 0.2576,0.5124 0.4696,1.0528 0.4696,1.2034 0,0.487 -0.2698,0.2986 -1.7582,-1.2263 -1.5768,-1.6155 -2.1477,-2.6344 -3.4878,-6.2178 -0.6419,-1.7166 -0.79,-2.4584 -0.4925,-2.4584 z m 3.001,9.3639 c 0.8277,0.1195 4.1122,4.629 6.4829,8.9799 0.7086,1.3003 1.2573,2.4552 1.2199,2.5673 -0.072,0.2165 -3.8232,-4.1247 -5.5438,-6.4183 -1.6992,-2.2652 -2.7604,-4.6249 -2.2908,-5.0946 0.032,-0.032 0.077,-0.042 0.1318,-0.034 z m 1.237,5.6618 c 0.5945,-0.017 8.3077,10.7515 8.0178,11.2206 -0.1886,0.3052 -0.5387,0.2001 -1.0079,-0.3094 -0.7471,-0.8112 -3.949,-5.0158 -5.2002,-6.831 -1.0691,-1.5511 -2.0882,-3.8188 -1.8326,-4.0744 0.01,-0.01 0.014,-0.01 0.023,-0.01 z m 0.5784,4.0802 c 0.4039,0 8.1578,10.6947 9.295,12.8195 0.1165,0.2178 0.137,0.3954 0.046,0.3954 -0.2243,0 -2.5417,-2.6148 -3.0182,-3.404 -0.4466,-0.7397 -2.2323,-2.4772 -4.2093,-4.0974 -0.8078,-0.662 -1.5475,-1.4377 -1.7525,-1.8395 -0.4162,-0.8159 -0.7009,-3.874 -0.3608,-3.874 z m 0.4582,5.4098 c 0.3206,0 0.9096,0.5064 2.0102,1.5816 3.05,2.9799 7.027,8.467 7.027,9.6963 0,0.601 -0.5538,0.1767 -2.978,-2.3037 -1.8743,-1.9177 -2.828,-2.7536 -3.6882,-3.2264 -1.3878,-0.7628 -2.5551,-1.9695 -2.7089,-2.7965 -0.061,-0.3281 -0.088,-1.1162 -0.057,-1.7536 0.038,-0.7872 0.1123,-1.1935 0.3952,-1.1977 z m -0.1947,5.7364 c 0.3878,-0.028 1.8937,0.7866 3.167,1.7249 2.3046,1.6982 5.8816,5.8277 5.8816,6.7908 0,0.1852 -0.095,0.3348 -0.2176,0.3324 -0.3258,-0.01 -1.7323,-1.0747 -3.1212,-2.3725 -0.6665,-0.6228 -2.0414,-1.755 -3.0525,-2.5158 -1.0111,-0.7607 -2.075,-1.7082 -2.3653,-2.1089 -0.5183,-0.7155 -0.6937,-1.6245 -0.355,-1.8338 0.015,-0.01 0.037,-0.015 0.063,-0.017 z m -0.3837,3.0487 c 0.5251,0 2.2679,1.0185 3.7626,2.212 2.5432,2.0307 5.853,5.9436 5.853,6.9226 0,0.2324 -0.1066,0.4183 -0.2405,0.4183 -0.3058,0 -2.2592,-1.4716 -3.6252,-2.7335 -0.576,-0.532 -1.4504,-1.1728 -1.9415,-1.4269 -1.6033,-0.8295 -4.2711,-2.7014 -4.5358,-3.1805 -0.2296,-0.4156 -0.223,-0.559 0.052,-1.278 0.1702,-0.4457 0.4351,-0.8632 0.5898,-0.9226 0.024,-0.01 0.051,-0.012 0.086,-0.011 z m -0.8133,4.2062 c 0.2742,0 0.6925,0.1428 1.3344,0.4069 1.4499,0.5965 3.5361,2.1065 5.2001,3.7593 2.1526,2.1382 3.8764,4.6051 3.6424,5.2149 -0.053,0.1378 -0.1676,0.2522 -0.2577,0.2522 -0.2691,0 -2.2616,-1.3887 -3.1842,-2.2178 -0.4727,-0.4248 -1.8281,-1.4346 -3.0067,-2.2464 -4.2361,-2.918 -4.4954,-3.195 -4.2781,-4.4814 0.08,-0.4743 0.1973,-0.693 0.5498,-0.6877 z m -0.017,3.9427 c 0.4037,0.01 0.906,0.2008 1.6666,0.6017 3.1069,1.6378 9.1346,7.2457 9.1346,8.4986 0,0.1876 -0.1006,0.3399 -0.2234,0.3381 -0.4098,-0.01 -1.9762,-0.9725 -5.5781,-3.4327 -4.0398,-2.7592 -5.3782,-3.8289 -5.8931,-4.7163 l -0.3608,-0.6132 0.4238,-0.3495 c 0.2626,-0.2171 0.5165,-0.3307 0.8304,-0.3267 z m -0.229,4.2235 c 0.9305,-0.086 4.8163,2.3635 8.3156,5.2837 1.3132,1.0959 1.8212,1.6491 1.8212,1.977 0,0.2843 -0.6524,-0.025 -2.7662,-1.3123 -1.2768,-0.7776 -3.2691,-1.9615 -4.427,-2.6246 -1.996,-1.1432 -3.3445,-2.2784 -3.3445,-2.8195 0,-0.135 0.1183,-0.337 0.2577,-0.4527 0.035,-0.029 0.081,-0.046 0.1432,-0.052 z m 1.8555,3.6619 c 0.4289,-0.033 2.4897,1.1586 4.2208,2.4584 1.6923,1.2707 3.7054,3.2252 3.7054,3.5989 0,0.3669 -0.9428,0.064 -2.1534,-0.6877 -0.7321,-0.4544 -1.824,-1.05 -2.4282,-1.3238 -0.6043,-0.2737 -1.4123,-0.7739 -1.7926,-1.1174 -0.6763,-0.6111 -1.836,-2.6902 -1.6207,-2.9055 0.013,-0.013 0.04,-0.021 0.069,-0.023 z m -2.4855,0.8768 c 0.9333,-0.1017 8.2656,5.9095 9.0887,7.5014 0.2464,0.4764 0.2388,0.4966 -0.1489,0.4928 -1.0503,-0.01 -5.3019,-2.9974 -7.2904,-5.1232 -1.073,-1.147 -1.9539,-2.6066 -1.7181,-2.8424 0.016,-0.016 0.039,-0.025 0.069,-0.029 z m -0.6243,3.5931 c 0.2788,-0.024 0.6512,0.1432 1.6666,0.6304 2.7456,1.3174 5.4159,3.5351 6.3283,5.255 0.3625,0.6832 0.3939,0.8545 0.1948,1.0945 -0.2263,0.2727 -0.9319,0.3391 -1.7067,0.1605 -0.1964,-0.045 -1.3241,-0.5564 -2.5027,-1.1347 -3.597,-1.7648 -5.3452,-3.5025 -4.9825,-4.957 0.1017,-0.4077 0.3343,-0.7458 0.63,-0.9112 0.1376,-0.077 0.2455,-0.1268 0.3722,-0.1375 z m 1.2886,2.3381 c -0.022,5e-4 -0.036,0.01 -0.046,0.017 -0.1877,0.1877 0.6057,1.3914 1.2714,1.9312 0.3422,0.2776 0.9243,0.6101 1.3,0.7393 1.3284,0.4567 1.5419,-0.099 0.3895,-1.0201 -0.8999,-0.7193 -2.5846,-1.6749 -2.9151,-1.6676 z m -2.7833,0.8367 c 0.1639,-0.026 0.5159,0.1763 1.111,0.6132 0.9492,0.6967 1.6866,1.7328 1.5291,2.1432 -0.136,0.3545 -0.4426,0.3263 -1.1282,-0.092 -0.6376,-0.3887 -1.3976,-1.4371 -1.5806,-2.1891 -0.071,-0.2926 -0.059,-0.4555 0.069,-0.4756 z m -1.3802,2.7965 c 0.2418,-0.023 0.9715,0.2213 2.1362,0.7164 3.8694,1.6446 4.8765,1.9314 4.2723,1.2034 -0.1262,-0.1521 -0.1779,-0.332 -0.1145,-0.3954 0.1977,-0.1977 1.9116,0.7091 2.3709,1.255 0.3917,0.4654 0.4124,0.5597 0.189,0.8997 -0.5236,0.7972 -2.6979,1.0686 -4.5816,0.5673 -0.5356,-0.1425 -0.9995,-0.2319 -1.0366,-0.1948 -0.037,0.037 0.02,0.2386 0.1318,0.447 0.1647,0.3077 0.1173,0.5956 -0.2635,1.5473 -0.2577,0.6443 -0.4252,1.289 -0.3722,1.4269 0.3034,0.7909 -0.7395,-0.5459 -1.3058,-1.6734 -0.2109,-0.4197 -0.4025,-1.0667 -0.4238,-1.4326 l -0.04,-0.6648 0.7617,0.034 c 0.4174,0.019 0.756,-0.04 0.756,-0.1318 0,-0.092 -0.063,-0.1662 -0.1432,-0.1662 -0.7083,0 -2.826,-2.9948 -2.4111,-3.4097 0.014,-0.014 0.04,-0.025 0.075,-0.029 z m 9.4896,2.3611 c 0.2213,0 0.5559,0.1031 0.7675,0.2578 0.1905,0.1393 0.3066,0.2893 0.2577,0.3381 -0.1039,0.1037 -1.2485,-0.3479 -1.2485,-0.4928 0,-0.073 0.091,-0.1057 0.2233,-0.1031 z m -5.2631,3.9369 c 0.8076,0.017 2.7725,0.5108 3.0181,0.7564 0.2488,0.2488 0.2378,0.301 -0.1431,0.5502 -0.5464,0.3574 -2.6191,0.5347 -3.1384,0.2693 -0.2153,-0.1099 -0.4355,-0.3212 -0.4926,-0.4699 -0.1398,-0.3645 0.3724,-1.1142 0.756,-1.106 z m -1.2027,1.8166 0.8591,0.4126 c 0.4695,0.2265 1.1845,0.5035 1.5921,0.6132 0.8609,0.2318 1.0093,0.4043 0.8591,1.0029 -0.1922,0.7654 -1.0447,0.5364 -2.308,-0.6189 -0.2789,-0.255 -0.6145,-0.6742 -0.7503,-0.9341 l -0.252,-0.4757 z m 8.3328,0.5215 c 0.4901,0 0.8401,0.077 1.0481,0.2292 0.4841,0.354 0.2824,0.473 -1.1168,0.6533 -2.7807,0.3584 -4.3016,-0.1938 -1.8326,-0.6647 0.7758,-0.148 1.4113,-0.2198 1.9013,-0.2178 z m 3.5737,1.6218 c 1.1369,-0.022 1.714,0.2959 1.6265,0.9112 -0.049,0.3432 -0.1791,0.3925 -1.0423,0.4183 -1.7771,0.053 -3.2202,-0.4843 -2.623,-0.98 0.1313,-0.1089 0.8166,-0.25 1.5176,-0.3151 0.185,-0.017 0.3588,-0.031 0.5212,-0.034 z m -5.2689,0.3266 c 0.3979,-0.01 0.841,0.045 1.0137,0.1548 0.1354,0.086 0.1878,0.2461 0.1203,0.3553 -0.2358,0.3814 -1.8842,0.091 -1.8842,-0.3324 0,-0.1117 0.3524,-0.1725 0.7502,-0.1777 z m 29.7519,9.8166 c -0.446,0 -1.9086,1.3664 -2.0446,1.9083 -0.1174,0.4679 0.2962,1.0585 0.9163,1.3124 0.5734,0.2346 2.0161,0.1924 2.6688,-0.08 0.6715,-0.2806 0.9266,-0.8073 0.6472,-1.3295 -0.2941,-0.5494 -1.8187,-1.8109 -2.1877,-1.8109 z"
         id="path3000"
         inkscape:connector-curvature="0" />
      <path
         inkscape:connector-curvature="0"
         id="path2998"
         d="m 3366.1203,1478.5795 c -3.7411,-0.3368 -8.1054,-1.3625 -14.4643,-3.3995 -2.2098,-0.7078 -5.4228,-1.721 -7.1399,-2.2514 -6.6677,-2.0596 -10.2317,-4.1698 -14.8394,-8.786 -2.8478,-2.8532 -5.1379,-5.8425 -7.4288,-9.6974 -2.2809,-3.8378 -5.6271,-10.4344 -6.3685,-12.5542 -0.8353,-2.3888 -1.4058,-3.7475 -2.4326,-5.7935 -3.391,-6.7574 -10.7712,-17.2782 -14.851,-21.1708 -11.0285,-10.5226 -20.37,-21.4412 -30.6318,-35.8036 -1.7394,-2.4346 -3.5964,-6.4654 -4.3864,-9.5214 -0.5744,-2.2217 -0.2235,-2.6202 1.2467,-1.4161 2.4876,2.0372 9.6215,10.6864 23.529,28.5268 8.4509,10.8406 9.7816,12.4899 11.9821,14.8506 3.0096,3.2286 3.88,3.4069 5.3598,1.0982 1.0069,-1.5708 1.6417,-1.9864 2.8128,-1.8418 l 0.8699,0.1074 -0.1274,-0.8494 c -0.07,-0.4672 -0.3258,-1.536 -0.5684,-2.3751 -1.8596,-6.4334 -7.4087,-16.4884 -17.2009,-31.1685 -5.6166,-8.4201 -8.85,-13.8647 -9.2945,-15.6507 -0.2332,-0.9372 -0.027,-1.5814 0.5056,-1.5814 0.8004,0 2.5211,1.5073 4.4846,3.9285 3.1692,3.9079 5.1428,6.9746 15.1126,23.4822 10.5542,17.475 15.2212,24.4011 20.7637,30.8149 2.4193,2.7995 4.3835,4.582 8.1564,7.402 1.7679,1.3213 4.058,3.0502 5.0893,3.8421 2.1979,1.6876 4.6449,3.3319 5.474,3.6783 0.3223,0.1347 0.8003,0.2448 1.0624,0.2448 0.5252,0 0.5234,0.059 0.075,-2.4107 -0.4165,-2.2961 -0.118,-5.9688 0.9942,-12.2321 0.3613,-2.0349 0.4806,-3.4159 0.5569,-6.4494 0.1709,-6.7998 -0.5799,-11.6649 -3.1893,-20.666 -1.6699,-5.7605 -3.4412,-9.8336 -5.8361,-13.4204 -1.2787,-1.9149 -1.3743,-2.1551 -2.5233,-6.3383 -0.2157,-0.7851 -0.6872,-1.9905 -1.0478,-2.6785 l -0.6557,-1.251 -3.3036,-0.208 c -3.6538,-0.23 -5.6646,-0.5007 -6.6006,-0.8886 -0.6717,-0.2784 -1.2565,-0.7402 -1.2565,-0.9923 0,-0.087 0.3661,-0.55 0.8136,-1.0284 1.2318,-1.3168 2.0356,-1.4393 6.2846,-0.9577 0.6745,0.077 0.9375,0.045 0.9375,-0.1105 0,-0.1192 -0.785,-1.195 -1.7444,-2.3906 -3.2322,-4.028 -4.136,-5.6589 -4.2813,-7.7256 -0.086,-1.2266 0.1338,-2.1336 0.4862,-2.0038 0.1916,0.071 6.0335,7.1132 8.1323,9.8038 0.8742,1.1206 1.6729,2.1006 1.7751,2.1778 0.5123,0.3874 3.0992,-0.6105 3.9915,-1.5397 0.8975,-0.9347 2.0573,-3.2687 2.0573,-4.1403 0,-0.8581 -0.6491,-2.1396 -2.0411,-4.0295 -2.15,-2.9193 -7.2363,-7.035 -12.9863,-10.5084 -1.2087,-0.7301 -2.2757,-1.4734 -2.3711,-1.6518 -0.1799,-0.336 0.053,-0.9941 0.446,-1.2615 0.4456,-0.303 1.9351,0.2849 3.4714,1.3701 0.4578,0.3233 1.7162,1.089 2.7965,1.7016 1.0804,0.6126 2.261,1.3472 2.6235,1.6325 0.7975,0.6276 1.4899,0.6636 2.5197,0.1311 0.4124,-0.2132 0.8696,-0.4425 1.0162,-0.5097 0.1466,-0.067 0.3387,-0.3736 0.4269,-0.6812 0.1436,-0.5008 0.039,-0.7687 -1.0006,-2.5706 -0.6385,-1.1064 -1.3281,-2.3929 -1.5325,-2.859 -0.2044,-0.4661 -0.6978,-1.3028 -1.0963,-1.8594 -0.7132,-0.996 -0.8308,-1.3625 -0.6163,-1.9214 0.1665,-0.4341 0.7098,-0.3371 1.3727,0.2449 1.376,1.2082 4.5747,5.6818 6.1239,8.5647 1.1042,2.0549 3.1682,3.651 6.8312,5.2826 0.9485,0.4225 2.2066,1.0607 2.7959,1.4183 1.1967,0.7261 1.1856,0.7296 1.9144,-0.6001 0.169,-0.3083 0.5504,-0.6988 0.8477,-0.8678 0.3023,-0.1718 0.6223,-0.5535 0.7263,-0.866 0.1022,-0.3073 0.3435,-0.7015 0.5362,-0.8759 0.2169,-0.1963 0.3504,-0.5478 0.3504,-0.9226 0,-0.4121 0.1466,-0.752 0.4591,-1.0645 0.3923,-0.3922 0.5618,-0.4427 1.1641,-0.3464 l 0.7049,0.1127 0.6401,-1.3865 0.6402,-1.3866 -0.1021,-2.1429 c -0.056,-1.1785 -0.2195,-3.0267 -0.3631,-4.1071 -0.4267,-3.2105 -0.4755,-4.1886 -0.3082,-6.1741 0.2038,-2.4178 0.6945,-3.4114 1.527,-3.0919 0.4245,0.1629 1.0101,1.6388 1.6397,4.1326 1.2844,5.087 1.7787,10.7797 1.6242,18.7048 -0.055,2.8482 -0.1525,5.3119 -0.2155,5.4747 -0.1443,0.373 -0.8178,0.6397 -1.9639,0.7776 -2.6117,0.3143 -3.5524,0.9114 -1.5086,0.9576 1.2889,0.029 2.1994,0.4452 3.2304,1.4763 0.9414,0.9414 1.3813,1.9676 1.5766,3.6783 0.087,0.762 0.2473,1.6196 0.3562,1.9057 0.2635,0.6925 0.016,0.9405 -0.6599,0.6606 -0.4552,-0.1886 -0.6864,-0.1264 -2.2531,0.6057 -3.4001,1.5889 -5.215,1.7078 -8.3844,0.5495 -2.6261,-0.9598 -3.4254,-0.8559 -5.393,0.701 -1.7333,1.3715 -2.9585,1.9461 -3.8058,1.785 -0.3622,-0.069 -1.5329,-0.1627 -2.6016,-0.2084 -1.5978,-0.068 -1.9265,-0.04 -1.8492,0.1619 0.052,0.1348 0.6381,0.9999 1.3029,1.9223 3.3095,4.5916 8.4521,12.8434 13.2424,21.2487 7.2548,12.7297 12.4142,23.8677 16.3163,35.2231 0.5316,1.5469 1.0512,2.8125 1.1547,2.8126 0.1035,0 0.4629,-0.2835 0.7988,-0.63 1.3653,-1.4087 3.9276,-2.7322 6.0264,-3.1127 1.0512,-0.1907 1.6222,-0.1338 2.5739,0.2561 0.2427,0.099 0.3251,-0.01 0.4218,-0.561 0.1482,-0.8439 0.5353,-1.4881 0.8941,-1.4881 0.1485,0 0.4493,0.1174 0.6684,0.261 0.369,0.2417 0.4548,0.2164 1.1619,-0.3432 0.42,-0.3323 2.4678,-1.5858 4.5507,-2.7856 4.451,-2.5638 7.5803,-4.5766 10.6622,-6.8582 1.2277,-0.9089 2.6741,-1.853 3.2143,-2.098 1.9831,-0.8997 3.9086,-2.7088 5.6611,-5.3189 0.2968,-0.442 1.4078,-2.2902 2.4689,-4.1071 2.2441,-3.8425 3.3996,-5.5422 4.859,-7.1467 1.4697,-1.616 2.0865,-2.5779 2.8214,-4.3999 0.8706,-2.1586 1.5275,-4.7378 2.4939,-9.7927 1.1771,-6.1573 1.8246,-9.2177 2.3319,-11.0219 0.4978,-1.7706 1.3869,-4.1107 1.8116,-4.768 0.2683,-0.4153 0.2894,-0.4193 0.523,-0.1 0.2933,0.401 0.3251,3.6243 0.055,5.5325 -0.2732,1.9277 -0.2858,2.0789 -0.504,6.0393 -0.2471,4.4855 -0.3548,5.285 -1.2604,9.3573 -3.4303,15.4259 -6.4482,25.4015 -10.4685,34.6034 -1.1203,2.5643 -3.4944,7.2095 -4.8439,9.4777 -0.9311,1.5651 -1.1104,2.0181 -1.3778,3.4822 -0.546,2.9896 -1.657,5.7176 -3.2308,7.933 -0.9501,1.3375 -3.5781,3.884 -5.016,4.8604 -2.7183,1.846 -6.7958,3.6378 -10.8987,4.7893 -1.2652,0.3551 -2.3589,0.702 -2.4305,0.771 -0.072,0.069 0.5104,0.5536 1.2935,1.0768 3.7378,2.4977 6.6957,6.2999 7.581,9.7454 0.5708,2.2211 0.1812,5.7174 -0.7678,6.8892 -0.3154,0.3897 -0.3232,0.3286 -0.3111,-2.4377 0.011,-2.4544 -0.043,-3.029 -0.3984,-4.2578 -1.3319,-4.6036 -4.7001,-7.5504 -9.2792,-8.1181 -2.2608,-0.2802 -5.8331,0.291 -8.1107,1.2969 -0.6452,0.285 -0.6697,0.2815 -1.2085,-0.1719 -1.0769,-0.9062 -1.5655,-0.3623 -2.503,2.7865 -0.6082,2.0426 -0.9843,2.6807 -1.58,2.6807 -0.5579,0 -0.9249,-0.2854 -0.9249,-0.7192 0,-0.1599 0.2005,-0.784 0.4455,-1.387 0.696,-1.713 1.308,-4.3021 1.6841,-7.1249 0.1897,-1.4237 0.3886,-2.6323 0.442,-2.6857 0.053,-0.053 0.1838,0.1351 0.2898,0.4188 0.7565,2.0238 2.0255,3.5366 3.5672,4.2527 1.9014,0.8831 3.7712,0.4889 5.6668,-1.1947 0.7672,-0.6814 1.4897,-1.035 4.6301,-2.2665 5.4293,-2.1291 7.4409,-2.974 9.3754,-3.9378 5.4365,-2.7089 8.189,-5.9047 8.6118,-9.999 0.056,-0.5405 0.035,-1.2235 -0.047,-1.5179 l -0.1483,-0.5352 -0.4066,0.6783 c -0.2496,0.4164 -0.5185,0.6575 -0.6964,0.6243 -0.3058,-0.057 -0.7868,-1.3001 -0.996,-2.5743 l -0.1209,-0.7359 1.2314,0.088 c 2.1159,0.1514 3.5611,-0.7779 5.2119,-3.3514 0.9391,-1.4641 4.0665,-8.6046 6.6308,-15.14 4.1209,-10.5022 7.2784,-22.0346 8.6392,-31.5534 0.7135,-4.9907 1.2188,-8.983 1.2091,-9.5536 -0.013,-0.7793 -0.4192,-2.0037 -0.6944,-2.0938 -0.4697,-0.1538 -0.6939,1.2635 -1.5882,10.0402 -0.3502,3.4375 -0.7944,7.0335 -0.987,7.991 -0.3572,1.7759 -1.6023,5.5715 -1.9377,5.9069 -0.428,0.4279 -0.3959,-0.2138 0.1504,-3.0089 0.3175,-1.6242 0.5456,-3.0479 0.507,-3.1637 -0.096,-0.2874 -1.107,2.1818 -1.9258,4.7026 -0.3706,1.1406 -1.0475,3.6726 -1.5042,5.6266 -0.4568,1.954 -1.1106,4.7179 -1.4529,6.142 -0.7371,3.0661 -3.2278,11.262 -3.5003,11.5178 -0.3561,0.3344 0.01,-1.8651 1.0008,-6.0714 0.534,-2.2589 1.268,-5.0714 1.6311,-6.25 0.8401,-2.7267 0.9116,-3.0462 1.1321,-5.0515 0.2768,-2.5176 -0.037,-2.8913 -0.8753,-1.0424 -1.2182,2.6867 -3.0127,8.6291 -3.8355,12.701 -0.4373,2.164 -1.2138,4.7604 -1.9023,6.361 -0.3662,0.851 -0.5653,1.0356 -0.7664,0.7103 -0.188,-0.3043 0.4671,-3.1468 1.3212,-5.732 1.2982,-3.9299 1.7965,-7.6796 1.0395,-7.823 -1.1617,-0.2201 -5.9159,11.3409 -6.5559,15.9419 -0.1502,1.0802 -0.8566,3.3294 -1.8946,6.0329 -0.1837,0.4783 -0.4389,0.3718 -0.4389,-0.183 0,-0.761 0.952,-4.46 1.9537,-7.591 1.0145,-3.1712 1.6177,-5.3763 1.6177,-5.914 0,-0.3149 -0.032,-0.3279 -0.2468,-0.1003 -0.3432,0.3638 -0.94,2.1912 -1.5525,4.7537 -0.753,3.1508 -1.8209,5.9769 -2.1385,5.6593 -0.2379,-0.2379 0.4782,-5.6569 0.9873,-7.4716 0.4982,-1.776 0.5145,-1.8763 0.305,-1.8763 -0.1822,0 -0.3759,0.3983 -2.6414,5.4331 -1.8277,4.0618 -2.5733,5.3687 -2.2997,4.0312 0.07,-0.3438 0.4416,-1.7098 0.8251,-3.0357 0.8366,-2.8926 1.0733,-4.6429 0.6277,-4.6429 -0.6361,0 -2.61,3.4931 -3.6684,6.4919 -0.85,2.4084 -0.9002,2.4196 -0.9091,0.2045 -0.01,-2.0507 -0.1093,-2.7678 -0.3901,-2.7678 -0.3689,0 -1.3596,3.1131 -1.8528,5.822 -0.5376,2.9532 -0.8054,2.7697 -1.3151,-0.9008 -0.4743,-3.4154 -0.7292,-3.735 -1.3617,-1.7069 -0.1685,0.5401 -0.3566,1.866 -0.418,2.9464 -0.1373,2.415 -0.3898,2.5724 -1.146,0.7143 -1.7339,-4.2604 -2.1382,-4.2038 -2.467,0.3453 -0.2847,3.9405 -0.4042,4.1153 -1.0457,1.5297 -0.6168,-2.4856 -0.9874,-3.2143 -1.6351,-3.2143 -0.5342,0 -0.7347,0.6743 -0.8189,2.7544 -0.1193,2.9497 -0.2131,3.0637 -0.7702,0.9367 -0.6202,-2.3679 -1.2155,-3.2008 -1.5852,-2.2179 -0.083,0.221 -0.3252,1.4362 -0.538,2.7004 -0.3961,2.3529 -0.7492,3.505 -1.0745,3.505 -0.3264,0 -0.6801,-0.7575 -1.4429,-3.0895 -0.458,-1.4002 -0.8275,-2.2587 -0.9537,-2.2155 -0.1498,0.051 -0.1877,1.1073 -0.1389,3.8707 0.056,3.1665 0.026,3.7869 -0.1786,3.7195 -0.1527,-0.05 -0.395,-0.8186 -0.6406,-2.0313 -0.7436,-3.6715 -1.3466,-4.0714 -1.961,-1.3004 -0.3841,1.7317 -0.4356,7.6437 -0.079,9.0822 0.3568,1.4404 0.624,1.7857 1.3821,1.7857 l 0.6351,0 -0.059,2.313 c -0.066,2.5863 -0.1973,2.9299 -0.9362,2.4457 -0.5591,-0.3663 -0.9774,-0.3763 -1.1116,-0.026 -0.057,0.1473 -0.2232,0.2678 -0.3703,0.2678 -0.2082,0 -0.2498,-0.1681 -0.1874,-0.7589 0.044,-0.4174 0.015,-2.461 -0.064,-4.5414 -0.2438,-6.4155 -0.9581,-11.1404 -2.3239,-15.3711 -3.1325,-9.7036 -8.0336,-20.4098 -14.9791,-32.7215 -7.723,-13.6897 -11.5362,-19.8926 -15.1843,-24.7004 -0.732,-0.9646 -1.572,-2.0952 -1.8666,-2.5122 -2.0308,-2.8748 -10.6287,-13.4816 -10.9375,-13.4932 -0.3232,-0.012 -0.2778,0.2528 0.2072,1.21 0.7326,1.4456 4.3458,6.4001 6.2379,8.5533 0.4123,0.4693 0.9708,1.1816 1.2411,1.5829 0.2702,0.4012 0.8311,1.1352 1.2463,1.631 0.4153,0.4958 1.2371,1.6085 1.8264,2.4728 0.5893,0.8642 1.7127,2.4204 2.4964,3.4582 3.7378,4.9496 4.9079,6.5602 6.6899,9.2084 4.0349,5.9961 6.5685,10.4068 9.8984,17.2321 7.6393,15.6584 12.1156,31.8743 13.5935,49.2436 l 0.2623,3.083 -0.7006,2.0477 c -1.1261,3.2915 -1.35,3.3941 -0.9758,0.4471 0.3766,-2.9652 0.4985,-6.7117 0.2616,-8.0357 -0.1142,-0.6384 -0.3608,-2.2219 -0.5481,-3.519 -0.4758,-3.2959 -1.0845,-6.2034 -2.4035,-11.481 -0.6259,-2.5045 -1.2639,-5.2237 -1.4178,-6.0428 -0.292,-1.5539 -1.3903,-3.9698 -2.0944,-4.607 -0.3548,-0.3211 -0.3718,-0.3193 -0.69,0.074 -0.5039,0.6223 -0.585,2.1546 -0.5111,9.6611 0.037,3.7935 0.013,7.825 -0.054,8.9588 -0.202,3.4232 -0.9621,4.9382 -4.6095,9.1885 -3.4728,4.0467 -3.5166,4.8507 -0.287,5.2705 0.6975,0.091 1.7598,0.1673 2.3606,0.1704 l 1.0924,0.01 1.3552,1.4186 c 1.916,2.0054 2.0951,2.9996 0.6373,3.5369 -1.2059,0.4445 -5.2845,-0.079 -10.338,-1.3255 -2.9172,-0.7199 -3.9571,-1.1774 -5.1305,-2.2572 -1.613,-1.4845 -2.1362,-2.7761 -2.8867,-7.1269 -0.2957,-1.7142 -0.7064,-3.5678 -0.9127,-4.1191 -0.7381,-1.9729 -2.6366,-3.4888 -4.7308,-3.7775 -3.3013,-0.455 -7.872,-2.7516 -12.1953,-6.1275 -1.2013,-0.938 -1.6802,-1.2019 -2.3829,-1.313 -1.6422,-0.2596 -4.8903,-1.8601 -6.4206,-3.1638 -1.2356,-1.0525 -0.7797,-1.2406 0.9234,-0.3808 0.5913,0.2985 1.6537,0.749 2.361,1.0012 1.9045,0.6791 4.31,1.926 7.7144,3.999 3.5162,2.141 6.203,3.5479 7.8018,4.0852 0.6197,0.2082 1.7696,0.7378 2.5553,1.1768 4.1746,2.3325 5.4108,2.732 6.444,2.0824 0.6578,-0.4137 1.2216,-1.539 1.4851,-2.9647 0.1854,-1.0026 0.1715,-1.0792 -0.3841,-2.1216 -0.6902,-1.2949 -2.8666,-3.6403 -4.8528,-5.2295 -0.7932,-0.6347 -2.8886,-2.1307 -4.6565,-3.3244 -7.2417,-4.8901 -10.189,-7.1957 -12.0815,-9.4511 -1.4355,-1.7107 -5.6067,-8.2067 -12.8263,-19.9747 -14.2935,-23.2986 -18.4777,-29.7958 -21.4765,-33.3482 -3.6476,-4.3211 -0.9835,0.2726 12.0514,20.7795 12.0038,18.8847 16.1591,25.624 18.3285,29.7264 1.0644,2.0128 1.3202,2.8423 0.8766,2.8423 -0.3109,0 -2.5178,-2.3064 -4.0581,-4.241 -2.1685,-2.7238 -2.3273,-2.2168 -0.6355,2.0289 0.6384,1.6021 1.1607,2.9561 1.1607,3.0089 0,0.053 -0.1004,0.093 -0.2232,0.09 -0.1228,0 -0.7233,-0.7469 -1.3344,-1.6518 -1.2687,-1.8783 -3.0817,-4.119 -3.2205,-3.9801 -0.051,0.051 0.4311,0.9594 1.0723,2.0178 1.8173,2.9995 2.0821,3.6207 1.5435,3.6207 -0.076,0 -1.0874,-0.8506 -2.247,-1.8903 -3.3791,-3.0292 -3.5271,-2.9083 -1.0371,0.8469 0.933,1.4071 1.6964,2.6595 1.6964,2.783 0,0.4812 -0.5415,0.1681 -2.1597,-1.2485 -2.0036,-1.7541 -2.5988,-2.1659 -2.7579,-1.9085 -0.1486,0.2405 0.7382,1.6965 2.4209,3.9747 2.8106,3.8052 4.6601,7.5076 9.177,18.3713 4.3891,10.5565 6.1731,14.1952 9.0783,18.5173 2.7763,4.1303 4.9834,6.3687 8.8144,8.9393 6.7701,4.5426 15.026,7.3622 27.927,9.5377 4.7724,0.8048 5.6082,0.9103 5.4723,0.6904 -0.06,-0.097 -0.5524,-0.3564 -1.0942,-0.5763 -1.0892,-0.4421 -1.3237,-0.8176 -0.4049,-0.6484 2.7499,0.5064 5.7248,0.8233 7.7232,0.8226 3.8641,0 5.2679,-0.6927 5.2679,-2.5946 0,-0.684 -0.1628,-0.7522 -0.7995,-0.335 -0.8558,0.5608 -1.6876,0.046 -1.4507,-0.8984 0.1429,-0.569 1.8588,-2.4596 2.1467,-2.3651 0.106,0.035 0.233,0.5757 0.2821,1.202 l 0.089,1.1385 2.5,1.0055 c 5.0071,2.014 5.6965,1.8398 2.1992,-0.5555 -0.873,-0.5979 -2.0063,-1.2214 -2.5183,-1.3854 -0.7042,-0.2255 -0.9309,-0.3835 -0.9309,-0.6482 0,-0.882 3.0287,-1.9269 5.625,-1.9406 1.2231,-0.01 1.6638,0.068 2.2696,0.3823 0.6752,0.3507 0.7877,0.5068 1.1053,1.5351 1.1998,3.8846 0.7939,5.642 -1.3028,5.6404 -0.5013,0 -1.9561,-0.2078 -3.2329,-0.4609 -3.3556,-0.6651 -4.8113,-0.5749 -6.9957,0.4334 -3.5062,1.6184 -7.5823,2.2218 -12.2007,1.806 z m -9.3066,-22.3776 c 0.1541,-0.1858 0.1101,-0.3586 -0.1881,-0.7376 -0.3789,-0.4817 -0.4259,-0.4925 -1.742,-0.3984 -1.5269,0.1091 -1.9776,0.2411 -1.9776,0.5793 0,0.6083 3.4562,1.1007 3.9077,0.5567 z m -5.773,-0.3086 c 0.066,-0.1068 0.051,-0.2604 -0.034,-0.3414 -0.243,-0.2323 -1.8956,-0.2947 -1.972,-0.074 -0.155,0.4474 1.7435,0.8408 2.0062,0.4158 z m -4.599,-0.5559 c 0.2799,-0.2799 0.2748,-0.947 -0.01,-1.1582 -0.1228,-0.091 -0.6832,-0.3056 -1.2454,-0.476 -1.3036,-0.395 -2.1028,-1.0485 -2.1028,-1.7193 0,-0.2752 0.1589,-0.8507 0.3532,-1.2788 0.1943,-0.4281 0.355,-1.0088 0.3572,-1.2903 0,-0.4473 0.055,-0.4966 0.4057,-0.3903 0.6964,0.2107 2.7466,0.3276 3.5731,0.2037 0.8291,-0.1244 1.5608,-0.6413 1.5608,-1.1027 0,-0.3969 -0.8576,-1.1351 -1.875,-1.6142 -1.138,-0.5358 -1.517,-0.5591 -1.0704,-0.066 0.1783,0.1971 0.2667,0.4157 0.1964,0.486 -0.1575,0.1576 -1.945,-0.4668 -4.2829,-1.4961 -1.9177,-0.8443 -2.2538,-0.9193 -2.2538,-0.5029 0,0.5192 0.8639,1.9602 1.6023,2.6726 l 0.7403,0.7143 -0.591,0.09 c -0.5537,0.084 -0.5896,0.1325 -0.5699,0.7659 0.046,1.4823 2.3777,4.8822 4.1705,6.081 0.525,0.3511 0.7528,0.3688 1.0406,0.081 z m 6.3765,-1.2155 c 0.726,-0.6025 -0.7475,-0.9533 -2.5585,-0.6089 -1.6939,0.322 -1.9965,0.4143 -1.9965,0.609 0,0.2744 0.5922,0.3416 2.4587,0.2792 1.0925,-0.037 1.9399,-0.1495 2.0963,-0.2793 z m -5.5748,-1.6155 c 1.1065,-0.517 -0.091,-1.2252 -2.1862,-1.2926 -1.1191,-0.036 -1.1577,-0.022 -1.3357,0.4726 -0.1599,0.4448 -0.1268,0.5555 0.2596,0.8688 0.3734,0.3027 0.6247,0.3453 1.6035,0.2714 0.6384,-0.048 1.3848,-0.1922 1.6588,-0.3202 z m 3.6983,-4.7788 c 0,-0.1535 -1.14,-0.7474 -1.4346,-0.7474 -0.3442,0 -0.161,0.352 0.3186,0.6122 0.5401,0.293 1.116,0.3628 1.116,0.1352 z m 0.4196,-2.3147 c -0.077,-1.6794 -4.524,-5.4678 -7.5381,-6.4218 l -0.9578,-0.3032 -0.4261,0.4954 c -1.2139,1.4112 0.3498,3.4917 4.0451,5.3818 2.5624,1.3107 3.1273,1.5131 4.1002,1.4693 0.7876,-0.036 0.803,-0.048 0.7767,-0.6215 z m -4.8969,-1.8215 c -0.741,-0.3917 -1.9512,-1.6682 -1.9512,-2.0581 0,-0.1471 0.049,-0.2674 0.1089,-0.2674 0.2765,0 2.2116,1.1433 2.7181,1.606 1.0536,0.9623 0.4779,1.4352 -0.8758,0.7195 z m -2.1298,0.9843 c 0,-0.5272 -0.8394,-1.5258 -1.8902,-2.2488 -0.4199,-0.2889 -0.8092,-0.5252 -0.8652,-0.5252 -0.2176,0 -0.085,0.7607 0.2449,1.4079 0.739,1.4485 2.5105,2.4125 2.5105,1.3661 z m 8.7009,-1.466 c 0.1035,-0.3105 -1.4786,-2.1135 -3.0386,-3.4628 -0.8062,-0.6973 -1.5281,-1.378 -1.6041,-1.5127 -0.191,-0.3383 1.4723,0.3488 2.6769,1.1058 1.1294,0.7097 2.6493,1.4902 2.9018,1.4902 0.8097,0 -1.1275,-2.1923 -3.5575,-4.026 -2.0669,-1.5596 -4.4723,-2.8051 -4.4723,-2.3157 0,0.048 0.3562,0.7308 0.7916,1.5179 0.4354,0.787 0.7443,1.431 0.6866,1.431 -0.058,0 -0.8963,-0.5269 -1.8636,-1.1709 -0.9673,-0.6439 -1.8405,-1.1203 -1.9403,-1.0586 -0.1106,0.068 0.04,0.5272 0.3847,1.1745 1.0195,1.9129 4.1357,4.6677 7.1196,6.2941 1.5001,0.8177 1.7932,0.8993 1.9152,0.5332 z m 0.5149,-6.4176 c -2.2581,-2.1093 -6.7646,-5.2528 -8.4569,-5.8991 -0.6753,-0.2579 -0.8131,-0.2649 -0.9502,-0.048 -0.5181,0.8185 0.3574,1.7592 2.9695,3.1906 0.9764,0.5351 2.4182,1.3908 3.2039,1.9016 3.9326,2.5565 5.4983,2.9706 3.2337,0.8552 z m 1.9288,-0.9357 c 0.3111,-0.5035 -3.0813,-4.245 -5.907,-6.5147 -1.89,-1.5182 -4.0991,-2.7972 -4.8314,-2.7972 -1.2716,0 -1.6348,0.6341 -0.9301,1.6238 0.4949,0.695 2.6469,2.3394 6.3698,4.8674 3.8901,2.6415 5.0333,3.25 5.2987,2.8207 z m -0.6448,-4.0746 c 0.082,-0.5537 -1.6357,-2.9712 -3.3449,-4.7071 -2.27,-2.3055 -4.6265,-3.9117 -6.4942,-4.4265 -0.6373,-0.1756 -0.6889,-0.1599 -0.8482,0.2591 -0.2858,0.7517 -0.1915,1.441 0.2726,1.9925 0.2432,0.2891 1.5892,1.3167 2.9911,2.2836 1.4018,0.9669 3.1972,2.2999 3.9896,2.9622 1.502,1.2554 2.8961,2.1489 3.2021,2.0523 0.098,-0.031 0.2026,-0.2182 0.2319,-0.4161 z m 0.3931,-3.9944 c 0,-0.5508 -1.209,-2.337 -2.9465,-4.3535 -1.2963,-1.5045 -4.0392,-3.7377 -5.5389,-4.5097 -1.4822,-0.763 -1.7163,-0.7078 -2.075,0.4894 -0.3398,1.134 -0.054,1.512 2.3056,3.0459 1.1517,0.7487 2.3543,1.4937 2.6725,1.6554 0.3181,0.1616 1.1619,0.8231 1.875,1.4698 2.0864,1.8923 3.7073,2.8553 3.7073,2.2027 z m -0.1786,-3.8142 c 0,-0.3258 -1.0256,-1.8442 -2.2925,-3.3941 -2.4392,-2.9842 -6.8957,-6.0249 -7.1357,-4.8687 -0.1958,0.9438 0.6308,2.0191 2.7967,3.638 0.75,0.5606 1.9744,1.5698 2.7209,2.2426 2.5465,2.2952 3.9106,3.1261 3.9106,2.3822 z m 0.052,-2.8978 c 0.7029,-0.7029 -6.2282,-9.8098 -8.6776,-11.4017 -0.7143,-0.4642 -0.885,-0.1855 -0.8924,1.4568 -0.01,2.1968 0.7005,3.2097 3.1153,4.4422 0.5158,0.2632 1.4956,1.1369 2.5893,2.3087 1.6399,1.7572 3.3399,3.306 3.6287,3.306 0.069,0 0.1751,-0.05 0.2367,-0.112 z m -0.4069,-4.411 c -1.5966,-2.6343 -8.8362,-12.6199 -9.1496,-12.6199 -0.2953,0 -0.073,3.3751 0.2654,4.0271 0.3015,0.5812 0.926,1.1798 3.4087,3.2676 0.9311,0.7831 2.0594,1.9717 2.7967,2.9464 1.3804,1.8251 3.0064,3.5954 3.1605,3.4412 0.055,-0.055 -0.1612,-0.5336 -0.4817,-1.0624 z m 4.1044,0.2819 c 0,-0.3547 -0.9585,-3.562 -1.5871,-5.3125 -1.5635,-4.3542 -3.3679,-8.1733 -4.6682,-9.8803 -0.5049,-0.6628 -0.9137,-1.5281 -1.347,-2.8508 -1.6643,-5.0807 -6.8265,-13.5598 -14.5088,-23.8314 -1.2304,-1.6451 -2.3034,-2.9911 -2.3844,-2.9911 -0.2745,0 -0.1406,0.9776 0.2708,1.9777 0.2252,0.5476 1.0165,1.8735 1.7584,2.9464 0.7419,1.073 1.5525,2.355 1.8013,2.8488 0.2488,0.4938 1.0065,1.6188 1.6838,2.5 4.4383,5.7743 7.0354,10.4226 13.6164,24.37 1.7841,3.7812 3.6144,7.6585 4.0674,8.6161 0.4529,0.9575 0.9301,1.741 1.0605,1.741 0.1303,0 0.2369,-0.06 0.2369,-0.1339 z m -56.6071,-0.5585 c 0,-0.18 -1.4513,-1.9678 -8.5855,-10.5756 -14.0313,-16.9296 -22.4151,-27.2409 -26.593,-32.707 -1.7693,-2.3148 -2.5148,-3.0032 -2.2218,-2.0518 0.4275,1.3884 3.5531,7.0849 5.311,9.6795 3.4109,5.0343 10.6444,13.9489 17.2493,21.258 5.5144,6.1025 11.8419,12.4222 14.1209,14.1036 0.6782,0.5003 0.7191,0.5171 0.7191,0.2933 z m 50.8388,-5.127 c 0.081,-0.2432 -3.5142,-5.648 -5.3405,-8.0287 -1.8252,-2.3794 -2.5798,-3.2304 -2.7323,-3.0815 -0.2699,0.2636 0.6722,2.4127 1.7762,4.0519 1.191,1.7682 5.1819,6.97 5.53,7.2079 0.2591,0.177 0.6855,0.094 0.7666,-0.1496 z m -1.9777,-6.2801 c -1.9815,-3.9454 -4.2121,-7.4082 -6.0669,-9.4183 -0.8907,-0.9654 -1.2027,-1.2025 -1.37,-1.0413 -0.5256,0.5065 0.4163,2.6803 2.1644,4.9954 1.4035,1.8586 5.9148,7.2271 6.0008,7.141 0.042,-0.042 -0.2861,-0.7962 -0.7283,-1.6768 z m -4.5845,-10.1773 c -0.3015,-0.8276 -1.0234,-2.1241 -3.3269,-5.9755 -2.1548,-3.6025 -2.4645,-4.0424 -2.6886,-3.8182 -0.1801,0.18 1.0081,3.4637 2.0092,5.5527 0.781,1.6297 1.1698,2.2 2.2821,3.3482 1.4142,1.4597 2.0508,1.7894 1.7242,0.8928 z m -16.1261,-28.5287 c 0.061,-0.159 -0.1628,-0.5949 -0.5447,-1.061 -0.76,-0.9276 -0.7445,-0.9242 -5.0365,-1.0903 l -2.8772,-0.1114 -0.3991,0.6458 c -0.2195,0.3552 -0.3577,0.7536 -0.3071,0.8855 0.1369,0.3569 0.7431,0.4377 4.8444,0.6452 2.0576,0.1041 3.7786,0.2268 3.8245,0.2726 0.1647,0.1647 0.3941,0.078 0.4957,-0.1864 z m 9.4321,0.062 c 0.2996,-0.1365 0.5126,-0.4279 0.62,-0.8482 0.6239,-2.4421 0.4769,-2.2411 3.9042,-5.3407 0.9038,-0.8174 1.6432,-1.5416 1.6432,-1.6095 0,-0.068 -0.7426,-0.5202 -1.6503,-1.0052 -1.329,-0.7101 -1.8246,-0.8835 -2.5447,-0.8905 -1.2783,-0.012 -1.8186,0.444 -2.8701,2.4239 -1.2237,2.3042 -2.2661,3.3886 -4.1202,4.286 -0.9634,0.4664 -1.4517,0.7974 -1.3732,0.9311 0.067,0.1142 0.4737,0.6696 0.9041,1.2343 l 0.7825,1.0268 2.124,0 c 1.2359,0 2.3149,-0.087 2.5805,-0.208 z m 4.4506,-1.9916 c 1.288,-0.8169 2.6401,-1.6653 3.0047,-1.8853 0.8792,-0.5307 1.6391,-1.518 2.3104,-3.0021 0.6068,-1.3411 0.8205,-1.566 1.1938,-1.2562 0.1842,0.153 0.2256,0.4817 0.1564,1.2443 -0.094,1.0351 -0.093,1.0368 0.4927,1.2816 1.1136,0.4653 0.9781,1.0568 -0.2809,1.2257 -0.7282,0.098 -2.6603,1.2263 -2.6603,1.5541 0,0.2613 1.222,0.8313 2.4819,1.1578 1.444,0.3742 3.9951,0.388 5.2283,0.028 1.0608,-0.3094 2.4684,-1.1507 2.4684,-1.4752 0,-0.1186 -0.3994,-0.2661 -0.9107,-0.3365 -0.6337,-0.087 -1.0238,-0.2552 -1.2822,-0.5524 -0.2043,-0.235 -0.48,-0.4272 -0.6127,-0.4272 -0.6189,0 -0.3462,-1.5591 0.359,-2.0531 0.5679,-0.3977 1.7694,-0.3418 2.3427,0.1091 0.6389,0.5026 0.7407,0.341 0.3113,-0.4941 -0.9148,-1.7789 -3.1429,-2.7467 -4.411,-1.9158 -0.6078,0.3983 -1.0402,0.058 -0.876,-0.6902 0.1046,-0.476 -0.019,-0.6545 -1.376,-1.9925 -1.8289,-1.803 -5.1404,-4.0514 -7.8626,-5.3383 -2.7249,-1.2882 -5.0884,-2.7802 -6.0519,-3.8203 -0.4373,-0.4721 -1.3507,-1.7588 -2.0297,-2.8592 -1.5317,-2.4824 -2.3978,-3.5643 -1.4675,-1.8331 1.7723,3.2981 2.2602,4.3339 2.2602,4.7986 0,0.2802 0.1264,0.812 0.2808,1.1817 0.341,0.8161 0.211,1.5143 -0.2818,1.5143 -0.2348,0 -0.4407,-0.2138 -0.6206,-0.6444 l -0.2693,-0.6444 -0.6322,0.5551 c -0.3477,0.3053 -0.6903,0.5551 -0.7612,0.5551 -0.2371,0 -6.3565,-3.7103 -7.8571,-4.764 -1.9411,-1.3628 -2.8934,-1.9543 -3.3854,-2.103 -1.1728,-0.3542 0.4009,0.9612 3.5318,2.9522 6.175,3.9268 8.5877,5.9969 10.91,9.3613 l 1.3558,1.9642 1.5372,-0.061 c 1.1041,-0.044 1.8029,0.025 2.4806,0.2447 1.3112,0.4249 2.7776,1.2811 2.9103,1.6992 0.082,0.2578 0.2171,0.3233 0.514,0.2488 0.2554,-0.064 0.4919,0.01 0.6461,0.1919 0.2074,0.2499 0.1935,0.3851 -0.094,0.9196 -0.3947,0.733 -1.9314,2.1803 -3.2318,3.0438 -0.893,0.593 -1.634,1.5617 -2.2641,2.9601 -0.1675,0.3716 -0.3045,0.7131 -0.3045,0.7589 0,0.2603 0.6473,-0.07 2.7474,-1.4021 z m 12.9727,-3.8388 c -0.2252,-0.077 -0.8987,0.2983 -0.8987,0.5007 0,0.09 0.2392,0.027 0.5316,-0.1402 0.2925,-0.1673 0.4576,-0.3295 0.3671,-0.3605 z m -2.7632,-6.3666 c 0.299,-0.2262 0.3057,-0.263 0.049,-0.2679 -0.4583,-0.01 -0.8719,0.1922 -0.7619,0.3702 0.139,0.2249 0.3137,0.1998 0.7132,-0.1023 z m 0.1491,-1.9036 c 1.6918,-1.5829 2.0035,-2.0433 2.1778,-3.2173 0.1411,-0.9499 0.5222,-1.6033 0.8596,-1.4739 0.6344,0.2435 0.3965,2.2728 -0.4424,3.7739 -0.2874,0.5141 -0.5225,1.0098 -0.5225,1.1015 0,0.2402 1.2119,0.9547 1.4109,0.8318 0.4625,-0.2859 0.5517,-2.0018 0.3749,-7.2106 -0.2839,-8.361 -0.535,-10.427 -1.8051,-14.8539 -0.5673,-1.9774 -0.7761,-2.3899 -0.9351,-1.8484 -0.3435,1.1694 -0.437,2.4768 -0.2865,4.0077 0.091,0.924 0.2491,2.8451 0.3517,4.2692 0.1026,1.4241 0.2539,3.3012 0.3362,4.1713 0.1433,1.5163 0.033,2.6793 -0.2813,2.9761 -0.081,0.077 -0.3048,0.1677 -0.4966,0.2022 -0.2411,0.043 -0.4065,0.2947 -0.5357,0.8139 -0.2354,0.9457 -0.5192,1.2607 -0.8721,0.9678 -0.1397,-0.1159 -0.303,-0.456 -0.363,-0.7558 -0.079,-0.397 -0.1944,-0.5281 -0.4233,-0.4825 -0.2639,0.053 -0.3143,0.2621 -0.3143,1.3081 0,1.0908 -0.046,1.2657 -0.3721,1.4089 -0.2047,0.09 -0.4458,0.3287 -0.5357,0.5305 -0.096,0.216 -0.4091,0.4163 -0.7605,0.4869 -0.7185,0.1445 -0.8254,0.2419 -1.1695,1.0661 l -0.2671,0.6399 1.5525,1.3548 c 0.8538,0.7451 1.6009,1.3612 1.6601,1.369 0.059,0.01 0.8058,-0.6389 1.6591,-1.4372 z m 23.8582,116.1387 c -0.5006,-0.2501 -0.6364,-0.4314 -0.6823,-0.911 -0.049,-0.5128 0.06,-0.7116 0.7621,-1.3839 0.4507,-0.4319 0.9264,-0.7852 1.0573,-0.7852 0.3451,0 1.6585,0.9901 1.9953,1.504 0.1584,0.2418 0.2618,0.6251 0.2296,0.8518 -0.075,0.5277 -1.0676,1.0365 -2.0227,1.0365 -0.3928,0 -0.9955,-0.1405 -1.3393,-0.3122 z m 2.2379,-0.7766 c 0.133,-0.4191 -0.1376,-0.8014 -0.4366,-0.6167 -0.1068,0.066 -0.1941,0.3162 -0.1941,0.5559 0,0.54 0.4644,0.5848 0.6307,0.061 z m -8.5665,-25.8976 c -0.3871,-0.09 -0.7372,-0.1979 -0.7781,-0.2389 -0.041,-0.041 0.1779,-0.5155 0.4864,-1.0546 1.1027,-1.9273 2.9616,-3.2303 6.7688,-4.7445 2.4512,-0.9749 3.5027,-1.5141 4.6264,-2.3724 0.9702,-0.7409 1.7056,-1.0023 6.0287,-2.1426 1.6943,-0.4469 2.5167,-0.5672 3.9286,-0.5751 l 1.7857,-0.01 1.2182,0.742 c 0.67,0.4081 1.2536,0.7774 1.2968,0.8206 0.1208,0.1208 -0.6356,1.741 -0.8127,1.741 -0.086,0 -0.2078,-0.2355 -0.271,-0.5234 -0.063,-0.2879 -0.2336,-0.6219 -0.3787,-0.7422 -0.2161,-0.1794 -0.3684,-0.1173 -0.8452,0.3448 -0.9447,0.9156 -1.1983,0.7893 -1.4678,-0.731 -0.065,-0.3683 -0.1911,-0.6697 -0.2796,-0.6697 -0.089,0 -0.3367,0.3616 -0.5515,0.8036 -0.3766,0.7753 -0.7135,0.9983 -0.9442,0.625 -0.1861,-0.3011 -0.6198,-0.2007 -1.268,0.2937 -0.5269,0.4019 -0.684,0.4428 -1.0536,0.2744 -0.366,-0.1667 -0.5126,-0.1326 -0.9314,0.2169 -1.1567,0.9653 -1.5818,1.0716 -5.0119,1.2538 -1.2388,0.066 -1.5335,0.2471 -2.369,1.4583 -0.6405,0.9284 -2.3066,1.7331 -3.4131,1.6485 -0.6884,-0.053 -0.749,-0.019 -0.9339,0.5183 -0.1087,0.316 -0.3239,0.7005 -0.4782,0.8545 -0.2546,0.2541 -0.3249,0.2448 -0.7641,-0.1007 -0.2661,-0.2092 -0.6019,-0.3351 -0.7463,-0.2797 -0.3422,0.1314 -0.3368,0.8055 0.01,1.1882 0.7751,0.8565 -1.1444,1.8 -2.8508,1.4011 z m -79.4948,-85.947 c -0.1647,-0.4292 0.4996,-1.5697 1.4444,-2.4798 0.598,-0.5759 1.5516,-1.1836 2.8612,-1.8232 2.5756,-1.2579 3.8431,-1.5763 5.8369,-1.4662 l 1.5511,0.086 0.5572,-0.6933 c 0.3064,-0.3814 0.9745,-0.9038 1.4846,-1.161 0.5957,-0.3005 1.8347,-1.3506 3.4647,-2.9366 2.8713,-2.7938 4.8733,-4.1514 4.8733,-3.3047 0,0.1381 -0.3915,0.5324 -0.87,0.8761 -0.7767,0.558 -3.487,3.9105 -4.1117,5.0859 -0.1197,0.2252 -0.418,1.3785 -0.663,2.5628 -0.4842,2.3415 -1.0089,3.9279 -1.4089,4.2599 -0.1994,0.1654 -0.7683,0.086 -2.6272,-0.3666 -2.0233,-0.4926 -2.7145,-0.5797 -4.6942,-0.5912 -2.7,-0.016 -3.4611,0.1708 -5.7166,1.4003 -1.607,0.876 -1.8333,0.939 -1.9818,0.552 z m 5.0844,-2.188 c 1.5661,-0.4186 1.9223,-0.4504 3.9533,-0.3532 1.2277,0.059 2.6741,0.2289 3.2143,0.3781 2.0097,0.5553 2.5,0.3222 2.5,-1.1885 0,-0.4998 0.1936,-1.1701 0.5472,-1.895 0.6443,-1.3205 0.6277,-1.7077 -0.077,-1.7885 -0.9161,-0.1051 -1.5073,0.3121 -2.6132,1.8439 -1.0242,1.4188 -1.8704,2.2072 -2.1108,1.9668 -0.064,-0.064 0.064,-0.4274 0.2833,-0.8086 0.2194,-0.3812 0.3989,-0.7776 0.3989,-0.8809 0,-0.316 -2.3397,-0.2139 -3.8554,0.1683 -1.856,0.4679 -4.092,1.5815 -5.2302,2.6048 -1.2667,1.1388 -1.2087,1.4193 0.1769,0.8563 0.6003,-0.2439 1.8659,-0.6505 2.8125,-0.9035 z m -9.9852,-13.7349 c -0.8707,-0.657 -1.9428,-1.094 -3.2429,-1.322 -1.5274,-0.2679 -1.7471,-0.3445 -1.7471,-0.6091 0,-0.407 0.6323,-0.8146 1.5314,-0.987 0.6996,-0.1341 1.1875,-0.095 2.3874,0.1915 1.788,0.427 2.2943,0.3622 3.9133,-0.5005 1.0748,-0.5727 1.28,-0.6221 2.1938,-0.5286 1.1532,0.118 1.9383,0.4235 1.9383,0.7542 0,0.2888 -0.2795,0.3681 -2.1428,0.6078 -2.5922,0.3334 -3.2835,0.6648 -3.4854,1.6709 -0.2789,1.3902 -0.3855,1.4475 -1.346,0.7228 z m 0.1563,-1.1699 c -0.087,-0.5867 -0.903,-1.084 -1.942,-1.1838 -1.1474,-0.1103 -1.1688,0.2568 -0.035,0.5917 0.4073,0.1203 0.9657,0.3865 1.2408,0.5917 0.6398,0.4771 0.8067,0.4773 0.7358,5e-4 z m 14.2349,0.544 c -0.3472,-0.3048 -0.6312,-0.6377 -0.6312,-0.7397 0,-0.102 0.3616,-0.6087 0.8035,-1.126 0.442,-0.5174 0.8036,-1.0766 0.8036,-1.2428 0,-0.3906 -1.7535,-3.6734 -3.0035,-5.623 -1.399,-2.1821 -2.4842,-3.5082 -3.0689,-3.7504 -0.28,-0.116 -0.5528,-0.3248 -0.6062,-0.4639 -0.1008,-0.2629 0.1639,-1.1429 0.3438,-1.1429 0.7823,0 5.1339,4.4408 7.8267,7.9873 1.0159,1.3379 1.3652,2.1226 1.3652,3.0664 0,0.5199 0.083,0.7326 0.3125,0.8008 0.1719,0.051 1.8393,0.3402 3.7054,0.6425 1.8661,0.3024 3.649,0.6322 3.9621,0.733 0.6247,0.2011 1.4843,0.8137 1.4843,1.0578 0,0.3335 -1.6729,0.373 -4.5639,0.1078 -3.7411,-0.3433 -6.5586,-0.3446 -7.3775,0 -0.754,0.314 -0.618,0.3445 -1.3559,-0.3034 z m 1.4552,-0.7117 c 0.4239,-0.2052 0.7707,-0.4041 0.7707,-0.4419 0,-0.1758 -1.0776,-0.6 -1.3038,-0.5133 -0.4905,0.1883 -0.7902,1.3282 -0.3492,1.3282 0.061,0 0.4585,-0.1678 0.8823,-0.373 z m 6.8007,0.1596 c -0.093,-0.2781 -0.8068,-0.4682 -2.4586,-0.6545 -1.4549,-0.1642 -1.7857,-0.1166 -1.7857,0.2569 0,0.3651 0.9751,0.5769 2.7381,0.5949 1.1499,0.012 1.5581,-0.042 1.5062,-0.1973 z m -4.9586,-1.1258 c 0,-0.1489 -0.1587,-0.2679 -0.3571,-0.2679 -0.3952,0 -0.4839,0.2762 -0.1339,0.4174 0.3885,0.1568 0.491,0.1256 0.491,-0.1495 z m -0.071,-1.5899 c 0.2235,-0.5823 -1.0414,-2.4981 -3.7843,-5.7316 -1.9371,-2.2834 -2.8712,-3.2435 -3.0155,-3.0992 -0.049,0.049 0.2753,0.6056 0.7206,1.237 0.4454,0.6314 1.4689,2.3087 2.2747,3.7274 0.8058,1.4186 1.7928,2.9253 2.1933,3.3482 0.7366,0.7775 1.4266,0.9994 1.6112,0.5182 z m -23.4279,-4.0541 c -0.4549,-0.5031 -1.2905,-0.9109 -3.0722,-1.4997 -1.1243,-0.3715 -1.4689,-0.5598 -1.4274,-0.7802 0.042,-0.2206 0.3839,-0.3289 1.4243,-0.4505 1.2032,-0.1406 1.5456,-0.1092 2.8192,0.2588 l 1.4496,0.4189 1.7857,-0.9285 c 1.6158,-0.8401 1.8959,-0.9284 2.9448,-0.9284 1.0803,0 1.1469,0.023 0.9789,0.3367 -0.2862,0.5348 -2.094,1.6422 -3.2545,1.9936 -1.2553,0.3801 -1.5778,0.6127 -1.5778,1.138 0,0.5618 -0.3375,0.8174 -1.0795,0.8174 -0.4352,0 -0.7637,-0.1247 -0.9911,-0.3761 z m -0.2954,-1.4543 c -0.041,-0.1227 -0.2258,-0.2525 -0.411,-0.2884 -0.2913,-0.056 -0.3044,-0.026 -0.097,0.2232 0.2833,0.3413 0.6143,0.3838 0.5083,0.065 z m 5.496,-1.2095 c 0.4314,-0.3581 0.086,-0.5782 -0.7581,-0.483 -0.8694,0.098 -1.236,0.3367 -1.0297,0.6706 0.1603,0.2593 1.407,0.1285 1.7878,-0.1876 z m 26.0664,-6.7293 c -2.8804,-3.0487 -3.538,-3.8022 -3.3182,-3.8022 0.2926,0 2.8938,2.5367 4.0487,3.9484 0.5536,0.6766 1.1097,1.2301 1.2359,1.2301 0.3896,0 3.5769,-1.6641 3.3391,-1.7434 -0.1231,-0.041 -0.4752,0.013 -0.7824,0.1201 -0.3072,0.1071 -0.9473,0.1948 -1.4225,0.1948 -0.8511,0 -0.8885,-0.025 -2.5218,-1.6518 -1.4937,-1.4882 -3.6717,-3.1697 -4.1056,-3.1697 -0.092,0 -0.2092,0.1598 -0.2602,0.3552 -0.1328,0.5077 -0.4094,0.2568 -0.4094,-0.3713 0,-0.3014 0.113,-0.5742 0.2615,-0.6312 0.4848,-0.186 2.2304,1.0213 4.1851,2.8943 1.3062,1.2517 2.1208,1.8969 2.4875,1.9702 0.7414,0.1483 2.1272,-0.2052 4.0342,-1.0289 1.1878,-0.5131 1.8353,-0.6883 2.5446,-0.6883 0.8195,0 0.9513,0.048 0.9513,0.3433 0,0.2391 -0.2033,0.4093 -0.6696,0.5606 -0.3683,0.1195 -2.0759,0.9279 -3.7946,1.7966 -1.7188,0.8686 -3.2858,1.6182 -3.4822,1.6658 -0.2752,0.067 -0.8079,-0.3906 -2.3214,-1.9926 z m -20.9945,-3.1027 c -1.4267,-1.0724 -2.1977,-1.4189 -3.9627,-1.7805 -1.495,-0.3063 -2.0964,-0.562 -2.0964,-0.8915 0,-0.079 0.2068,-0.3887 0.4595,-0.689 0.5819,-0.6916 1.5992,-0.9755 2.9383,-0.8201 0.9186,0.1066 1.3397,0.289 2.3632,1.0236 0.2722,0.1954 0.3964,0.1366 0.9217,-0.4364 0.3338,-0.3643 0.8351,-0.7125 1.1139,-0.7738 0.2789,-0.061 0.8686,-0.2281 1.3106,-0.3705 0.4419,-0.1425 1.2571,-0.307 1.8115,-0.3658 0.8694,-0.092 1.0321,-0.061 1.1842,0.2292 0.3763,0.7171 -0.3386,1.5204 -1.5523,1.7443 -1.0709,0.1975 -1.6988,0.8495 -2.3327,2.422 -0.4071,1.0099 -0.6701,1.4375 -0.8843,1.4375 -0.1676,0 -0.7412,-0.328 -1.2745,-0.729 z m 1.4571,-0.353 c 0.072,-0.1415 0.2716,-0.659 0.4434,-1.1501 0.4277,-1.2224 1.4469,-2.2321 2.2531,-2.2321 0.6928,0 1.3971,-0.4027 1.0643,-0.6084 -0.3046,-0.1882 -3.6111,0.7996 -4.0093,1.1978 -0.2695,0.2695 -0.319,0.4912 -0.2317,1.0374 0.1551,0.97 -0.1123,0.9042 -1.5316,-0.3768 -1.0851,-0.9793 -1.2538,-1.0697 -1.9619,-1.0504 -2.2814,0.062 -2.4587,0.5861 -0.384,1.1351 1.4922,0.3949 2.4525,0.933 3.3653,1.8857 0.5341,0.5575 0.7712,0.5961 0.9924,0.1618 z"
         style="fill:#000000" />
      <text
         xml:space="preserve"
         style="font-size:41.06423187000000041px;font-style:normal;font-weight:normal;line-height:125%;letter-spacing:0px;word-spacing:0px;fill:#000000;fill-opacity:0.94117647000000004;stroke:none;font-family:Sans"
         x="3495.2136"
         y="1345.1818"
         id="text2986"
         sodipodi:linespacing="125%"
         transform="scale(0.99968281,1.0003173)"><tspan
           sodipodi:role="line"
           id="tspan2988"
           x="3495.2136"
           y="1345.1818"
           style="font-style:normal;font-variant:normal;font-weight:bold;font-stretch:normal;font-family:Noto Sans;-inkscape-font-specification:Noto Sans Bold;fill:#000000;fill-opacity:0.94117647000000004">mach-politik.ch</tspan></text>
      <text
         xml:space="preserve"
         style="font-size:41.06423187000000041px;font-style:normal;font-weight:normal;line-height:125%;letter-spacing:0px;word-spacing:0px;fill:#000000;fill-opacity:0.94117647000000004;stroke:none;font-family:Sans"
         x="3837.0732"
         y="1360.9484"
         id="text2986-2"
         sodipodi:linespacing="125%"
         transform="scale(0.99968281,1.0003173)"><tspan
           sodipodi:role="line"
           id="tspan2988-8"
           x="3837.0732"
           y="1360.9484"
           style="font-style:normal;font-variant:normal;font-weight:bold;font-stretch:normal;font-family:Noto Sans;-inkscape-font-specification:Noto Sans Bold;fill:#000000;fill-opacity:0.94117647000000004">ma-politique.ch</tspan></text>
      <text
         xml:space="preserve"
         style="font-size:41.06423187000000041px;font-style:normal;font-weight:normal;line-height:125%;letter-spacing:0px;word-spacing:0px;fill:#000000;fill-opacity:0.94117647000000004;stroke:none;font-family:Sans"
         x="3495.2136"
         y="1427.3102"
         id="text2986-2-7"
         sodipodi:linespacing="125%"
         transform="scale(0.99968281,1.0003173)"><tspan
           sodipodi:role="line"
           id="tspan2988-8-4"
           x="3495.2136"
           y="1427.3102"
           style="font-style:normal;font-variant:normal;font-weight:bold;font-stretch:normal;font-family:Noto Sans;-inkscape-font-specification:Noto Sans Bold;fill:#000000;fill-opacity:0.94117647000000004">make-politics.ch</tspan></text>
      <text
         xml:space="preserve"
         style="font-size:41.06423187000000041px;font-style:normal;font-weight:normal;line-height:125%;letter-spacing:0px;word-spacing:0px;fill:#000000;fill-opacity:0.94117647000000004;stroke:none;font-family:Sans"
         x="3842.2063"
         y="1447.8423"
         id="text2986-2-7-2"
         sodipodi:linespacing="125%"
         transform="scale(0.99968281,1.0003173)"><tspan
           sodipodi:role="line"
           id="tspan2988-8-4-3"
           x="3842.2063"
           y="1447.8423"
           style="font-style:normal;font-variant:normal;font-weight:bold;font-stretch:normal;font-family:Noto Sans;-inkscape-font-specification:Noto Sans Bold;fill:#000000;fill-opacity:0.94117647000000004">mia-politica.ch</tspan></text>
    </g>
  </g>
</svg>
