<svg xmlns="http://www.w3.org/2000/svg" width="1400" height="1400">
  <path fill="#87ceeb" d="M667.25664845 1399.72197218c-2.14366405-.19787102-11.13243717-.83228527-19.97505137-1.40992844-19.70699593-1.28723283-48.55681648-4.89536037-70.64347438-8.8351556-124.5796209-22.22231858-238.37534492-76.61834933-335.67830237-160.45938067-17.113065-14.74548138-53.20749563-50.61797952-67.72662968-67.31023135C81.0598264 1055.73789545 23.8320837 929.53318356 5.66102307 792.15967465c-4.27056854-32.2851899-5.661027-54.88795254-5.661027-92.02171293 0-37.1190272 1.3895815-59.78404324 5.6416366-92.02171293C23.57835183 472.12814866 80.05415562 346.6949585 170.7137033 241.49005917c15.6108437-18.11546258 52.07495895-54.57505924 70.24611703-70.23737875 117.7428916-101.4865697 256.93967047-158.71814485 413.142526-169.8659278 40.5657241-2.89507127 93.73814157-1.1809356 137.38937775 4.42906833C972.817153 29.11949692 1139.33064285 124.55777642 1253.1105817 270.39565672c77.30374115 99.0843648 126.6234097 218.13642856 141.92429905 342.58946577 4.08621344 33.2354285 4.9651157 48.6636136 4.9651157 87.15283922 0 38.4892256-.87890226 53.91741072-4.9651157 87.15283923-35.5710843 289.3245328-250.24296142 527.99974027-534.8484678 594.65228416-31.83078028 7.45453778-66.3673518 12.94010302-100.84964962 16.01820498-14.8338629 1.3241389-82.741145 2.6226675-92.08011488 1.7606821zm174.3675826-234.05143287c-.5091202-.49808577-3.0982766-1.75347617-5.75369174-2.78976725-5.078535-1.98172897-7.41142612-4.57771505-3.3061146-3.67892096 23.1115242 5.06012305 56.27351987 6.66655923 65.35203456 3.16583904 5.8903016-2.27142695 9.52800207-6.49916737 9.52800207-11.07337683 0-3.13039365-.201407-3.3834777-2.1923837-2.75549037-7.44786842 2.34913418-10.47472205 1.36153184-10.47472205-3.41746245 0-4.7733464 11.0184332-16.54706203 13.32676964-14.24028704.3644229.36419175.7187121 3.17664795.78730934 6.24988103l.12491715 5.58771422 5.79120588 2.83193168c6.25355523 3.0580422 23.55370363 9.67269925 28.0374693 10.72009136 2.2762789.531681 2.70169878.3496825 2.43364334-1.04115995-.48943748-2.53950715-18.93498455-14.77878448-24.87244678-16.50382644-2.8218414-.81982095-5.359355-1.86039664-5.63890828-2.31252025-2.668472-4.31489324 12.28884648-10.80218056 28.34372095-12.2934192 5.0722989-.4711122 8.29607732-.2114065 12.48616102 1.0059093 3.10655897.90249444 5.8138118 1.47565825 6.01599828 1.2736 1.18992843-1.1892711 2.44085384-16.94075916 1.87453677-23.60537085-1.5545462-18.29342965-6.71434556-30.8499628-17.2064118-41.87231382-17.8325566-18.7336732-46.78166777-23.30145576-76.12024372-12.01053765l-7.5644058 2.91119696-2.98505218-2.51019652c-1.6418518-1.38061783-3.46503806-2.51019652-4.0516225-2.51019652-2.67607224 0-4.96803887 4.18041495-8.59443637 15.67543625-3.86561092 12.2532023-6.60102368 17.4329049-9.2065499 17.4329049-.7350819 0-2.4628751-.98594692-3.83959463-2.19099316l-2.5030201-2.19099317 3.05160322-7.79019792c5.23054027-13.35239923 9.45326613-33.63671133 10.8454785-52.09694858.33548342-4.44761875 1.7932724-3.5849517 3.76174064 2.2258543 3.70366685 10.93334802 13.6829102 20.74432328 23.56744257 23.16989878 8.8145517 2.16304583 16.8905137-.50383105 26.21262657-8.6561758 4.2491319-3.71602178 7.95221412-5.6474066 18.87398757-9.84427835 55.58978846-21.36091745 70.27466672-28.66997327 84.80763715-42.21099268 9.04051336-8.423541 14.33935858-16.2553191 16.96963436-25.08161335 1.84218694-6.18191156 2.71680187-19.45231896 1.28200855-19.45231896-.36286385 0-1.8932451 1.42414556-3.400923 3.1647679-2.63388105 3.04100114-2.79709184 3.09280595-4.1761499 1.32374938-.78925812-1.01262835-2.15331054-5.06742637-3.03114096-9.01082455-.87792787-3.9433982-1.9406006-7.38257583-2.3616357-7.64257368-1.08976086-.6730731-2.49541984 1.3643558-3.85791323 5.59190144-.64738653 2.0084104-1.49052858 3.65165528-1.8736598 3.65165528-.38322867 0-1.22451937-1.97189385-1.86956738-4.38198633-1.42875208-5.33852525-3.2098446-5.62948914-7.71991887-1.2609409-2.92580912 2.83397662-3.3626294 2.9806271-4.7494826 1.5946535-.84002398-.8394912-1.7729076-3.35601725-2.07302056-5.59229094-.3143391-2.34192825-1.00567077-3.92236466-1.6304514-3.7276097-.92732958.2891137-3.849436 5.1226394-4.7869967 7.91834667-.1622364.4837713-1.48516943.1002988-2.9399378-.85224765-2.59685413-1.70050283-2.71495053-1.68346177-6.4988099.93706343-2.8235953 1.95553444-4.52098747 2.50182207-6.3490457 2.04327154-1.82162726-.4568951-3.3557112.03018702-5.68363292 1.80469673-4.60829308 3.51269762-9.90460487 5.48887608-14.58636715 5.4425244-2.2482164-.02239682-7.4403656.29037963-11.53807687.69488565-8.20351.80979108-10.22859046 2.01522683-13.67267907 8.13929617-2.6344657 4.68444075-12.43208223 9.18931745-18.28097215 8.40523403-3.71155943-.4975015-3.7985727-.43595895-5.43389605 3.84339153-2.00033088 5.2346235-3.33544382 5.89893262-7.23204043 3.59858455-2.34244017-1.3828575-3.21491144-1.49902883-4.1602673-.55436995-.9452584.94475625-.81313074 1.90626143.6301398 4.58462885 1.7239931 3.19914215 1.7331524 3.49215097.1635031 5.22547-2.8389907 3.13516516-9.61949754 4.47975332-15.71549346 3.1163713l-5.2678595-1.17826742 2.6446968-4.8909784c6.0910265-11.2650157 15.55491353-18.17492125 36.37836867-26.56145882 15.4734543-6.2318662 20.41333324-8.77409992 27.65297393-14.23084143 4.0660435-3.06476124 7.5316662-4.39532704 20.94944413-8.04337935 21.32741107-5.79853644 25.08086938-6.52331698 33.7825864-6.52331698 7.08256858 0 7.71738545.1958261 15.85492907 4.8892256 7.0213767 4.04973438 9.5727267 4.99147193 14.85900224 5.4847862 5.5337713.51649014 7.10283595.26584052 11.80447585-1.88522788 8.69392186-3.97777244 16.63473557-13.43867568 23.4710751-27.96426898 3.60213513-7.65374287 20.7997774-48.50167488 27.67333874-65.72979495 26.01531204-65.20597232 42.69155676-127.66626015 50.82763878-190.37296168 1.63308225-12.58603852 3.45811987-26.267262 4.05581238-30.4027178 1.17989218-8.16468246.58580492-15.01541172-1.55337692-17.91108672-3.1567402-4.27310857-4.30408766 1.39684092-8.2990005 41.01049397-4.22993636 41.94399337-6.34037362 56.21734007-10.1790913 68.8419011-3.78736717 12.4556501-7.01845353 20.2584876-8.38893693 20.2584876-1.36210363 0-1.13273158-3.1339382 1.10496137-15.09350846 1.10233052-5.89133717 2.21235874-12.46431667 2.46687013-14.6066211l.46264168-3.89509895-1.983279 3.58463036c-3.5236965 6.36874972-11.44862762 31.93435834-16.09443482 51.92052983-8.9274838 38.40550046-11.2620314 47.35010834-18.58810072 71.2200051-7.1919929 23.43302245-8.47302704 26.74359365-9.82548417 25.3919651-1.21750373-1.21671207 8.59735956-44.94192446 14.80092844-65.9380659 6.08488785-20.5944691 6.31211623-21.62691375 6.93991748-31.53711666.50902278-8.03426482.38274148-9.55298338-.76333928-9.1787715-2.15740298.70441892-5.16320974 7.67561386-11.46753083 26.59615444-5.89020417 17.67741-11.74913033 39.45178248-13.75579476 51.12317386-2.0646408 12.00824927-11.01326894 37.00344012-13.2477464 37.00344012-2.95299466 0-.33256024-14.20670156 5.94866775-32.25034824 5.74657867-16.5079455 9.99317715-41.53923417 7.32665395-43.18618913-2.2526986-1.39135855-6.1497824 3.94191806-12.78539703 17.49694035-11.44745834 23.3845577-24.2917087 60.97615775-24.2917087 71.09501137 0 2.36478274-6.58484876 22.32170203-10.2403806 31.0360414-2.38696992 5.6900482-3.88324743 3.29013166-2.44358214-3.91914146 2.28017648-11.41746988 7.9665377-32.12987283 12.63387896-46.0183448 5.24057653-15.5938534 7.33201312-24.74300266 5.52695056-24.17692793-1.4701638.46105313-5.1551223 11.5815996-7.9792048 24.08031-2.45235167 10.8529532-8.4719552 28.83289553-10.64962556 31.80915038-.71754282.98065934-1.6212921 1.46649503-2.00841833 1.0796338-1.16995337-1.1692016 2.4935685-29.84187222 5.01091216-39.21831997 4.65788967-17.3493161 2.25133445-14.78035226-8.21003843 8.76397266-13.61304623 30.63746564-15.7448227 34.9579094-16.75253967 33.95089-.61250328-.6121635.7795142-6.94151428 3.94453673-17.93533372 8.0772287-28.05661204 7.5497899-35.41612887-1.53252493-21.38519365-5.5965222 8.64577588-10.9893963 20.36207775-15.1722695 32.96222626-1.8058421 5.43977834-3.63000276 9.89212963-4.0538636 9.89412587-.4237634.00194755-.48817077-4.92612192-.1431383-10.95135312.42922-7.49458912.26483995-11.87773424-.5202283-13.87629004-1.10028428-2.80068326-1.20464175-2.84374358-2.52796454-1.0426206-2.08208243 2.8337137-6.00284398 16.24516263-8.37383385 28.64360344-1.31874315 6.89579556-2.61751125 11.2404571-3.45636597 11.5621436-.7390769.2834074-1.5402226.31904755-1.78031298.07916788-.23999294-.23990888-1.30666068-6.9439682-2.37011293-14.89790634-1.0635497-7.95393814-2.41240158-14.9325143-2.99752442-15.507947-2.8200875-2.77359285-5.81546825 7.33396498-6.69173965 22.58032687-.31589813 5.4965397-1.01288127 10.06047583-1.54879728 10.14198077-1.06150346.16154923-3.49358776-4.313491-8.6940193-15.99715195-3.58060105-8.04438234-5.71812643-9.48971724-7.41970848-5.01700432-.52929015 1.3913683-1.41111558 9.16939404-1.95950382 17.28450164-.54848568 8.11514654-1.21506776 15.37580576-1.48146674 16.1347658-.90072865 2.56716234-2.2075842-.3078102-4.7942072-10.5466621-2.88001265-11.4009157-4.5071511-15.12533142-7.03063345-16.0930785-3.40102045-1.3042544-5.15278374 2.70598368-5.23239163 11.9781986-.13212765 15.38671204-2.49970716 22.8663732-3.97513266 12.55818855-.86798906-6.06398744-4.49195058-16.86207815-6.10944254-18.20357945-2.2807611-1.89172297-3.56374405 1.30188814-5.9232361 14.74482895-2.88654107 16.44569208-3.28146245 17.9585485-5.07668366 19.44754747-2.36426657 1.9608902-4.5198182-1.68170898-9.07042723-15.32838294-2.4715472-7.4115943-4.51095123-12.05844736-5.19156457-11.82892865-1.162548.39194433-1.21282666 2.28282012-.72611748 27.3063965.14401525 7.40672543 0 13.73139236-.32632413 14.05478295-1.31630717 1.3154723-2.607475-1.78376056-3.97045558-9.53120977-2.31983426-13.1865654-4.12918415-18.47747306-6.3187421-18.47747306-2.7446695 0-4.66422322 7.46339912-6.03577845 23.46758172-.8571733 10.00154298-.87023017 16.13145497-.05164282 24.4758281 1.6198305 16.52300978 4.55216805 22.14753268 10.02162944 19.22221598 1.1379933-.6087066 2.158962-.96160255 2.2688735-.78427817.767042 1.2371808-1.05702124 27.21369315-1.9750941 28.12806763-.84323948.83978333-2.01475188.7937238-4.72492787-.18569885-3.36526025-1.2160499-3.72052384-1.1581103-5.36861174.875813-.97059262 1.1979377-1.95930894 2.17804197-2.19696333 2.17804197-.23775183 0-.69980888-11.50271412-1.02681508-25.56158693-.8377829-36.01135842-4.40971183-62.62588798-11.5086502-85.74953246-5.46605102-17.80485764-18.55428932-52.07701542-28.72772914-75.2252672-9.18004642-20.88767266-35.51612854-73.62794553-44.7066984-89.52883985-3.09554833-5.35576108-8.27152262-14.4500284-11.50202434-20.209497-3.23059916-5.75945886-6.05779973-10.2878717-6.28268957-10.06314397-.2247924.22472774 1.8128577 4.43311924 4.52819798 9.35198654 10.2433038 18.55574508 26.72632643 54.35129554 37.4871302 81.4097203 28.09417896 70.6434136 45.34590004 144.42360882 51.27410553 219.28302885l1.10320748 13.93150307-3.975425 11.87352753c-6.42280724 19.18297287-7.88459124 19.4322592-5.57089566.950112 2.1899477-17.49415532 2.91392152-33.8322453 1.8029189-40.68664568-.52091035-3.21345665-2.11472458-13.51112452-3.5418202-22.88380377-3.06982436-20.16035058-5.59584012-32.1826709-12.68493713-60.37403388-2.8955055-11.5148863-6.17989114-25.53723282-7.29859146-31.16078194-2.8925823-14.54059918-11.25082588-30.82727384-14.72054102-28.6841904-2.99206782 1.84801024-3.25369227 6.3189314-3.38786615 57.89742286-.15073856 57.91846612-.13164046 57.72293215-6.840432 69.93348312-4.29385652 7.81512656-8.76982705 13.8013094-19.42802727 25.98342615-13.60856403 15.55429866-16.27586674 20.7213422-12.41795353 24.0555469 3.11717985 2.69394782 8.224362 3.69703318 18.82390378 3.69703318h10.49430737l7.1815669 7.17701196c19.84555457 19.8329675 10.5877516 26.12910285-27.97384147 19.02483185-13.44866618-2.47767246-35.7809685-8.03334948-40.9244955-10.18100967-9.96433514-4.16045258-18.07859077-13.10866342-21.99321364-24.25390483-1.12025935-3.18920965-3.29383725-13.0486789-4.83035718-21.90993165-1.5364225-8.86125275-3.43103175-17.9067437-4.21025363-20.1010477-5.04209273-14.19899898-12.6243299-20.5588192-27.75021833-23.27623498-19.22993324-3.45466064-41.37885484-14.57623933-63.98632567-32.12921066-9.18988778-7.13513964-11.20814748-8.28224628-14.5726282-8.28224628-6.33326056 0-27.17990625-10.5003104-36.58610923-18.42820007-2.6302758-2.21689557-3.14689882-3.14022878-2.25883727-4.0366858.8906924-.89908622 3.5392868-.0584265 11.692713 3.70978962 5.79763686 2.67963333 12.73355933 5.65023055 15.4131394 6.60121896 8.00921608 2.84244847 17.4723236 7.8767665 37.51412087 19.9570264 21.3735973 12.88303982 34.48580565 19.6999499 42.96594575 22.33761353 3.16726364.98507052 10.03264007 4.1970665 15.25645705 7.13767146 15.09470784 8.4971584 21.391721 11.40835535 26.05945202 12.04773584 4.10268067.5619654 4.57876897.3748059 8.16765235-3.2118986 4.2064535-4.20378555 6.93855332-11.47135857 6.93855332-18.45682904 0-5.6358187-7.21615783-16.31471938-17.6581403-26.13153728-10.33421462-9.71554534-14.75863978-13.05276875-40.31822832-30.41143307-36.87725778-25.044941-41.05633084-28.20513216-54.41798374-41.15044487-12.28991832-11.9070838-26.49909804-33.25693918-79.11659885-118.8763169-67.89792792-110.4835764-78.79475692-127.74133817-99.29968307-157.2646205-12.1375233-17.4757997-22.12241812-29.72827167-22.7334598-27.8962703-.4321432 1.2955878 2.98232388 7.4421124 14.41467913 25.9487208 4.63197082 7.4980655 11.64516264 18.89122996 15.5848274 25.31814325 6.48390168 10.57715096 37.93603294 60.25986853 49.6249458 78.38886657 8.0268526 12.44934975 53.84221507 85.36388844 63.63398526 101.27257296 19.4883422 31.66291862 33.40656824 56.51476983 35.3120907 63.0519144.50268922 1.72443822.24652136 2.19099318-1.20288785 2.19099318-2.07886693 0-15.06323496-13.0111691-21.86488612-21.90993165-5.27818808-6.9056112-9.29375805-10.8095131-10.1937072-9.91016395-.9167087.91611754.79627377 6.16145255 7.40343612 22.6707029 5.35331377 13.3763541 6.23133908 16.8852832 3.85840042 15.41962563-.51467426-.31786928-3.9523319-5.03566183-7.6393366-10.48396072-3.68700474-5.44829888-8.74692885-12.0969991-11.2443949-14.77487963l-4.5408651-4.8688737 2.85487332 5.35576107c1.57013647 2.94566858 4.88911306 8.850736 7.37547104 13.1223839 4.6143343 7.92739304 5.21465768 9.70463906 3.612756 10.69405262-.4993763.30842367-6.74503894-4.5776761-13.87934777-10.85799734-9.2043088-8.10261407-13.0601758-10.95824744-13.27697818-9.83302152-.16808275.8721711 3.93177218 7.94175622 9.1107671 15.71020002 8.33914546 12.50870132 10.02270125 16.22027296 7.3575422 16.22027296-.41937864 0-5.3012812-3.91496397-10.848694-8.69990802-10.36919533-8.94410152-14.13327452-11.5488321-15.17909026-10.50367966-.81459234.81407568 2.19550175 5.56557057 13.7188653 21.65554273 15.71003686 21.93575615 25.78194496 42.04564572 48.76202357 97.35994605 22.5133445 54.1909538 31.6430148 73.46604575 44.45345372 93.85289633 22.6832786 36.09890076 40.84021053 52.9558179 77.33550635 71.798067 38.14640433 19.69478887 71.01530265 28.95363385 147.62050162 41.5832001 4.86348654.8018061 9.16962042.6769682 8.23361874-.23876957zm61.4354629-45.7824089c-3.38406602-1.38412342-5.64455976-4.62689068-5.0037991-7.1781805.74219497-2.9551142 8.74517494-10.40293292 11.17842852-10.40293292 2.01387493 0 10.32008593 6.87777098 11.92461847 9.87397848 1.52492466 2.84760947.11829128 5.72589285-3.54591265 7.2559851-3.56169783 1.48714878-11.42456013 1.73098198-14.55333525.45114984zm-118.57258704-67.91241366c.54614715-3.8344328-3.64276728-5.5506134-11.71717024-4.8006121-3.82507618.35523304-7.54072806 1.13201315-8.2571016 1.7262105-3.25875912 2.70280916 4.61501638 5.6538335 14.31178327 5.36403815 4.71050687-.14080784 5.39589473-.41794413 5.66248858-2.28963656zm-31.4165659-.41385426c.368223-.59546325.0652843-1.46514147-.6733054-1.93265073-1.88467046-1.19297143-9.62514902-1.09218575-9.62514902.1253248 0 2.30599597 9.0120611 3.88750353 10.2984544 1.80732593zm-24.3539724-5.19158265c.81975662-3.26409293.0116927-4.20845967-4.68604962-5.47251666-2.223954-.59838458-6.13945384-2.09848457-8.70113238-3.33352307l-4.65769478-2.24552455 1.34729286 2.57680272c.74102568 1.41723176 2.59227447 3.7146585 4.1138862 5.1053062 6.89343894 6.30032257 11.535446 7.54324865 12.58369772 3.36945536zm27.04378358-3.41054865c7.63504927-.9834151 8.70980447-1.61052604 6.06822573-3.5408397-2.26965303-1.65853315-7.59782746-1.68063783-16.0644235-.06719047-13.4722465 2.5682335-5.17714357 5.56181182 9.99619778 3.6075433zm-22.86324893-10.42396646c2.07847718-1.35861052 2.15711067-1.65444328.799879-3.01081412-1.34056954-1.33971928-12.0733108-4.01662604-16.4801969-4.11030317-2.09328793-.04479364-4.8922311 4.04515764-4.12889183 6.0330214.3113185.8109596 1.52706832 1.96507742 2.70169878 2.5648253 2.83363156 1.4468345 14.12616145.47208598 17.10751095-1.4767294zm-23.8404674-.73393402c-.28881002-.75204623.625755-4.24195752 2.03229095-7.75543416 2.07750278-5.1896351 2.34965067-6.7757194 1.45096824-8.45392278-.60841083-1.13620037-.94067876-2.23121007-.73839483-2.4333657.20228395-.20225302 2.75909052.26827494 5.68168414 1.0456393 10.27838192 2.7334831 22.12222324 1.27866362 24.97972742-3.06846157 1.21877045-1.8540671 1.11168468-2.36646738-1.0253535-4.90451386-2.5062356-2.97663463-11.8512467-7.92487097-12.9301918-6.8466102-.3459094.34559265-.0652843 1.30690308.62322162 2.13616965 3.29676043 3.96978747-2.19004515 2.43044436-23.30416165-6.53811837-7.26283124-3.08501576-11.45564324-4.39415852-12.07896228-3.77123482-2.26419644 2.26276038 9.28264997 18.58643848 13.14748137 18.58643848.43945113 0 .79900206.41161458.79900206.9146666 0 .50314942-1.86352614.8317984-4.1411692.73033106l-4.14116918-.18433555.21173555 3.62799253c.11643993 1.9954592 1.15309638 5.50104827 2.30365934 7.79019792 3.09018915 6.14821896 8.78561222 13.4373124 7.12963174 9.12456145zm41.07922906-26.46505513c-1.84715633-1.34974917-5.41499282-1.90791685-5.41499282-.84708664 0 .79031557 6.25258083 3.27733626 6.81919022 2.71235216.2671785-.2663274-.3647152-1.10562385-1.4041974-1.86526553zm4.40376804-8.77439205c1.08683767-1.30875325.92226274-2.23938977-1.05546223-5.96495455-4.97865974-9.3789114-19.55128796-21.4713435-34.53306368-28.6555614-8.05871524-3.86442506-8.7331899-4.02694806-11.1357501-2.68440483-1.61330208.90152066-2.88196144 2.73017224-3.43668324 4.95339735-1.97899167 7.93178476 7.5602159 17.42092747 27.18789627 27.0448406 6.43099215 3.15337474 12.56966648 5.9353518 13.6414985 6.18239845 4.2275004.97426162 8.096814.61114102 9.3315645-.87571563zm-23.869212-10.65406943c-2.0500249-.70433128-5.25519242-2.51876575-7.12261613-4.03220645-3.63234128-2.94372104-7.95104483-9.5133897-6.92676317-10.5370217.81732064-.81680226 10.92625567 4.8052862 16.16351926 8.9894015 6.28843848 5.02389864 5.13427027 8.07015816-2.11413996 5.57982664zm-14.56882808 4.92622902c.8594144-2.23812386-3.16687388-7.86537333-8.3461611-11.66494498-5.77278985-4.23494635-7.3294797-4.4223006-6.4413207-.77541683.99855768 4.10066282 5.1321266 9.84310984 8.6111959 11.96311482 3.74088866 2.2795093 5.43409094 2.41028724 6.1762859.477247zm46.74795377-11.02517498c-4.63674534-8.96106467-47.13050037-43.5985243-49.98605576-40.74478005-1.2863933 1.28548003 3.53840983 9.2488151 9.393341 15.50385714 10.85074022 11.59210663 34.05317526 27.88861642 39.7845534 27.9431478 2.1152118.02044927 2.1524336-.10438865.80816136-2.7022249zm7.20553695-12.66277196c0-2.0378184-10.9623082-12.68273435-20.19653085-19.6117259-10.0759031-7.56058183-22.2310629-14.4609444-23.40559593-13.28715632-1.1747279 1.17398283 5.1486913 12.5001516 8.8391064 15.8321166 2.0750668 1.8735426 6.47045505 4.62786446 9.76760524 6.12075852 3.29715018 1.49289405 9.2631621 4.74189347 13.25788007 7.21985805 6.60560334 4.0976441 11.73753508 5.72686663 11.73753508 3.72614905zm1.9487855-13.40430143c0-1.78814256-2.78208618-4.80265702-9.94767303-10.77880998-20.3668547-16.98584492-43.12067932-31.04948922-46.15873847-28.52965233-.76051354.6307139-1.38276075 1.74919157-1.38276075 2.48546265 0 2.95053745 7.34058778 9.14062872 18.23196018 15.37444247 6.31786516 3.6161125 17.1872163 10.0442917 24.15412445 14.2849833 11.53398442 7.02062375 15.10308763 8.71343375 15.10308763 7.16357388zm4.87196375-12.99453702c0-6.8322957-32.88312446-37.4072645-49.83648647-46.3383369-7.37790703-3.88670503-10.35954884-4.21709706-13.63467775-1.51084073l-2.3003464 1.90074013 1.9487855 3.3566989c2.80927174 4.83878406 10.1115659 10.68152988 32.15496075 25.72800503 19.65389153 13.41549984 28.21344464 18.67378606 30.44977344 18.70621276.669895.00973774 1.21799093-.81943145 1.21799093-1.8424792zm-3.31176608-19.955371c1.27684426-3.32534335-8.12575346-16.7839814-19.87157087-28.44375566-9.0797814-9.01322978-20.4817356-17.24437237-28.39302522-20.49696502-8.0064878-3.29177735-9.50520127-3.06879267-10.28266925 1.52988775-1.1859334 7.01497585.25607042 8.5225447 23.3705178 24.43461795 6.43099215 4.4270721 13.80295538 9.94447977 16.382173 12.26089513 5.0341027 4.5213335 15.90754627 12.08152582 17.37605358 12.08152582.49158114 0 1.13000327-.61484137 1.41852097-1.36620596zm1.36298058-24.28613676c0-5.33857395-18.04711788-26.68304434-31.92422455-37.75708335-8.6996708-6.9423712-18.93712822-12.78354924-21.01102575-11.98822846-.84431132.32379958-2.29518212 2.57742593-3.2239733 5.00805532-1.49822628 3.92043658-1.52940685 4.70772372-.27672753 6.97400915 1.44434237 2.6129103 16.01979632 12.81750477 24.76818675 17.34073713 2.67958006 1.385438 7.44319134 4.89280908 10.58580284 7.79416118 7.45361733 6.88131553 18.09700678 14.910098 19.76565436 14.910098.73098944 0 1.31630717-1.01467328 1.31630717-2.28174897zm-.97439275-20.00409868c0-5.25168404-19.52692815-27.7863214-32.10214867-37.0468997-7.4111338-5.45760817-16.27498977-10.13170745-17.6284213-9.29579973-1.8478384 1.1413419-.8866974 6.0853618 1.94176987 9.9873843 1.58377798 2.184946 7.39359475 7.36682013 12.91070394 11.51528554 5.5171092 4.14846542 13.0068765 10.3214864 16.6438949 13.7178277 7.57863192 7.07701503 15.2382359 12.89940895 17.01621034 12.93464986.669895.01324334 1.21799094-.80232222 1.21799094-1.81244797zm.97439275-16.21061313c0-6.70322186-21.6966085-36.62601477-38.33952898-52.87570546-11.30412517-11.0371232-12.6808447-11.25755658-13.11737264-2.10042237-.1657442 3.47586946-.02923177 7.78324517.30420543 9.57194278.8395368 4.5098527 7.20972683 11.0749641 14.7822201 15.23468634 4.6937473 2.5783705 9.90713828 7.13318237 20.1341697 17.59048113 13.22806366 13.52598432 16.2363064 15.85665574 16.2363064 12.5790176zm-1.08800695-21.1158865c-6.20493303-11.5867509-48.52505127-69.8996834-50.72903023-69.8996834-1.85582843 0-.29904113 16.678395 1.97197605 21.12719202 1.11860288 2.19121713 5.16194303 6.4356091 9.56990095 10.04580103 10.7878919 8.8353601 20.52772695 18.31319727 22.9648781 22.34716625 2.6000696 4.30358772 15.2494414 18.53917144 16.47337614 18.53917144.49801213 0 .38508-.97183693-.25110102-2.15964736zm20.26649225-3.92644478c-.3158007-2.27619846-2.39203676-9.81101422-4.6138471-16.7440372-7.92395673-24.72601028-18.99919705-49.21246226-27.80975373-61.4847603-3.2515486-4.52912368-5.68538682-9.11658622-6.30675708-11.88747198-3.56968784-15.91869492-22.49707213-50.9787728-47.3563646-87.72057912-18.82858087-27.82853452-43.63457406-61.46099045-45.8777236-62.20200382-3.8544054-1.27330785 1.54431506 11.70393493 10.09120107 24.25653402 3.91511006 5.7501009 8.29081558 12.77879723 9.723855 15.61932735 1.43294198 2.84053013 5.3846892 8.7315557 8.78161722 13.0911647 26.81168323 34.4096158 43.51969315 65.16035095 91.18932502 167.83155657 11.56555475 24.90998555 13.3581451 27.74202437 12.1784478 19.24026977zm-309.62917892-2.41090072c-3.00658626-3.89460234-14.6998839-18.1175854-41.53017802-50.5147107-78.48402308-94.76834197-122.56243303-148.90364453-146.7999655-180.29343882-15.07931243-19.5291498-16.6868656-19.90061564-8.11045548-1.87407818 12.48187368 26.23526377 30.46068663 52.79427842 62.36902858 92.1339697 43.1730042 53.2279782 100.21015566 114.7709118 127.67000494 137.75567653 6.30549037 5.27795648 9.34335465 6.6031373 6.4015655 2.79258148zM763.71773058 808.23319c1.6071634-2.59889765-41.8503635-63.18397773-43.8723259-61.16329777-1.39474577 1.3938417 4.1702061 13.74489862 10.00409038 22.20334946 6.82698536 9.89848838 24.28225708 32.82637493 28.35843428 37.24961036 2.5606067 2.77858832 4.48055018 3.37456767 5.50980124 1.71033795zm-15.13894528-43.10563847c-13.79837574-25.30769463-33.24053172-51.59554223-36.06880412-48.76900525-2.5628478 2.56118337 3.21695767 15.40854408 12.48898676 27.7608085 9.3886639 12.50760095 29.8445781 36.1932303 30.23842765 35.0125674.2039404-.61145264-2.79241476-6.9134209-6.6586103-14.00437065zm-20.42258997-46.03335066c0-.8211745-1.15027065-3.77901527-2.55622194-6.5729795-4.342089-8.62889062-27.87006865-47.4391503-28.75900715-47.4391503-1.62314345 0-.80562793 4.07112823 2.69721657 13.43192742 7.31203807 19.5404261 10.4279512 25.09051365 19.0318392 33.89966946 8.12185588 8.31566624 9.5861733 9.33613348 9.5861733 6.6805329zm-.75106194-47.38792975c-1.0712474-1.76879365-3.59570413-6.2833789-5.60977395-10.03241163-12.82515225-23.87287652-38.0140818-63.27071188-54.09877267-84.615786-3.9933538-5.2993211-7.91128962-10.5577047-8.70649154-11.6852969-.79529936-1.1275922-7.57921657-9.93774125-15.07560975-19.57811117-29.59084624-38.0543281-46.32691867-57.36380403-46.32691867-53.450476 0 3.2253367 22.52338073 35.2242855 35.90919857 51.01603915 7.61020226 8.97813493 17.77497 22.45411592 27.34984035 36.25909644 3.44145775 4.96178155 10.49050722 14.49891188 15.66453272 21.19361322 16.99185053 21.98564263 41.2680664 56.73727735 49.17828417 70.39921037 1.48692334 2.56818482 2.919573 4.45357825 3.183536 4.1897632.263963-.2638053-.39657786-1.92684703-1.46782525-3.69564068zm-36.87316533-108.82871438c2.8086871-1.0671792 5.4692665-5.5830693 5.4692665-9.28313093 0-4.33965633 3.5851807-9.80584345 10.31414214-15.72571223 12.72215895-11.19243053 17.94324763-16.24418887 17.94324763-17.36136168 0-1.57753456-11.1456889-8.0223361-17.16772843-9.92693236-2.8404523-.8983364-6.08391345-1.30258926-7.53371242-.93895256-4.2855742 1.07493046-9.00475316 6.1080897-13.13608098 14.0101354-2.16714692 4.14504745-4.9772956 8.92862822-6.24468826 10.63019246-3.7385501 5.01909793-11.5376871 10.89767866-17.54813135 13.22685046-3.08151708 1.19415944-5.60275832 2.64204562-5.60275832 3.21750754 0 1.24945037 7.30755586 11.1977863 9.0271642 12.28928066 1.71541843 1.0888944 21.54450577.97721217 24.4792793-.13787676zm-50.63188327-.89662257c.2907588-.4701287-.98189558-2.83174668-2.82798008-5.24802263l-3.35658815-4.39324317-9.7816365-.59461607c-5.3799147-.32704224-14.0920577-.85567534-19.36040442-1.17474237l-9.57886537-.58011656-2.64752254 3.14440627c-5.3797198 6.38939375-2.86247358 7.40783553 21.31795946 8.62489816 22.71942856 1.1435329 25.649525 1.16825703 26.2350376.22143637zm79.72013772-12.79515664c16.36745966-10.27532948 19.84155957-13.38826336 23.48871163-21.04625188 1.49705702-3.14350067 3.25456922-6.80785396 3.90565846-8.1429965 2.9917755-6.13572543 7.2492872-1.4560367 5.550336 6.10074743-1.0444516 4.6454995-1.02847156 4.67594944 3.16511996 6.03060644 2.4089912.77819208 3.1195184 1.56218786 3.1195184 3.44214764 0 2.09939017-.53640322 2.51007967-3.897571 2.984084-3.757161.52984057-9.8520851 3.30880866-13.39790032 6.10875186-3.02509973 2.38879603-1.9951666 4.29222378 3.41037462 6.30265963 14.02492205 5.21614125 29.86796353 5.5105231 40.38575375.75042976 6.02827564-2.72819546 9.89963547-5.80524574 8.39741417-6.67432022-.4369177-.25271402-2.84123182-.75589264-5.3429852-1.1181758-2.5017534-.3622734-5.11458755-1.34015748-5.80630896-2.17306597-.6917214-.83290847-2.31856754-1.9174793-3.61519197-2.41016063-2.10166773-.79853424-2.29976177-1.32644674-1.82513506-4.86313817.78156042-5.82291003 3.86473396-8.64481184 9.44537356-8.64481184 2.48372712 0 5.3670527.64336323 6.4073144 1.42969607 4.10063445 3.09959316 4.5391112.76675023.8700353-4.62927643-5.1172184-7.5258473-15.77346985-11.44697525-21.6619201-7.97079418-4.0830954 2.41041383-6.41014016 1.32828717-5.8178068-2.70537993.39579833-2.6950482-.2468137-3.95712842-4.51942846-8.87567437-8.70259397-10.01833086-28.64665965-23.96270723-46.205217-32.30552232-14.23237027-6.7623884-26.68403778-14.4228698-31.873751-19.60930117-2.2663401-2.26486372-6.84754506-8.55268302-10.1805529-13.97294693-3.33300784-5.42025417-6.25316547-9.6618806-6.48935828-9.42582788-.23629025.23605274 1.77777957 4.94000795 4.47558077 10.45323813 2.6978012 5.51322045 4.9206834 11.3774867 4.93968405 13.03169626.01851346 1.6542096.66112548 4.10314595 1.42699818 5.44208622 2.53761104 4.4362061 1.37759647 9.7377474-2.1306072 9.7377474-.6894803 0-1.91672796-1.58606483-2.72722785-3.52459715l-1.47357416-3.52459715-3.34645447 2.5508224c-1.84053047 1.40295623-3.8508976 2.55082242-4.46749332 2.55082242-.61659572 0-7.11335938-3.66946562-14.43728505-8.15437994-7.32392567-4.48490458-15.0965592-9.05248264-17.27257308-10.1501702-2.17591645-1.0976876-7.65687567-4.74234143-12.17990938-8.09922535-9.20888845-6.83474962-15.34376264-10.57042218-17.3877463-10.58793065-2.91772166-.025026 2.83343666 4.41254338 23.29285868 17.97279484 37.38647542 24.77931472 40.9493425 27.85547886 54.70503984 47.23233028l8.65962325 12.19823273h10.46010617c9.8779065 0 10.85717122.18591307 17.59158927 3.33981365 3.9223206 1.83689945 7.90310473 4.32019058 8.84621947 5.5184204.94311474 1.19823956 2.99567307 2.32451716 4.56132734 2.5028348 2.29450006.2613514 2.90710078.85152705 3.15878643 3.04338687.2602603 2.2656038-.87744067 3.90451536-6.82074925 9.82555267-3.92319753 3.90851758-9.58432197 8.72576174-12.5803848 10.70497837-4.57097383 3.01968522-6.02096768 4.7430036-9.01313294 10.71263226-1.96116028 3.91271454-3.56579026 7.6371887-3.56579026 8.27660814 0 1.48644766.42639426 1.2553125 17.77263144-9.63457597zm-264.78119357-54.34622217c8.71750218-3.08508392 11.04055193-3.4924918 22.05206696-3.86730743 9.45219432-.3217449 14.20031275-.01139317 20.46224776 1.33725564 4.48474007.96591637 9.90265608 1.78296207 12.0397917 1.8156517l3.88558597.05949762.70848097-5.84264845c.39560345-3.263236 2.07643095-8.70176793 3.8072448-12.31886393 3.34548006-6.99140077 3.23206074-9.59106772-.41830682-9.59106772-5.10347947 0-8.25008597 2.0529119-12.40704032 8.09462912-5.45991234 7.9355046-10.64455872 13.32836648-12.81365442 13.32836648-2.3298705 0-2.21411265-.8144944.73176895-5.14694482 1.365514-2.00832276 2.21664606-4.08193712 1.89129632-4.6080384-.86058368-1.3914754-9.67688928-1.14097186-17.40080317.49441465-12.6066934 2.66924315-21.20181185 6.62246673-30.6836277 14.1126544-4.87128167 3.84807537-6.9865909 7.88851994-3.3041658 6.3111704.937853-.40172102 6.08995468-2.2821677 11.4491148-4.17876927zm315.92658182 1.1911602c-.3237907-.3235756-1.16420446-.35816408-1.86761858-.07683082-.7772731.31084838-.54643947.54159404.58872808.58831575 1.0271074.0422618 1.6026812-.18787037 1.2788905-.51144598zm-.42931745-8.41907137c9.3214308-8.07020686 13.10343883-13.43031097 13.88451206-19.6781276.8333981-6.66580944 2.52864662-9.26422996 5.0214356-7.69653053 3.45860706 2.1750817 1.19986723 16.01704617-3.7464427 22.95909603l-2.13927927 3.0025273 3.17057658 2.83115268c1.7438707 1.55713397 3.68154812 2.66093685 4.30613388 2.45289962 2.78949156-.9292635 3.45587876-10.40211496 2.5439446-36.16529273-1.70752587-48.2418523-3.22728624-61.30746513-9.73584005-83.69729245-1.1107103-3.82113103-2.23993405-7.71436034-2.50935364-8.65161853-.79676095-2.77178164-2.14493076-1.95904003-3.23050173 1.94754947-1.28756258 4.6333468-1.3114352 15.51602933-.06138674 27.99602378 3.25339994 32.47964297 4.018688 45.14726433 2.96371298 49.06236463-.59398982 2.2045968-1.50153923 4.06313352-2.0167981 4.13008054-.5152589.0669957-1.33881565.17649667-1.83010448.24344368-1.62041514.22083264-2.50438424 1.66700498-3.5381175 5.78865263-.83174166 3.31618988-1.44024994 4.07081662-3.2825343 4.07081662-1.7249675 0-2.52299516-.80849596-3.36379866-3.4082116-.61143145-1.89075893-1.75293256-3.40821158-2.5638222-3.40821158-1.18953867 0-1.41423364 1.33041973-1.20717518 7.14819797.23278243 6.5385176.0808746 7.1935564-1.77992324 7.67986924-1.1188952.29241482-2.4283816 1.56726123-2.9099265 2.83298337-.64592496 1.6979905-1.625482 2.3013316-3.73611413 2.3013316-1.99818722 0-3.62123322.90330265-5.38332507 2.99604194-3.58021128 4.25210425-3.26821073 6.93423044 1.16352238 10.00350026 2.027419 1.4040858 5.4049566 4.31198166 7.50574736 6.46196917 2.10069333 2.14999725 4.43835898 3.90908237 5.19468263 3.90908237.75632364 0 4.0323295-2.3005331 7.28007798-5.1122979zm-361.78092-75.71100552c0-2.93453835-7.59704795-6.79662634-13.3979003-6.81098952-3.64364426-.00876397-2.4638495 1.79417996 1.9487855 2.97857244 2.27764305.61133578 5.23736102 1.92894064 6.57715106 2.9280043 2.68805728 2.00441794 4.87196375 2.4098393 4.87196375.90441278zm87.1738525-1.94754948c2.45430046 0 1.6934946-2.834668-.93785302-3.49467305-4.32698588-1.0853109-7.32314615 1.46617367-5.94291882 5.06082417.55257813 1.43902484.79549424 1.43902484 2.99313965 0 1.31552765-.86138166 3.0649524-1.56615112 3.8876322-1.56615112zm34.3904126 1.7041058c-.78614007-2.40848576-20.29932928-4.92492418-21.62080073-2.78821896-1.44112688 2.3303306 3.30796594 3.44542926 16.33403798 3.8353092 4.1669906.12472106 5.57800874-.15474255 5.28676274-1.04709025zm-26.94702638-6.86141158c-1.2506331-1.24983014-2.51880526-.28385534-1.59293726 1.21330385.35867397.57994128 1.09843294.7787374 1.64399544.44176265.66551025-.4110498.6487507-.95572096-.05066842-1.6550665zm-.2855945-9.1499088c.57372244-4.00858267-4.89232857-12.20077428-19.29219695-28.91387464-4.5614248-5.2942185-9.31402543-10.8839679-10.56124815-12.42166534-2.50857413-3.09265988-6.83546258-5.9388087-5.49002107-3.6112144.4178196.72290115 2.167829 3.28626577 3.88880147 5.69635826 1.7210699 2.41009248 7.38092764 11.70763527 12.5776565 20.66120187 9.24903342 15.9355899 13.83793607 21.6056952 16.99906103 21.00411665.8663326-.16487954 1.71142343-1.2516024 1.87794715-2.4149224zm-129.4097832-29.51264872c0-.5355761-.43847675-.97377474-.97439276-.97377474-.53591602 0-.97439275.43819863-.97439275.97377474 0 .5355761.43847673.97377474.97439275.97377474.535916 0 .97439275-.43819864.97439275-.97377474zm28.69878965-5.02518403c1.36492936-.62154094 2.48177833-1.77473367 2.48177833-2.56264403 0-1.11624772-.8866974-1.3137195-4.01556997-.89431472-4.79284305.6424479-6.91409607 2.26894383-4.74577988 3.63890856 1.92540007 1.21650757 3.2954937 1.17680678 6.2795715-.1819498zm163.28435227-33.93982793c3.2001981-1.61443088 5.8185863-3.14817478 5.8185863-3.40830897 0-.26012444-2.8394779-.39477802-6.30997256-.2992215l-6.31007.17375063-10.01100856-9.6719884c-13.8895789-13.41911254-23.1654081-19.4541594-23.1654081-15.07189067 0 .44364204 3.04380806 3.2643656 6.76413702 6.26828538 3.72023152 3.00391007 10.540591 9.84534952 15.15648434 15.20319447 5.35526256 6.21614948 9.08835606 9.74152565 10.3155063 9.74152565 1.05780076 0 4.54154716-1.32090596 7.74174527-2.93534658zM441.7117175 299.34873552c2.5960746-7.79634243 7.33941852-13.0650383 11.76228465-13.0650383 3.30221703 0 6.72418693-1.51357703 6.72418693-2.97414177 0-1.95708273-19.48522414 4.1762959-21.9640793 6.91366433-1.45476838 1.60652383-1.5726699 2.47493614-.71520428 5.26717678 1.00956833 3.28746352.77620127 4.42614702-.9070622 4.42614702-.46780597 0-3.88519622-2.84829112-7.59422222-6.3295358-7.20154194-6.75932104-8.22299786-7.09275125-16.97187548-5.5395708-5.3052762.9418544-5.478913 2.76938614-.38663905 4.06963834 11.5765654 2.95593217 14.3446203 4.23739052 20.22605495 9.36356472 3.32852563 2.90107944 6.42251493 5.0457891 6.87541268 4.7660431.4529952-.27975576 1.78099507-3.38382828 2.95114333-6.89794762z"/>
  <path d="M835.33939783 1175.297179c-20.41352812-1.8367339-44.22778437-7.4301934-78.92581275-18.5378471-12.0581103-3.86014044-29.58996928-9.3849488-38.95963252-12.2774493-36.3828509-11.2313231-55.83036604-22.7383218-80.97252473-47.91117786-15.53981045-15.55877804-28.03552052-31.85986457-40.5364923-52.88122677-12.4454314-20.92807458-30.70477202-56.90038463-34.74986608-68.46006456-4.55830673-13.02628207-7.6712967-20.43534456-13.27376268-31.59246602-18.503426-36.84899944-58.77410397-94.220321-81.03615257-115.44760735-60.17810648-57.38085483-111.1507349-116.92185363-167.1452861-195.24183537-9.4915598-13.27596766-19.62446487-35.25662457-23.9351784-51.92144517-3.13384196-12.11498473-1.2193551-14.28811887 6.8030153-7.72225767 13.5739731 11.10942597 52.50076857 58.27474108 128.3883273 155.56051472 46.112942 59.11554688 53.37411677 68.10930116 65.38155863 80.982389 16.4221231 17.6060323 21.1714108 18.57857036 29.24630095 5.9889094 5.4940161-8.56579002 8.95788487-10.83245522 15.34824485-10.04368795l4.74646196.5858521-.6951318-4.63211985c-.38225427-2.54766737-1.777877-8.37593316-3.10139468-12.95170066-10.14703378-35.0821631-40.4260936-89.9137925-93.85838165-169.96618767-30.64738028-45.91602055-48.2907098-75.60612024-50.71626568-85.345377-1.27284926-5.11079828-.1490821-8.6238854 2.75870074-8.6238854 4.36732575 0 13.7565743 8.2198955 24.4706072 21.42304427 17.2929379 21.31035906 28.06241377 38.03339192 82.4637354 128.0513783 57.58982702 95.29398557 83.0554841 133.0629587 113.29917347 168.03807473 13.20078067 15.26601266 23.91861372 24.98631002 44.5059735 40.36394648 9.64648823 7.20537804 22.14307524 16.63351376 27.77019338 20.9514257 11.99302084 9.20275557 25.3456119 18.16946813 29.86952255 20.05849375 1.7584866.73432353 4.36713087 1.33504517 5.7969548 1.33504517 2.86598138 0 2.85594514.32095615.4115835-13.145959-2.27267366-12.52099035-.64387874-32.54842068 5.42502906-66.70355994 1.97158628-11.09611448 2.62218832-18.627337 3.0384489-35.1693841.93288362-37.08000802-3.16385326-63.61038396-17.4023622-112.69464878-9.11222867-31.41263904-18.7773278-53.62359368-31.8454936-73.1828331-6.9771393-10.4427019-7.49882917-11.752166-13.76855932-34.56359882-1.17677413-4.2816291-3.74965818-10.8546086-5.71744434-14.6066211l-3.57787274-6.82182763-18.02626587-1.1340386c-19.93724494-1.25427054-30.90968682-2.7305228-36.01686898-4.8458147-3.6655681-1.51819273-6.85641202-4.03647158-6.85641202-5.41119807 0-.47551368 1.99779745-2.99898276 4.43952824-5.60771555 6.72126375-7.18105313 11.10749272-7.84904312 34.29258357-5.22253895 3.6804763.41694114 5.11556194.24786463 5.11556194-.60265944 0-.65019914-4.2833331-6.5166661-9.51855046-13.03658462-17.63699597-21.9651252-22.56859256-30.85844436-23.3613585-42.12837762-.47053426-6.68889764.7304048-11.6351767 2.65307658-10.92719377 1.04542598.38496237 32.92239248 38.78924562 44.37491767 53.46143097 4.76974995 6.11067994 9.12820872 11.45486282 9.68556137 11.87596197 2.79582512 2.11238033 16.9113657-3.3290145 21.78021138-8.39603187 4.89749284-5.0969707 11.22568656-17.82459606 11.22568656-22.57782427 0-4.67934792-3.54172277-11.6673697-11.13711425-21.97361652-11.73159128-15.91886045-39.4858046-38.3628686-70.86115372-57.30335208-6.59517732-3.98136566-12.41746632-8.03470302-12.93837668-9.00741634-.98131094-1.8324201.28842025-5.42102346 2.4340331-6.87917323 2.43149966-1.65238862 10.55881214 1.55312202 18.9420976 7.4710043 2.4975635 1.7630776 9.3643041 5.93874053 15.25938023 9.27927478 5.89507614 3.3405245 12.33688405 7.34655588 14.31519365 8.90229736 4.35154058 3.42215603 8.12965103 3.61860535 13.7491689.7149162 2.24987286-1.16253125 4.74500037-2.41324752 5.54487938-2.7793771.79978157-.36612955 1.8480333-2.0377697 2.32928587-3.71474613.78380153-2.7313213.2148536-4.19211973-5.45962002-14.01822745-3.48403872-6.0330506-7.24714352-13.04871784-8.3625309-15.5903673-1.11538738-2.54164944-3.80734223-7.10451443-5.98218685-10.13971187-3.8916272-5.4311507-4.5331674-7.4297844-3.36282425-10.47760197.9088161-2.36694452 3.8730163-1.83836012 7.49044938 1.33571707 7.50837823 6.5883262 24.96248068 30.98360363 33.4156301 46.7045249 6.02535245 11.20571283 17.28757873 19.90926276 37.27519977 28.8066036 5.17538966 2.30379524 12.04066866 5.78409538 15.25616473 7.73401113 6.52969814 3.95966996 6.4692858 3.97858067 10.44597748-3.27244792.92197042-1.6812026 3.0034682-3.81063374 4.62544238-4.73206808 1.64945205-.93704396 3.39585617-3.01809796 3.9630502-4.72234982.55764497-1.67586633 1.87443933-3.82522088 2.92610142-4.77635536 1.18359488-1.07049978 1.9120509-2.98713192 1.9120509-5.0308806 0-2.24760843.79978157-4.10076993 2.50516376-5.8051289 2.14025367-2.138867 3.06553703-2.41403627 6.35157914-1.88889903l3.84641538.61468557 3.49300313-7.56114663 3.49300312-7.5611466-.55686546-11.6852969c-.30634908-6.42691328-1.19791845-16.50548184-1.98142766-22.396819-2.32821403-17.50715524-2.594613-22.8408311-1.68141213-33.667989 1.11207445-13.1850755 3.7894134-18.602905 8.3320324-16.8608317 2.31622902.88826757 5.51175004 8.93666186 8.94736144 22.53566955 7.00812498 27.74002813 9.70534155 58.78329494 8.86229695 102.00003138-.3029387 15.5317071-.8321314 28.96619554-1.1759946 29.85441444-.78721192 2.0339233-4.4622316 3.4880319-10.7161766 4.2401463-14.2507863 1.71385328-19.38378985 4.97002942-8.23186483 5.22195468 7.03306943.1588811 12.00149806 2.42790282 17.62725204 8.05015682 5.13709602 5.1337599 7.53731768 10.73002386 8.60301103 20.05831846.47472414 4.15561292 1.34924163 8.83206873 1.9433289 10.3921143 1.4382037 3.77666847.08672095 5.1286573-3.60047866 3.60227515-2.48372712-1.02816006-3.74556573-.6891404-12.29440052 3.30320946-18.55282772 8.6642776-28.45606843 9.31288948-45.7504679 2.996412-14.32951723-5.23361078-18.69089918-4.66707837-29.42705082 3.82255273-9.45843042 7.47924243-16.14344676 10.61262558-20.7670378 9.7338231-1.9760685-.3755752-8.36418737-.88688483-14.19592798-1.13624907-8.71837913-.37279992-10.5120413-.2158177-10.0900318.8831163.28228158.73507335 3.4815053 5.4521161 7.10936438 10.48231505 18.05851828 25.03860173 46.11976277 70.03708302 72.25804316 115.87184207 39.5867517 69.41715854 67.73949167 130.1538943 89.0318246 192.0769214 2.9004749 8.43526525 5.73566548 15.33689372 6.30042352 15.3369911.56485548 0 2.52630808-1.5458674 4.35884853-3.43547728 7.45010954-7.68159283 21.4316711-14.89862693 32.8837091-16.9739746 5.73605524-1.03947533 8.85187093-.72961047 14.04479966 1.3967338 1.32439462.54227567 1.773882-.05521304 2.301808-3.05916205.80864853-4.60185494 2.92074226-8.1150297 4.8787845-8.1150297.810305 0 2.45157215.64053928 3.64715205 1.42342496 2.01319287 1.3182573 2.48158347 1.18000075 6.34008132-1.8714003 2.29147943-1.81215584 13.4656206-8.64785002 24.8313274-15.19042827 24.28693417-13.9804937 41.36229016-24.95688255 58.17913976-37.39858818 6.69895015-4.9561239 14.59153143-10.1045294 17.5390695-11.44088916 10.8209238-4.90603294 21.3277034-14.77131562 30.89049127-29.0044941 1.61924588-2.4100925 7.6815278-12.48866104 13.4717593-22.39681902 12.24490136-20.953568 18.55039172-30.22191703 26.51351903-38.97186733 8.01983697-8.81224267 11.38548697-14.05747057 15.39540545-23.993089 4.75065186-11.77101827 8.3347607-25.835909 13.60788195-53.4011251 6.423197-33.57631782 9.95624768-50.26517118 12.72420517-60.10369453 2.71650955-9.6555608 7.56801105-22.41624583 9.8853119-26.0007496 1.46412253-2.26466896 1.57919832-2.2866081 2.85399635-.54421348 1.6002452 2.1869812 1.77378456 19.76380027.2979693 30.1697227-1.4908209 10.5117912-1.55961303 11.33618888-2.7501261 32.9328572-1.34846212 24.46018927-1.93602095 28.81979825-6.87736146 51.026702-18.71808473 84.11993015-35.18551708 138.51798635-57.12270314 188.697368-6.11324267 13.9833176-19.06750197 39.31419783-26.43118286 51.68327933-5.0807761 8.53455133-6.05887156 11.00501785-7.51792726 18.98860743-2.97949815 16.3029367-9.04178008 31.1789039-17.62920083 43.25974807-5.18464638 7.29386493-19.5242973 21.1799901-27.37020515 26.50468776-14.83298596 10.06649374-37.08207513 19.8372521-59.47001527 26.11654114-6.90357264 1.9362537-12.8716308 3.828298-13.26245972 4.2044672-.39082892.37626655 2.78530168 3.0186043 7.0580139 5.87186168 20.3958916 13.6200899 36.53583055 34.3544807 41.36696724 53.14288003 3.11445155 12.11210235.98822913 31.17783274-4.1895965 37.5681321-1.72145968 2.12458172-1.7639432 1.79164814-1.69758706-13.29309636.05943796-13.38424168-.23453633-16.51755666-2.17435742-23.21849015-7.267216-25.1043023-25.64650437-41.17372783-50.63256534-44.26916297-12.33610454-1.52833945-31.8288315 1.5865712-44.25682127 7.07203905-3.52067588 1.5540471-3.65446 1.53496112-6.59449525-.93735556-5.87627036-4.94141992-8.54201405-1.9755942-13.65777086 15.19507317-3.31868427 11.13891187-5.37065796 14.61840378-8.62113474 14.61840378-3.0443927 0-5.04706212-1.55618942-5.04706212-3.92197515 0-.87172314 1.0938533-4.27516324 2.4308176-7.56340578 3.7980855-9.34112896 7.13752432-23.4598889 9.1896929-38.85302787 1.0350974-7.76400338 2.12018118-14.35441344 2.41142717-14.6454747.29114855-.29106128 1.00294246.73666058 1.58153687 2.28379388 4.12772257 11.03578914 11.0521472 19.28560874 19.46466446 23.1901533 10.37543144 4.815803 20.5780056 2.66629263 30.92176928-6.51465037 4.18618613-3.71563228 8.12828688-5.64409577 25.26415266-12.3595385 29.6257295-11.6100241 40.60216638-16.2174393 51.15786048-21.4735832 29.66509496-14.77167592 44.6840925-32.19883556 46.99135708-54.52583493.30449773-2.94712925.18971427-6.67181763-.25509602-8.2770853l-.80884342-2.9187924-2.21888717 3.6991755c-1.3620062 2.2707453-2.8292468 3.58524383-3.79964453 3.4042191-1.66903734-.3112184-4.29336934-7.08937224-5.43516276-14.03783927l-.659469-4.01312046 6.7192175.48046046c11.54548227.82556622 19.4312428-4.2420549 28.43901657-18.2754148 5.12472123-7.9839791 22.1893589-46.9224265 36.1819311-82.56062468 22.48576918-57.26998083 39.71517666-120.1576876 47.14082893-172.06529544 3.89328368-27.21475456 6.65023052-48.98527088 6.59751587-52.09694858-.07210506-4.24974772-2.2876793-10.92644397-3.78912108-11.417762-2.563335-.8388193-3.78658767 6.88973867-8.66615168 54.75073793-1.91117395 18.74516374-4.3346836 38.35421175-5.38566362 43.57565033-1.9492727 9.68439428-8.74351846 30.3823659-10.57362293 32.21129013-2.33503478 2.3336025-2.1599364-1.16601734.82102334-16.40791934 1.73227542-8.85704605 2.9771596-16.62053333 2.76649588-17.2521918-.5227617-1.56724175-6.04074785 11.89794008-10.50872837 25.643793-2.02186494 6.2201809-5.71530066 20.02742058-8.20769988 30.68276566-2.4923992 10.65534507-6.0599434 25.72723574-7.9278543 33.4930893-4.02170863 16.71987782-17.61273358 61.4133047-19.09975436 62.80847073-1.94323146 1.82322765.03507814-10.17101874 5.46088673-33.10834116 2.91382407-12.31825048 6.91896803-27.65520263 8.90029825-34.0821159 4.5840307-14.86932606 4.9745673-16.6111559 6.17774747-27.54675334 1.5104062-13.72880212-.20189418-15.76650367-4.77647326-5.68400106-6.64711246 14.6507039-16.43907752 47.0552883-20.92888444 69.26041977-2.38599553 11.8003873-6.62294752 25.9587799-10.38010852 34.6871611-1.99770002 4.64074748-3.08434282 5.64733843-4.1814116 3.87335456-1.02613302-1.65928294 2.5487191-17.1597124 7.2089473-31.2572051 7.08403018-21.43023075 9.80278083-41.87809806 5.67203765-42.66018524-6.33871716-1.2001287-32.28055998 61.84336258-35.77258872 86.93370095-.81975662 5.89055816-4.67416202 18.15572816-10.33830707 32.8981324-1.0020655 2.60797326-2.39505738 2.02738928-2.39505738-.99820674 0-4.14984816 5.19468262-24.3206376 10.66053876-41.3948039 5.53591497-17.29272028 8.82731624-29.3174653 8.82731624-32.24937445 0-1.71737834-.17431887-1.78819124-1.3464159-.54694006-1.8730752 1.9835207-5.12969064 11.94882953-8.471468 25.922536-4.10901424 17.1817684-9.9361752 32.59263006-11.6691327 30.86078142-1.2979886-1.29720428 2.6092289-30.84765494 5.38722263-40.74396208 2.71855578-9.6842969 2.80761528-10.2314804 1.66436026-10.2314804-.99427036 0-2.05090186 2.1720143-14.41312012 29.6277002-9.97310467 22.14956788-14.04129184 29.27617726-12.54852215 21.98236102.38361842-1.87451638 2.40967326-9.32389314 4.50227913-16.55417058 4.56522492-15.77356354 5.8564902-25.31814324 3.42528284-25.31814324-3.47117674 0-14.24182188 19.048144-20.01714514 35.4009477-4.63830437 13.13329993-4.91210874 13.19488145-4.96053606 1.11560505-.04482206-11.18309205-.59632836-15.09350848-2.12846352-15.09350848-2.01319286 0-7.4190264 16.97615586-10.10990942 31.748046-2.9335068 16.10430613-4.39519337 15.10384997-7.1764026-4.91222614-2.58769483-18.6242891-3.9789328-20.36705374-7.43032935-9.30787454-.91924212 2.94566858-1.94557 10.17594603-2.2807611 16.0672832-.74930804 13.16931985-2.1269045 14.02750753-6.2531655 3.89509897-9.46106127-23.2323859-11.66728134-22.92372853-13.4611384 1.88327062-1.55396155 21.48799505-2.20573286 22.44083363-5.70633625 8.34135442-3.36526024-13.55441854-5.3879047-17.52793558-8.92212466-17.52793558-2.9148959 0-4.00865177 3.676915-4.4679805 15.01988136-.651479 16.0854928-1.16293776 16.7070532-4.20284826 5.10822753-3.3842609-12.91236017-6.632594-17.4543377-8.64997675-12.0944673-.45357982 1.20504625-1.77466152 7.83157362-2.93574792 14.72550927-2.1609108 12.83084548-4.08806478 19.11315322-5.86311605 19.11315322-1.7806053 0-3.71087735-4.13036294-7.87319086-16.84737416-2.49912253-7.63565987-4.51543344-12.31669242-5.20384192-12.0816232-.8172232.27908385-1.02408678 6.03847454-.758175 21.10773602.30459517 17.2673632.14206646 20.65035403-.97439275 20.28285144-.83320324-.27431234-2.15525932-4.46388078-3.4954391-11.07678504-4.05746886-20.0214903-7.34760342-22.2019667-10.7005863-7.09161193-2.09543162 9.44327792-2.37683625 41.68242775-.43224064 49.52667017 1.94712904 7.85505132 3.4053078 9.73784478 7.54170246 9.73784478h3.4654278l-.3210624 12.61320683c-.3589663 14.1033743-1.07660655 15.97681953-5.1087412 13.33662408-3.0508237-1.99779626-5.3330464-2.05223027-6.06549742-.1448003-.3083953.80336416-1.21769862 1.4606621-2.0205008 1.4606621-1.1362394 0-1.36288314-.91700367-1.0226252-4.13854264.2403827-2.27619846.08379778-13.42036872-.347371-24.76484444-1.33043587-34.9848051-5.2282992-60.7500083-12.68074726-83.82065024-17.09289506-52.91515307-43.8358836-111.2973502-81.73508448-178.43469758-42.14121973-74.65195732-62.9481102-108.4773862-82.85436944-134.69467408-3.99423076-5.26053564-8.57767682-11.4254743-10.18542486-13.69984207-11.08147643-15.67630292-57.99634368-73.51661388-59.68155594-73.5801819-1.76355343-.0665088-1.51596024 1.3787287 1.13068535 6.59829765 3.99715395 7.88294022 23.71330917 34.9005346 34.03748755 46.64251492 2.25006774 2.55906054 5.2975785 6.44320454 6.77232193 8.63143218 1.474646 2.18822765 4.53501874 6.1906658 6.8007742 8.89432215 2.26575546 2.7036466 6.7503981 8.77157784 9.96589417 13.48429702 3.21549608 4.71270945 9.34530343 13.19893234 13.62171833 18.85825795 20.39559928 26.99099086 26.78021034 35.7735334 36.5039679 50.214457 22.0168914 32.69771982 35.84157573 56.7498293 54.0114671 93.9692624 41.68471672 85.38722983 66.11040442 173.81488626 74.17457626 268.53239718l1.4312855 16.81153924-3.82283507 11.16656707c-6.14500788 17.94929765-7.36650663 18.50873124-5.32447174 2.43842933 2.0545071-16.16962694 2.7201148-36.60010263 1.42748538-43.8198633-.6232216-3.4812447-1.9691503-12.1166791-2.99089854-19.18988667-2.59626948-17.97305776-5.9175846-33.82776594-13.11483922-62.60728887-3.41544147-13.65719073-6.8970442-28.48571562-7.73677587-32.95228402-1.59313215-8.47349566-7.58603732-21.64784018-11.42816537-25.12265796-1.93602096-1.75102227-2.02888058-1.7411287-3.76476127.4012731-2.74973634 3.39360496-3.19211065 11.74958548-2.78929668 52.6831707.20364808 20.68657846.07113067 42.6709065-.29377942 48.85408396-1.10242796 18.6666775-5.24983326 26.9286693-25.15229237 50.105774-18.94979533 22.0675858-19.18871643 26.45190918-1.56614147 28.74105883 3.8060755.49438544 9.60244566.91242694 12.88079007.9289811l5.96065277.03018702 7.39525122 7.73556915c10.454747 10.93587984 11.43216037 16.35717595 3.47741284 19.28726414-6.58026912 2.42392008-28.8353021-.42777925-56.41051947-7.22823252-15.91806973-3.9255781-21.5924459-6.42058375-27.9949858-12.30880485-8.80178714-8.09479466-11.65666045-15.13849686-15.75174087-38.86383676-1.6133995-9.34755586-3.8544054-19.45543504-4.97992646-22.4617698-4.02774987-10.75845808-14.38720127-19.02492922-25.81439225-20.59923085-18.0136962-2.48166492-42.95396072-15.00499234-66.5447887-33.41439856-6.55493492-5.1152387-9.1683537-6.55428302-13.00268662-7.16006828-8.9604183-1.41557634-26.68394034-10.1432272-35.03458365-17.25236707-6.7420183-5.73962306-4.25429618-6.76500787 5.03868235-2.07686676 3.2267016 1.62776186 9.0239487 4.0846929 12.88293375 5.4597602 10.39238587 3.70316797 23.51804085 10.5029396 42.09444887 21.80710105 19.18637788 11.675267 33.84767584 19.34734604 42.5713167 22.27704472 3.3815326 1.1356161 9.6561347 4.02344247 13.9434628 6.41746767 22.77925627 12.71973777 29.52449008 14.89807187 35.16203422 11.35557674 3.5896629-2.2556518 6.6658208-8.39257497 8.1040245-16.16709512 1.0112248-5.4671609.93561192-5.8847155-2.0959188-11.5689308-3.7663203-7.06171704-15.64202426-19.85127447-26.48019482-28.51757752-4.32805772-3.4608928-15.76177712-11.6185933-25.40826535-18.12840404-39.51542614-26.66636358-55.59748616-39.238964-65.9240031-51.53786556-7.832851-9.32891782-30.5935938-44.75218445-69.98790292-108.92468962-77.9940984-127.0508345-100.82567957-162.48070334-117.18865702-181.8524327-19.90382326-23.56355696-5.36646807 1.48631134 65.75962304 113.31312234 65.49994736 102.981051 88.17357946 139.73152392 100.01098978 162.1021971 5.80806287 10.976272 7.20407536 15.49988414 4.783294 15.49988414-1.69612545 0-13.738548-12.57758615-22.14307523-23.12715008-11.83283068-14.85288873-12.69935815-12.08819618-3.4678638 11.06403833 3.48345408 8.73634668 6.33355288 16.1200034 6.33355288 16.40812386 0 .28812047-.54809593.50772615-1.21799094.48801695-.66989503-.01976762-3.94658297-4.0730563-7.28144215-9.00741634-6.92267074-10.24287357-16.815388-22.46150687-17.57288093-21.7045236-.28052767.2803887 2.35257385 5.23189692 5.85142334 11.0033527 9.91600526 16.35681564 11.36093227 19.7444319 8.42187142 19.7444319-.4157734 0-5.93327234-4.63851755-12.2610763-10.3078146-18.4379468-16.51901732-19.24581584-15.85973287-5.65888333 4.61781508 5.09120212 7.6731794 9.25673113 14.5025538 9.25673113 15.17638644 0 2.62376787-2.95494346.91661416-11.78489056-6.8085064-10.93288153-9.56494132-14.18043513-11.81087486-15.04861907-10.40710067-.81088965 1.31122665 4.0283345 9.251084 13.21013483 21.67435607 15.33606493 20.7502341 25.42785064 40.94030428 50.07492038 100.181546 23.94989172 57.5658623 33.6840753 77.40827542 49.53656838 100.9771297 15.14907896 22.523215 27.1924759 34.72938398 48.0969031 48.7471635 36.9413728 24.77156348 81.99086258 40.14727186 152.38645144 52.0108669 26.04093856 4.388608 30.60168126 4.96362198 29.86016838 3.76471052-.32729852-.52934396-3.01428397-1.9436544-5.9708839-3.14295536-5.943406-2.41067675-7.2227837-4.45852502-2.2090458-3.53577608 15.00486884 2.7615278 31.23795974 4.48949106 42.14248644 4.4858881 21.08449496-.00973775 28.74458613-3.7773696 28.74458613-14.14865484 0-3.7298494-.888159-4.10173396-4.3627461-1.82660666-4.66948494 3.05765268-9.20820637.24840993-7.9154795-4.89925547.7793193-3.10283585 10.14274645-13.4126759 11.71327268-12.89706218.57869186.18998345 1.27138767 3.13935238 1.53934568 6.55418564l.48719637 6.20869037 13.6414985 5.48332556c27.32187527 10.98232888 31.08361592 10.03270376 12.00042623-3.02931585-4.76380615-3.2607821-10.94739998-6.66042447-13.74137376-7.5547392-3.84232293-1.23007224-5.07980172-2.09118124-5.07980172-3.53499705 0-4.80957082 16.526578-10.50741895 30.69337163-10.58210748 6.67420058-.0350559 9.078807.3696449 12.38433697 2.08485172 3.68466618 1.91210408 4.29814386 2.76347534 6.0311988 8.37076242 6.54704233 21.1834957 4.3322476 30.7665103-7.1086823 30.7578437-2.73531533 0-10.6734982-1.13288954-17.64040635-2.51302048-18.31030136-3.62711615-26.25355106-3.1353599-38.1729078 2.36305916-19.13210422 8.82570998-41.37369057 12.11590007-66.57431282 9.84856297zm-50.78271927-122.02809465c.8412907-1.01311524.600908-1.95543705-1.026133-4.02256607-2.06746655-2.62675736-2.32382928-2.68528122-9.50529872-2.17249144-8.33193497.59487898-10.7909125 1.31479065-10.7909125 3.15912 0 3.31706628 18.8589819 6.00225013 21.32234422 3.0359375zm-31.50094834-1.68316963c.36003812-.5823173.27633778-1.4200557-.18610902-1.86175993-1.32614853-1.2666862-10.344056-1.60653358-10.7606089-.4054798-.84606522 2.43950047 9.51328875 4.58501835 10.94671792 2.26723972zm-25.09441344-3.0312634c1.5270683-1.52609977 1.4990058-5.1641222-.04871964-6.31561082-.66989502-.49837792-3.72802666-1.66642072-6.7958048-2.59559657-7.11306707-2.15437924-11.47405926-5.7179079-11.47405926-9.3759901 0-1.50058686.86730698-4.63857596 1.9274463-6.97329828 1.06004187-2.3347223 1.93699534-5.50104826 1.9487855-7.0363015.01851346-2.43881885.29835905-2.70767806 2.21372288-2.12837946 3.79993685 1.14924893 14.9871349 1.7865845 19.4973066 1.11068745 4.5240081-.67794197 8.51648497-3.49692246 8.51648497-6.013059 0-2.164117-4.6793263-6.1899939-10.23112388-8.80243678-6.20951268-2.92190848-8.2774664-3.04869395-5.8408999-.35805697.97293116 1.07446305 1.455353 2.2669476 1.0720269 2.65012796-.85980416.85925883-10.6134756-2.5457393-23.3705178-8.1585769-10.4639063-4.6039096-12.29790832-5.0127976-12.29790832-2.74224705 0 2.8311527 4.71411212 10.68932008 8.7431287 14.5742918l4.03954003 3.89509895-3.22455793.4906851c-3.02149448.45981642-3.21734742.7227356-3.11006678 4.1762277.251101 8.0834989 12.97433178 26.6234883 22.75694268 33.160925 2.8645198 1.91434377 4.10784495 2.01094223 5.67827375.44150948zm34.79351887-6.62799776c3.9617835-3.28590548-4.07851573-5.19849645-13.96041724-3.320864-9.24318706 1.75630012-10.89429557 2.2596443-10.89429557 3.32144826 0 1.49601014 3.23176843 1.86263633 13.41631633 1.52200992 5.96104253-.1993317 10.58502332-.8148547 11.4383965-1.52259418zm-30.41946982-8.80983745c6.03792212-2.8189805-.49781726-6.68087373-11.9289058-7.04876582-6.1063245-.19650775-6.31718308-.1219166-7.28836033 2.57748436-.87266615 2.4255755-.6922086 3.02921846 1.41627986 4.7374141 2.03765012 1.65084032 3.40891304 1.88289084 8.74985202 1.4801376 3.48345408-.26262704 7.5565132-1.04846325 9.05113425-1.74627023zm20.18064825-26.05938056c0-.8369594-6.22062076-4.07544204-7.82817392-4.07544204-1.87814202 0-.87870738 1.91931 1.73821923 3.3380998 2.94744062 1.59796435 6.08995468 1.97851552 6.08995468.73734224zm2.2894332-12.6224577c-.4205479-9.15776716-24.685948-29.8166904-41.13233347-35.01898457l-5.2263504-1.65317738-2.3251934 2.70144588c-6.62353216 7.69544964 1.9088354 19.04041224 22.0722369 29.3477205 13.98224363 7.14750658 17.06444278 8.25128025 22.37342168 8.01192642 4.29755922-.19378118 4.3818442-.2611664 4.2382187-3.38893085zm-26.72067494-9.93279447c-4.04324272-2.13607227-10.64689726-9.09719838-10.64689726-11.22324077 0-.80180612.2674708-1.45783816.59437957-1.45783816 1.50874974 0 12.06775677 6.23459277 14.83142693 8.7572536 5.74901466 5.2475747 2.60805963 7.82651973-4.77890924 3.92382533zm-11.62129 5.3677385c0-2.87487517-4.580328-8.3207104-10.3142396-12.2632322-2.29108966-1.5752754-4.41546074-2.86416363-4.72083543-2.86416363-1.18749243 0-.46556484 4.1482804 1.3361848 7.67772693 4.0323295 7.89896856 13.69889023 13.15579412 13.69889023 7.4496689zm47.47728673-7.9943985c.56475804-1.6931995-8.0682643-11.5252083-16.58055935-18.8831476-4.3991884-3.80259037-8.3379762-7.51471706-8.75297008-8.24923534-1.04221048-1.8446215 8.0340631 1.90217157 14.60712172 6.0300027 6.16274183 3.87007294 14.45618828 8.1266371 15.83397963 8.1266371 4.41818903 0-6.15251072-11.9550325-19.4121447-21.9542384-11.27801144-8.5048512-24.40317922-15.29683265-24.40317922-12.6281056 0 .26048475 1.9436212 3.98517313 4.31919074 8.2770853 2.37556952 4.29191216 4.0615613 7.80353863 3.74663756 7.80353863-.31492373 0-4.89106185-2.87312237-10.16924993-6.38474884-5.2781881-3.5115291-10.04248144-6.10936534-10.58726443-5.7728288-.6036363.37285836.2163152 2.87487517 2.09903686 6.40490598 5.56310053 10.43088026 22.56683865 25.45340056 38.84903895 34.32263826 8.18548373 4.45871978 9.78455967 4.90363746 10.45036224 2.90749662zm2.8096615-34.996393c-12.32148865-11.5023246-36.91165384-28.6442656-46.14607137-32.16864853-3.68476363-1.40632548-4.43650763-1.44449745-5.18474383-.26311393-2.82690824 4.4634913 1.95034453 9.59323924 16.20317704 17.39862804 5.3282719 2.9180134 13.19551895 7.58443932 17.48284705 10.3698246 21.45836946 13.94094868 30.00203997 16.19893754 17.6447911 4.66330984zm10.52451353-5.10257963c1.69787936-2.7454605-16.81353666-23.14857312-32.2317429-35.5255422-10.3130703-8.2787407-22.3674779-15.25319778-26.3632677-15.25319778-6.93884564 0-8.92046817 3.45757223-5.07502718 8.85462135 2.7005295 3.79012605 14.44274165 12.75713074 34.75756378 26.54276236 21.22646398 14.4042707 27.46442893 17.72279764 28.912474 15.38135628zm-3.51814247-22.2192025c.4483181-3.01928596-8.9254376-16.20215102-18.2518378-25.66841002-12.38648063-12.5722109-25.24524944-21.33117837-35.43632577-24.13807432-3.47770516-.95783405-3.7591098-.87192764-4.62836556 1.41296662-1.55932072 4.09868605-1.04464647 7.85782658 1.4876054 10.86532986 1.32722038 1.5763368 8.67170573 7.17998198 16.32107857 12.45251453 7.64937285 5.2726007 17.44582012 12.5416344 21.76998026 16.15346228 8.1958123 6.8457338 15.8024093 11.71791833 17.47212872 11.19130095.535916-.1689499 1.10554602-1.1900501 1.26573618-2.2690899zm2.14463845-21.78188028c0-3.00341343-6.59663892-12.74418927-16.07748038-23.74033603-7.07331185-8.20393533-22.04037425-20.38216672-30.22351944-24.59200915-8.0881419-4.1609492-9.36547336-3.85985805-11.3228335 2.66878548-1.85387966 6.18405386-.29280503 8.24498967 12.5811643 16.6096368 6.28434604 4.0831251 12.84649145 8.1452654 14.58237214 9.02697947 1.73597812.88171407 6.33998386 4.4887023 10.23112387 8.01551966 11.38461 10.31861376 20.229173 15.57018093 20.229173 12.01142376zm-.97439275-20.7995363c0-1.7765936-5.59613245-10.05674628-12.5089618-18.5086144-13.30981522-16.27284705-37.62744276-32.85412752-38.93663686-26.54930612-1.06861653 5.146604 3.44194495 11.0103736 15.26015973 19.8384109 4.09244955 3.05701974 10.77356832 8.56012267 14.84691978 12.22911113 13.89542525 12.51624808 21.33851915 17.04740697 21.33851915 12.99039848zm.28617915-15.80193934c3.83540474-3.83298187-33.98506522-53.49426665-47.3506157-62.1751958-3.89718123-2.53118138-4.82860326-1.01145983-4.86904056 7.94426855-.054566 11.97927948 3.82195812 17.50287062 16.99857384 24.22366913 2.81443602 1.43551924 8.16122136 6.1999556 14.12869488 12.5899336 8.94862813 9.58222584 18.2248471 18.02790076 19.80063507 18.02790076.37445914 0 .95568442-.27476028 1.29175248-.61057624zm-2.22054364-24.05357015c-8.71194814-14.36553395-48.21568157-68.81822865-49.92554597-68.81822865-1.6113533 0-.39784456 18.40506317 1.4478502 21.96044134 1.6451647 3.16900383 5.05290847 6.4335739 18.59989088 17.81858787 5.080971 4.2700704 11.23737926 10.75192405 15.2605495 16.0672832 7.53273802 9.95220182 16.40468145 19.6057956 17.24577727 18.7652722.30303615-.3028342-.87987665-2.9098434-2.62852188-5.79335596zm22.39593016 1.5369963c0-1.93419902-5.22995565-19.42384578-8.65991556-28.9697985-8.53139317-23.74423113-18.37724215-44.5700204-25.4723804-53.87848896-2.75499806-3.61450576-4.98606514-8.33318444-7.3503317-15.54606053-9.08143788-27.70565388-37.2494758-73.9436141-79.16872887-129.95582852-6.71376092-8.9708998-12.5684972-16.3107269-13.01048175-16.3107269-1.49793398 0-.76752917 5.33106615 1.47737428 10.78462342 1.22919646 2.985866 5.54702305 10.21614345 9.59513773 16.0672832 4.04821212 5.85113002 8.4711757 12.8417323 9.82889455 15.53466738 1.35762142 2.6929351 5.49216473 8.82771596 9.18784156 13.63284636 24.21784972 31.4881553 38.38941788 56.83566757 74.2990062 132.89287922 9.73535286 20.61968012 19.72268366 41.76276416 22.19413344 46.9846312 2.47144977 5.22186704 5.0755144 9.49430372 5.7868211 9.49430372.7113067 0 1.29301918-.32864898 1.29262942-.73033106zm-308.88181967-3.04565577c0-.9816818-7.91957196-10.73080288-46.84782903-57.67015356-76.5631052-92.31925954-122.3100653-148.54811937-145.10754272-178.3555005-9.6543808-12.62302247-13.7218859-16.3769241-12.1233946-11.18879834 2.33269624 7.57111808 19.38778487 38.63482442 28.98009685 52.78366428 18.61177848 27.4526185 58.0819928 76.06498236 94.1222472 115.92280943 30.09012508 33.2774761 64.61685522 67.73982182 77.05215293 76.90849526 3.70074367 2.72859473 3.92426937 2.81971083 3.92426937 1.59948344zm277.40649786-27.95817315c.44169223-1.32603775-19.1752698-30.799122-29.14057934-43.7814771-9.95965806-12.97510047-14.07734438-17.61610115-14.90937835-16.80401196-1.47279463 1.43755442 3.66790664 13.15706 9.69218725 22.09563048 6.49851757 9.64236616 28.27531858 38.00848277 30.1749947 39.30545334 1.41403875.96546844 3.74049887.51182574 4.18277574-.81559477zm-10.79130227-34.24622616c-10.8122517-21.51487124-22.98358643-40.39790202-33.10440905-51.35947003-4.86036847-5.264236-6.5628275-6.55717514-7.47593093-5.67794418-2.86793018 2.76155698 2.2717967 14.61595958 11.81051708 27.2403551 7.65814238 10.1353591 32.2744213 39.41028018 32.7440786 38.94090128.22732584-.22721086-1.56107462-4.34193497-3.9742557-9.1438422zm-25.01577995-55.49801268c-1.64526216-4.5131538-5.58424485-11.58339135-18.1538139-32.58534622-11.7575101-19.64509715-13.4474969-22.0436212-14.67045723-20.82141703-.98257765.98192523 5.50093427 18.88799702 10.96367234 30.27961318 4.26170156 8.88691172 6.38285714 11.99704112 12.45244702 18.25827637 7.71660594 7.96018004 11.19041354 9.75795323 9.40815176 4.8688737zm-87.99351168-155.571421c.33285256-.86697112-.88835387-3.24406237-2.9723851-5.78577025-4.14711297-5.05784442-4.06214592-5.03945956-27.48216287-5.94534272l-15.6997083-.60725567-2.1777678 3.52148107c-1.19772357 1.93680874-1.95190355 4.10967996-1.6758581 4.82859838.7474567 1.9464978 4.05513032 2.38673162 26.43439837 3.5182676 11.22724558.56767173 20.6179557 1.2367621 20.8682772 1.4868664.89877988.89819034 2.1504848.4276624 2.7052066-1.0168448zm51.46693785.33740322c1.63512848-.74453843 2.79738415-2.3335538 3.38318907-4.62543002 3.40423595-13.31736282 2.60231072-12.22116512 21.303441-29.12349912 4.93169404-4.4573565 8.96675186-8.40696736 8.96675186-8.7769044 0-.36994675-4.052402-2.83663502-9.00543524-5.4815338-7.25162572-3.87232237-9.95585792-4.81806213-13.8850967-4.85593223-6.9754828-.06728784-9.92370295 2.42099875-15.66121978 13.21790146-6.67702632 12.5649855-12.3653363 18.47847606-22.48206648 23.37214207-5.25704376 2.54296404-7.92122842 4.34811844-7.49337257 5.07740756.36500754.62237838 2.58506398 3.6512463 4.93344795 6.7308089l4.2696916 5.59920476h11.58991455c6.7439671 0 12.63134554-.47420883 14.08075475-1.13416518zm24.2852777-10.86047073c7.02819748-4.45473703 14.4061045-9.08125767 16.3953273-10.2811429 4.7974227-2.89363007 8.9438536-8.27785458 12.60727803-16.37046798 3.3107917-7.3135936 4.47665262-8.53966365 6.51362066-6.85018395 1.00547588.83396016 1.2310478 2.62638733.8536655 6.78530134-.51214084 5.64429054-.5085356 5.65376536 2.68844702 6.9886742 6.0766055 2.53738432 5.3370414 5.76287682-1.53262235 6.6836977-3.97386594.53267424-14.51611342 6.687398-14.51611342 8.47474207 0 1.42480773 6.66776958 4.53344726 13.5423053 6.3136925 7.87952443 2.0404768 21.79999157 2.1155451 28.52885558.15383693 5.78838014-1.68750293 13.46922587-6.27493626 13.46922587-8.04454788 0-.64659617-2.1795217-1.45128466-4.9695979-1.8347669-3.4574378-.47522154-5.58629108-1.39190387-6.99643227-3.01270323-1.11480275-1.28130255-2.61926515-2.32963922-3.3433364-2.32963922-3.37695296 0-1.88905523-8.5015988 1.9592115-11.1953908 3.09876382-2.1690735 9.65496544-1.8639704 12.7828636.59487898 3.48627983 2.74059162 4.04207345 1.85918916 1.6989512-2.69452235-4.99161917-9.70080238-17.14970215-14.97808694-24.06905995-10.44725914-3.31673547 2.17186823-5.67613007.31412026-4.77998106-3.7636491.57050695-2.5959082-.10192148-3.56896233-7.50818334-10.86558305-9.97982798-9.83190167-28.04945433-22.09236834-42.90319485-29.11022656-14.86864873-7.02490835-27.76532142-15.16091316-33.02256006-20.8326544-2.38648273-2.57459224-7.3704042-9.59087295-11.0754352-15.59173057-8.35785382-13.53700745-13.08395097-19.43652434-8.00755962-9.9958464 9.67065316 17.98496702 12.3327916 23.63328898 12.3327916 26.1671677 0 1.52821287.68967518 4.42801666 1.5325249 6.44400303 1.86060297 4.45025768 1.15143993 8.25770718-1.5379815 8.25770718-1.28103415 0-2.40460643-1.16599788-3.38630713-3.51393432l-1.4691894-3.51392457-3.44974008 3.0270372c-1.897435 1.66488214-3.7666126 3.02704694-4.1538363 3.02704694-1.29340893 0-34.68448432-20.23312077-42.87298867-25.97863517-10.5916492-7.43170275-15.78789085-10.65753607-18.47273264-11.4680088-6.39942182-1.93178406 2.1874143 5.2411478 19.2717347 16.09840506 33.6945013 21.41330653 46.85932685 32.7021992 59.53120713 51.04836848l7.39856414 10.71152215 8.3875728-.3325733c6.02467036-.23887667 9.83785895.1371367 13.53577688 1.33475304 7.1545762 2.3170775 15.15628947 6.9858892 15.88045816 9.26583668.44636932 1.40573148 1.1846667 1.76286336 2.80430233 1.35661428 1.3937714-.3496046 2.68415972.03340047 3.52545042 1.04652545 1.13195206 1.363012 1.05633918 2.10036396-.51438193 5.0150373-2.1538952 3.99712134-10.539032 11.8894098-17.63436512 16.59806834-4.8728407 3.23371116-8.91608342 8.5163028-12.354618 16.14162118-.91388296 2.02658104-1.66163195 3.88892523-1.66163195 4.13854264 0 1.41920852 3.5321737-.38216763 14.99171453-7.64568975zm70.78680756-20.93341085c-1.22890413-.41944373-4.90392382 1.62642778-4.90392382 2.72999696 0 .49182442 1.3054914.1477606 2.90105953-.76458844 1.59566558-.91234903 2.49688143-1.79677994 2.0028643-1.9654085zm-15.07765597-34.71833163c1.63162066-1.2332857 1.66806295-1.43394173.2659118-1.4606621-2.50087645-.0476176-4.7579598 1.04816138-4.15773388 2.01861555.75836988 1.22636217 1.7121055 1.08962472 3.89182208-.55795345zm.81332563-10.380429c9.23178667-8.6318509 10.93239434-11.14244666 11.88359654-17.54434367.76967284-5.17995578 2.84931928-8.74333838 4.6907267-8.0371959 3.46153024 1.32749843 2.16324934 12.3936401-2.41435036 20.5792977-1.56789537 2.803663-2.85078086 5.50666693-2.85078086 6.00667105 0 1.31012627 6.61291127 5.2063548 7.69848224 4.53584274 2.5238721-1.55880887 3.0106787-10.91614143 2.0455427-39.3201476-1.5490896-45.5937498-2.9190858-56.85978796-9.84974656-81.00071544-3.09554832-10.78262718-4.23441857-13.03224158-5.1023102-10.07921125-1.87424445 6.37677362-2.3842416 13.5064017-1.56331572 21.85444596.49538127 5.03850527 1.359083 15.51480238 1.91916396 23.28065594.56008095 7.76585355 1.38548905 18.00184253 1.83429435 22.7466476.78195018 8.2686037.18221144 14.61056488-1.53466858 16.22888112-.44364102.41810966-1.66309355.91434527-2.70988368 1.10274147-1.3156251.23678306-2.2182051 1.6069815-2.92317826 4.43796864-1.28434708 5.15737394-2.83304692 6.8750639-4.7587393 5.2779175-.76197514-.63199927-1.65315475-2.48683566-1.98035584-4.12185213-.433215-2.16446754-1.06121114-2.87980247-2.309798-2.6308959-1.44034737.28711748-1.71493125 1.42929682-1.71493125 7.13313367 0 5.94836144-.2520754 6.90195956-2.03082937 7.68302428-1.11704385.4904514-2.43247406 1.79222267-2.92317825 2.89280236-.52529513 1.1779753-2.23204147 2.2702-4.1493541 2.6553766-3.9204692.787589-4.50383815 1.3190558-6.38139554 5.81355205l-1.45769157 3.48949256 8.47127313 7.38774656c4.65915637 4.06325038 8.73562588 7.4227148 9.05873452 7.46546352.32320607.0427487 4.39694728-3.4840297 9.05269328-7.8372994zm130.18510752 633.32038248c-2.73180752-1.36377152-3.47263833-2.35225026-3.7231547-4.9679066-.267958-2.7964863.32914987-3.8802002 4.15822106-7.54675423 2.45917242-2.35478207 5.05534446-4.2813954 5.76937947-4.2813954 1.88291656 0 9.049965 5.3988993 10.88747484 8.201423.86448125 1.31868575 1.42845977 3.40879585 1.25306908 4.64480813-.40817312 2.8777965-5.82589425 5.65247023-11.03704412 5.65247023-2.14366405 0-5.43223958-.76616596-7.30794562-1.70264513zm12.21108994-4.23504372c.72582516-2.2855467-.7509645-4.37020366-2.38229284-3.36263893-.58258942.35990714-1.05926235 1.7239708-1.05926235 3.0312634 0 2.94479218 2.53400578 3.18882013 3.4415552.33137553zm-46.74415364-141.22304495c-2.11189885-.4932169-4.02248815-1.0794293-4.24581897-1.3025211-.22323337-.22318917.97117727-2.81128767 2.65444074-5.75140574 6.01687523-10.50975603 16.16020632-17.6150008 36.93474695-25.87222108 13.37490463-5.31603106 19.11261634-8.25644127 25.2441776-12.9366948 5.29377837-4.04067828 9.30691235-5.46608975 32.89627875-11.68403097 9.24513585-2.4368713 13.73240934-3.09339022 21.4366405-3.1362363l9.7439275-.0545314 6.64711246 4.0462288c3.6559216 2.22536742 6.84023712 4.23913358 7.0761376 4.47488445.65907926.65866123-3.46796123 9.49371945-4.43465628 9.49371945-.46829316 0-1.13370597-1.2843115-1.478641-2.8540364-.34503247-1.56972487-1.27479803-3.39107314-2.06619983-4.04739732-1.17959987-.97844886-2.01046457-.63967262-4.6120932 1.88026165-5.1546351 4.9929326-6.53866256 4.30408435-8.00892378-3.98624428-.35614055-2.0084104-1.04289256-3.65165527-1.52619136-3.65165527-.48320137 0-1.83721753 1.97189385-3.0089248 4.38198633-2.05528664 4.2278378-3.89347857 5.4437903-5.15229656 3.4082116-1.01560956-1.6422711-3.38211723-1.09442544-6.91916292 1.60176206-2.87504324 2.19148005-3.73221655 2.41457184-5.74901466 1.49630226-1.9969205-.90931085-2.79709183-.72312512-5.08204283 1.18255205-6.31143417 5.26373935-8.63136587 5.8437196-27.34808644 6.83696982-6.75975227.35873862-8.3675003 1.347899-12.92678142 7.9524288-3.4946596 5.0625575-12.58603627 9.45087336-18.62366607 8.9894989-3.7561866-.28697143-4.0868955-.10360965-5.09578177 2.82647855-.59330774 1.72338653-1.76754844 3.8201183-2.60932634 4.65951213-1.38967894 1.38577883-1.7731025 1.33523992-4.16981634-.54872207-1.4516503-1.14116662-3.28419076-1.82758043-4.07227962-1.52532075-1.86722882.71611395-1.83760728 4.39240573.05164282 6.47930237 4.2295466 4.67061317-6.2447857 9.81535725-15.55588794 7.64052875zM434.2681364 504.96428083c-.89868242-2.34043836 2.72635092-8.5597526 7.8819604-13.52272216 3.2626567-3.14071567 8.46630373-6.4545685 15.6121104-9.94232774 14.0543487-6.85969773 20.97039357-8.59594783 31.84948862-7.99563518l8.4639652.46705158 3.04030025-3.78086544c1.6721554-2.0794765 5.3174561-4.9284882 8.10071156-6.33114255 3.2507691-1.6382981 10.01130087-7.36455125 18.90546046-16.01319003 15.66755333-15.23508557 26.59215253-22.6386365 26.59215253-18.02132776 0 .75312712-2.13625867 2.90314384-4.74733892 4.77780628-4.23812126 3.04284157-19.02745442 21.32422562-22.43607514 27.7336207-.65313546 1.22819287-2.28105342 7.51716122-3.61753052 13.9754982-2.64235826 12.76851418-5.5055139 21.4195095-7.68815367 23.2297957-1.08781207.90227045-4.19222737.46942757-14.33546102-1.998809-11.0404545-2.68657634-14.81213395-3.16129153-25.6140571-3.22385655-14.73291582-.08530268-18.88616748.93131815-31.19333254 7.6356988-8.76885267 4.77690068-10.00389548 5.1207016-10.8142005 3.01040514zm27.74398222-11.93175926c8.54532698-2.2826351 10.48914307-2.4562007 21.57149646-1.92615565 6.69895015.32039137 14.59153143 1.24841817 17.5390695 2.0622699 10.965816 3.02780647 13.6414985 1.75652408 13.6414985-6.4812694 0-2.7254884 1.0561443-6.38047397 2.98592914-10.33360017 3.5155116-7.20113236 3.4246982-9.31241233-.41937864-9.75308435-4.99853737-.57299827-8.2245569 1.70198297-14.2587763 10.05527587-5.5888245 7.73678637-10.206082 12.03605054-11.51819927 10.7247752-.34668893-.34646904.3490275-2.3306422 1.546069-4.4092715 1.19713892-2.07862928 2.17650108-4.2402534 2.17650108-4.80362104 0-1.72297755-12.76678613-1.16614394-21.03713948.91756846-10.12783824 2.55165984-22.32850218 8.6242165-28.5390867 14.20448134-6.91185496 6.2104042-6.59566452 7.73992193.9653309 4.66956148 3.2753238-1.33003996 10.1813324-3.5471595 15.34668582-4.92693015zm-54.48541172-74.89838075c-4.75113905-3.58230304-10.60119824-5.9656167-17.69506978-7.2089031-8.33485814-1.46079843-9.53365354-1.8784212-9.53365354-3.3212827 0-2.21970005 3.4505196-4.44209745 8.35668454-5.38239382 3.81698872-.73154827 6.4797118-.51809685 13.0267541 1.04425656 9.75669206 2.32828567 12.51899806 1.97524363 21.35332993-2.72914978 5.8649674-3.12311955 6.98454467-3.3927383 11.9708047-2.8827043 6.29262837.64365536 10.57674098 2.30953075 10.57674098 4.11272787 0 1.57500274-1.5255093 2.00741715-11.692713 3.3143884-14.1443826 1.8182127-17.9166467 3.6255094-19.0181977 9.1115226-1.52219635 7.5813914-2.10351907 7.89334987-7.34468023 3.94153827zm.85288597-6.379247c-.47589342-3.19948298-4.92730925-5.91141642-10.59652115-6.45581493-6.26096062-.60121827-6.37818007 1.4004536-.1890322 3.22674866 2.2226873.65585676 5.26941856 2.1078036 6.7704706 3.22656365 3.49134665 2.6020527 4.40181924 2.6026175 4.01508275.00292133zm77.67391295 2.96619575c-1.89431695-1.662214-3.4442835-3.47731065-3.4442835-4.03356 0-.55624933 1.97314532-3.31948123 4.38476738-6.14052612 2.41162206-2.8210449 4.38476738-5.87058604 4.38476738-6.77677108 0-2.12987906-9.5682445-20.03174414-16.3888963-30.66323173-7.63397744-11.898982-13.55536218-19.1308175-16.74581636-20.4514995-1.5277504-.632418-3.01623276-1.77083857-3.30767363-2.52981807-.5502396-1.4331335.89410277-6.23192463 1.87570603-6.23192463 4.26910696 0 28.01359668 24.2161321 42.7075368 43.55587296 5.5429306 7.29541324 7.44942745 11.57480266 7.44942745 16.7212606 0 2.8349504.45309262 3.99521273 1.7051873 4.36679544.93785303.2783243 10.03624533 1.8550214 20.21864957 3.50375836 10.18240424 1.6487467 19.9111312 3.4473963 21.61933914 3.9970045 3.4091079 1.0968209 8.09963973 4.43730646 8.09963973 5.76830073 0 1.81881646-9.12859848 2.03432255-24.90343247.58792624-20.413723-1.87174112-35.7876918-1.87901522-40.25625695-.0189886-4.11427594 1.71250946-3.37217842 1.87846015-7.39866158-1.6545504zm7.9408137-3.88109608c2.31281865-1.1189256 4.2051868-2.20316536 4.2051868-2.40943032 0-.9587786-5.88016792-3.27225316-7.11423634-2.79899864-2.676462 1.02639753-4.3118828 7.24284888-1.90542502 7.24284888.33509366 0 2.5015585-.9154846 4.81447457-2.03441993zm37.10867607.8702917c-.5058073-1.51631335-4.4024039-2.55297446-13.41563427-3.5690597-7.93915725-.89501585-9.7439275-.63547567-9.7439275 1.40132027 0 1.99060006 5.32076905 3.1458864 14.94065635 3.2440429 6.2746021.063977 8.5019665-.2276588 8.2189054-1.07630348zm-27.05713277-6.13918233c0-.8114757-.86613772-1.4606621-1.9487855-1.4606621-2.15662348 0-2.6402146 1.5064295-.73079457 2.27641267 2.12037607.8550424 2.67958007.6847876 2.67958007-.81575057zm-.38858783-8.6695652c1.21945252-3.17574235-5.68275596-13.62274832-20.64962348-31.25519914-10.5696279-12.45192052-15.66677383-17.68735225-16.4541806-16.90043514-.26727594.26704797 1.5022213 3.30248885 3.93216193 6.745435 2.42994064 3.44294612 8.01525732 12.5895733 12.41200973 20.32583384 4.39665497 7.73626054 9.78231857 15.9524849 11.9680764 18.25827638 4.0191752 4.23980548 7.7840339 5.45004194 8.79155602 2.82608905zM375.8206489 374.7935792c-2.48236298-2.7430845-7.0416441-4.96719575-16.76394008-8.1777895-6.13477675-2.02588965-8.014965-3.05292987-7.78851613-4.25445105.2267412-1.20316685 2.09474953-1.79368333 7.77165913-2.4567655 6.5655558-.76687682 8.43385645-.595473 15.3831281 1.41127225l7.90992547 2.28416394 9.74373262-5.06292753c8.81689023-4.58132775 10.34542014-5.06292752 16.06871084-5.06292752 5.89488126 0 6.25813487.12483792 5.3417185 1.83596463-1.5619516 2.916728-11.4262166 8.95538757-17.75879507 10.8715328-6.84978617 2.07261138-8.60953947 3.34103088-8.60953947 6.20558404 0 3.0638264-1.8416023 4.4575123-5.89020418 4.4575123-2.37440025 0-4.1669906-.67989927-5.40787976-2.05116885zm-1.61213282-7.93002225c-.2230385-.66947013-1.23221707-1.377307-2.2425649-1.5729773-1.58933202-.3077907-1.6609499-.1436707-.53075174 1.21721844 1.54558178 1.8611367 3.3520085 2.09286587 2.77331664.35575885zm29.98956775-6.59577556c2.35423032-1.9525839.4691701-3.15287813-4.13678442-2.63405094-4.7438311.53435888-6.74416197 1.83644178-5.61825115 3.65705972.87442005 1.41395987 7.67694816.70059197 9.75503558-1.0230088zm142.23386362-36.6956689c-15.71724737-16.62529507-19.30535124-20.7342447-18.10587376-20.7342447 1.5965425 0 15.78993706 13.83310313 22.0921145 21.53133776 3.02042264 3.6894767 6.05497398 6.7081297 6.74357734 6.7081297 2.1259301 0 19.5178663-9.0747334 18.2203649-9.50695305-.67174636-.2237929-2.59295654.0708908-4.26930183.65493168-1.67624784.58400193-5.16915353 1.06182346-7.7619152 1.06182346-4.64405328 0-4.84838344-.1337577-13.76076417-9.00741635-8.15050303-8.11512708-20.0348791-17.28450164-22.40236115-17.28450164-.50229946 0-1.14140367.87146996-1.42008 1.9365945-.724461 2.768724-2.23399025 1.40069707-2.23399025-2.02462374 0-1.64365386.6167906-3.13095845 1.42738794-3.44179708 2.64489168-1.01431298 12.16997056 5.56887167 22.83596592 15.78294098 7.12748808 6.82549876 11.57247293 10.34383454 13.57368076 10.7438125 4.0451915.80853492 11.6071613-1.11899375 22.01260405-5.61093873 6.4816606-2.79812225 10.01490614-3.75314208 13.8850967-3.75314208 4.4716832 0 5.19107738.25943306 5.19107738 1.87203324 0 1.3034267-1.10983335 2.2318917-3.65397282 3.05681524-2.00968504.65163058-11.32731572 5.0602594-20.70584593 9.7969529-9.37853022 4.7366838-17.9288266 8.8244733-19.00065863 9.08397452-1.50153923.3635296-4.40854256-2.1300933-12.66710575-10.8657291zM431.87317647 306.652718c-7.78461856-5.84834502-11.99175414-7.7375167-21.6224572-9.70939108-8.15751866-1.67024765-11.43927344-3.06492678-11.43927344-4.86150223 0-.42890882 1.12824936-2.11977128 2.50711254-3.75747537 3.1753511-3.7712835 8.72607684-5.31951718 16.03304807-4.47200207 5.01237374.5813922 7.31057648 1.57619075 12.89540597 5.58207606 1.48526688 1.06533877 2.16295704.74460658 5.02893843-2.3801197 1.82182213-1.98626677 4.5572349-3.88513725 6.0785543-4.2197165 1.52141683-.334589 4.7393489-1.24374406 7.15097095-2.02033916 2.41162205-.77660483 6.85972496-1.67406484 9.88472725-1.99435883 4.7443183-.50234116 5.63208753-.33065494 6.46197784 1.24973278 2.05343528 3.9102801-1.84764353 8.29102-8.4702013 9.5117148-5.84343332 1.07710198-9.26988543 4.63242172-12.72868737 13.2075405-2.2214206 5.50733885-3.65679855 7.83918854-4.82529034 7.83918854-.9147599 0-4.044412-1.78891184-6.9548257-3.97534774zm7.95114228-1.92525978c.39316747-.77148277 1.4818565-3.5936962 2.4194172-6.27157673 2.3335732-6.6658776 7.89521213-12.17218425 12.29440052-12.17218425 3.78005923 0 7.623454-2.19556017 5.8071859-3.31733894-1.66192426-1.0264657-19.70417018 4.3602322-21.87687113 6.53154538-1.47065098 1.46975717-1.7408501 2.67880563-1.26437204 5.65706645.846455 5.28955414-.61269816 4.9308058-8.35765893-2.0548497-5.9205078-5.34007356-6.84130894-5.83273542-10.7047762-5.72744115-12.44903664.3393118-13.4162189 3.1960066-2.09562648 6.18977965 8.142513 2.15331782 13.3825049 5.08762246 18.36321088 10.28305152 2.91401896 3.03960864 4.2082074 3.25039192 5.41509027.88194778z"/>
</svg>
